<svg width="140" height="40" viewBox="0 0 140 40" fill="none" xmlns="http://www.w3.org/2000/svg">
<path d="M2.49609 1.9375H14.1054C16.5521 1.9375 18.5383 3.92094 18.5383 6.37041V18.9368L8.42698 18.4569C6.29375 18.357 4.53778 16.7508 4.24651 14.6343L2.49609 1.9375Z" fill="url(#paint0_linear_1629_11036)"/>
<path d="M19.7371 18.9401H27.1632C28.9969 18.9401 30.6419 17.8111 31.2993 16.0995L35.4132 5.3973L27.3158 3.74675C24.9107 3.25575 22.5667 4.81198 22.084 7.21984L19.7344 18.9429L19.7371 18.9401Z" fill="url(#paint1_linear_1629_11036)"/>
<path d="M18.5383 20.1121L10.047 20.5227C8.03583 20.6198 6.34089 22.0623 5.92478 24.0346L4.02734 33.017H13.3259C15.62 33.017 17.5341 31.2665 17.7394 28.9807L18.5355 20.1094L18.5383 20.1121Z" fill="url(#paint2_linear_1629_11036)"/>
<path d="M19.7383 20.1094L23.6469 20.3396C25.4916 20.4478 27.0756 21.6933 27.6221 23.4576L29.6915 30.1708H24.9008C22.6621 30.1708 20.7758 28.5008 20.5011 26.2816L19.7411 20.1094H19.7383Z" fill="url(#paint3_linear_1629_11036)"/>
<path fill-rule="evenodd" clip-rule="evenodd" d="M108.277 16.5108C108.826 16.6689 109.401 16.7494 109.994 16.7494L110 16.7521C110.702 16.7521 111.287 16.6467 111.753 16.4331C112.219 16.2195 112.569 15.9393 112.799 15.5926C113.029 15.2458 113.143 14.863 113.143 14.4441C113.143 14.0613 113.062 13.7395 112.904 13.4815C112.746 13.2236 112.538 13.0183 112.283 12.8657C112.028 12.7131 111.747 12.5883 111.442 12.4884C111.137 12.3886 110.829 12.3053 110.519 12.2388C110.208 12.1722 109.925 12.1028 109.67 12.0363C109.414 11.9697 109.209 11.8754 109.054 11.7561C108.898 11.6368 108.821 11.4787 108.821 11.279C108.821 11.1236 108.868 10.9821 108.965 10.8545C109.062 10.7269 109.212 10.6271 109.417 10.5522C109.623 10.4773 109.908 10.4412 110.236 10.4412C110.563 10.4412 110.901 10.4911 111.256 10.5854C111.611 10.6798 111.955 10.824 112.288 11.0154L112.829 9.71995C112.488 9.50912 112.091 9.34545 111.634 9.23172C111.176 9.11798 110.715 9.0625 110.247 9.0625C109.545 9.0625 108.962 9.16791 108.499 9.37597C108.036 9.58679 107.692 9.86697 107.464 10.2165C107.237 10.566 107.123 10.9544 107.123 11.3788C107.123 11.7672 107.198 12.0917 107.351 12.3497C107.503 12.6077 107.708 12.8185 107.966 12.9767C108.224 13.1376 108.507 13.2652 108.815 13.3595C109.123 13.4538 109.428 13.537 109.733 13.6036C110.036 13.6729 110.319 13.7423 110.577 13.8172C110.835 13.8893 111.043 13.9864 111.198 14.1029C111.354 14.2194 111.431 14.3776 111.431 14.5745C111.431 14.7299 111.381 14.8658 111.281 14.9823C111.182 15.1016 111.026 15.1959 110.818 15.2652C110.61 15.3346 110.335 15.3707 109.994 15.3707C109.548 15.3707 109.104 15.2958 108.665 15.1515C108.227 15.0073 107.85 14.8214 107.539 14.5939L106.954 15.8894C107.287 16.1446 107.728 16.3527 108.277 16.5108ZM102.471 16.7494C101.417 16.7494 100.59 16.4553 99.9966 15.8672C99.403 15.2791 99.1034 14.4358 99.1034 13.3373V9.18178H100.834V13.2929C100.834 13.9947 100.979 14.5024 101.27 14.8186C101.561 15.1349 101.963 15.2902 102.482 15.2902C103.001 15.2902 103.414 15.1321 103.703 14.8186C103.994 14.5024 104.138 13.9947 104.138 13.2929V9.18178H105.828V13.3373C105.828 14.4358 105.531 15.2791 104.934 15.8672C104.338 16.4553 103.517 16.7494 102.468 16.7494H102.471ZM41.6392 16.6217L39.1953 9.18456H40.9818L42.659 14.4121L44.4133 9.18456H46.0083L47.7074 14.4527L49.4398 9.18456H51.0876L48.6437 16.6217H46.8156L45.1652 11.5785L43.4784 16.6217H41.6392ZM51.2235 16.6217L54.5274 9.18456H56.2279L59.5651 16.6217H57.7591L57.0972 15.0294H53.6525L52.9906 16.6217H51.2263H51.2235ZM55.3749 10.8864L56.554 13.7229H54.1957L55.3749 10.8864ZM60.339 9.18456V16.6217H62.0395V12.1082L65.7373 16.6217H67.1604V9.18456H65.4599V13.6981L61.7621 9.18456H60.339ZM68.9246 16.6217V9.18456H72.3034C73.1106 9.18456 73.8236 9.3399 74.4394 9.64782C75.0552 9.95574 75.5379 10.3885 75.8847 10.9433C76.2314 11.5009 76.4062 12.1528 76.4062 12.9045C76.4062 13.6563 76.2314 14.3082 75.8847 14.8658C75.5379 15.4206 75.0552 15.8533 74.4394 16.1613C73.8236 16.4692 73.1106 16.6245 72.3034 16.6245H68.9246V16.6217ZM70.6584 15.2209H72.2202C72.7167 15.2209 73.1467 15.1265 73.5101 14.9407C73.8735 14.752 74.1592 14.483 74.359 14.1334C74.5615 13.7839 74.6613 13.3734 74.6613 12.9073C74.6613 12.4413 74.5615 12.0224 74.359 11.6756C74.1565 11.3289 73.8735 11.0598 73.5101 10.8739C73.1439 10.6853 72.714 10.5938 72.2202 10.5938H70.6584V15.2209ZM83.4606 15.2403H79.4132H79.4105V13.5176H82.8669V12.1694H79.4105V10.566H83.3219V9.18456H77.7017V16.6217H83.4606V15.2403ZM84.831 16.6217V9.18456H88.0516C88.7174 9.18456 89.2916 9.29275 89.7743 9.50912C90.257 9.72549 90.6287 10.0362 90.8895 10.4384C91.1502 10.8407 91.2834 11.3206 91.2834 11.8726C91.2834 12.4246 91.153 12.9129 90.8895 13.3123C90.6259 13.7118 90.2542 14.0169 89.7743 14.225L89.7647 14.2291L91.4221 16.6217H89.5746H89.5718L88.1284 14.538C88.1029 14.5383 88.0773 14.5384 88.0516 14.5384H86.5647V16.6217H84.8337H84.831ZM87.9545 13.1681H86.5647V10.5827H87.9545C88.4788 10.5827 88.8755 10.6964 89.1446 10.9183C89.4137 11.143 89.5496 11.4593 89.5496 11.8698C89.5496 12.2804 89.4137 12.5994 89.1446 12.8269C88.8755 13.0543 88.4788 13.1681 87.9545 13.1681ZM92.7369 9.18456V16.6217V16.6245H98.1768V15.2209H94.468V9.18456H92.7369ZM115.847 16.6217V10.5854H113.467V9.18178H119.95V10.5854H117.57V16.6217H115.85H115.847ZM40.5795 27.4904C41.1288 27.6485 41.7003 27.729 42.2967 27.729L42.2994 27.7318C43.0013 27.7318 43.5866 27.6263 44.0526 27.4127C44.5187 27.1991 44.8682 26.919 45.0985 26.5722C45.3259 26.2255 45.4424 25.8426 45.4424 25.4238C45.4424 25.0409 45.362 24.7192 45.2039 24.4612C45.0457 24.2032 44.8377 23.9979 44.5825 23.8453C44.3273 23.6928 44.0471 23.5679 43.7419 23.4681C43.4368 23.3682 43.1289 23.285 42.8182 23.2184C42.5075 23.1518 42.2246 23.0825 41.9693 23.0159C41.7141 22.9493 41.5088 22.855 41.3535 22.7357C41.1982 22.6164 41.1205 22.4555 41.1205 22.2586C41.1205 22.1032 41.1704 21.9618 41.2647 21.8342C41.3618 21.7066 41.5116 21.6067 41.7169 21.5318C41.9222 21.4569 42.2079 21.4208 42.5352 21.4208C42.8626 21.4208 43.201 21.468 43.5561 21.5651C43.9112 21.6594 44.2551 21.8036 44.588 21.9951L45.129 20.6996C44.7878 20.4888 44.3911 20.3251 43.9334 20.2113C43.4756 20.0976 43.0152 20.0421 42.5463 20.0421C41.8445 20.0421 41.262 20.1475 40.7987 20.3556C40.3354 20.5664 39.9915 20.8466 39.764 21.1961C39.5365 21.5457 39.4228 21.934 39.4228 22.3584C39.4228 22.7468 39.4977 23.0714 39.6502 23.3294C39.8028 23.5873 40.0081 23.7954 40.2661 23.9563C40.5241 24.1172 40.807 24.242 41.1149 24.3391C41.4229 24.4334 41.728 24.5167 42.0331 24.5832C42.3383 24.6526 42.6212 24.7219 42.8792 24.7968C43.1372 24.869 43.3453 24.966 43.5006 25.0826C43.656 25.2018 43.7336 25.36 43.7336 25.5569C43.7336 25.7123 43.6837 25.8482 43.5838 25.9647C43.484 26.0812 43.3286 26.1755 43.1206 26.2449C42.9097 26.3142 42.6379 26.3503 42.2967 26.3503C41.8501 26.3503 41.4062 26.2754 40.9679 26.1311C40.5296 25.9869 40.1523 25.801 39.8417 25.5736L39.2563 26.869C39.5892 27.1242 40.0303 27.3323 40.5795 27.4904ZM48.1527 27.6014V21.5651H45.7725V20.1614H52.2555V21.5651H49.8753V27.6014H48.1527ZM55.5039 20.1642L52.2 27.6014H52.2028H53.967L54.6301 26.0063H58.0725L58.7356 27.6014H60.5415L57.2043 20.1642H55.5039ZM57.5294 24.6997L56.3513 21.866L55.1733 24.6997H57.5294ZM62.9549 27.6014V21.5651H60.5748V20.1614H67.0577V21.5651H64.6776V27.6014H62.9549ZM67.9787 20.1642V27.6014H69.7097V20.1642H67.9787ZM75.0774 27.729C74.4893 27.729 73.9484 27.6347 73.4518 27.4433C72.9553 27.2518 72.5225 26.9828 72.1564 26.636C71.7874 26.2893 71.5017 25.8815 71.302 25.4127C71.0995 24.9466 70.9996 24.4362 70.9996 23.8814C70.9996 23.3266 71.0995 22.8106 71.302 22.3446C71.5045 21.8813 71.7902 21.4763 72.1564 21.1268C72.5253 20.78 72.9553 20.5109 73.4463 20.3195C73.9373 20.1281 74.4782 20.0338 75.0663 20.0338C75.6544 20.0338 76.1954 20.1281 76.6864 20.314C77.1774 20.5026 77.6101 20.7689 77.9763 21.1157C78.3425 21.4624 78.631 21.8702 78.8307 22.3363C79.0304 22.8023 79.1331 23.3183 79.1331 23.8758C79.1331 24.4334 79.0332 24.9411 78.8307 25.4099C78.6282 25.8787 78.3425 26.2893 77.9763 26.636C77.6101 26.9828 77.1774 27.2519 76.6864 27.4377C76.1954 27.6263 75.6572 27.7179 75.0774 27.7179V27.729ZM75.0663 26.2726C75.3992 26.2726 75.7044 26.2144 75.9845 26.0979C76.2647 25.9813 76.5116 25.8149 76.7224 25.5985C76.9333 25.3821 77.0997 25.1297 77.2162 24.844C77.3327 24.5583 77.391 24.2365 77.391 23.8814C77.391 23.5263 77.3327 23.2073 77.2162 22.9188C77.0997 22.6331 76.936 22.3806 76.7224 22.1643C76.5088 21.9479 76.2647 21.7815 75.9845 21.6649C75.7044 21.5484 75.3992 21.4902 75.0663 21.4902C74.7335 21.4902 74.4255 21.5484 74.1426 21.6649C73.8596 21.7815 73.6127 21.9479 73.4047 22.1643C73.1966 22.3806 73.033 22.6331 72.9165 22.9188C72.7999 23.2045 72.7417 23.5263 72.7417 23.8814C72.7417 24.2365 72.7999 24.5555 72.9165 24.844C73.033 25.1297 73.1966 25.3821 73.4047 25.5985C73.6127 25.8149 73.8596 25.9813 74.1426 26.0979C74.4255 26.2144 74.7335 26.2726 75.0663 26.2726ZM80.4313 20.1642V27.6014H82.1318V23.0878L85.8296 27.6014H87.2527V20.1642H85.5522V24.6777L81.8544 20.1642H80.4313Z" fill="url(#paint4_linear_1629_11036)"/>
<path fill-rule="evenodd" clip-rule="evenodd" d="M105.256 18.121C105.248 18.2264 105.164 18.3097 105.042 18.3097C102.859 18.2348 100.679 18.1959 98.4901 18.1959C97.1031 18.1959 95.7105 18.2126 94.3152 18.2459C91.0918 24.5873 88.4343 31.1562 86.3426 37.9554L85.957 37.85C88.0237 31.1007 90.6562 24.5623 93.8547 18.2542C91.2887 18.3208 88.7283 18.4428 86.179 18.6148H86.1623C86.0652 18.6148 85.9737 18.526 85.9654 18.4262C85.9654 18.3041 86.0319 18.2209 86.154 18.2126C88.7782 18.0406 91.4108 17.9185 94.06 17.8519C94.8395 16.3179 95.6523 14.8088 96.4956 13.3164C96.5538 13.2248 96.6343 13.1943 96.7342 13.2193C96.8257 13.2526 96.8812 13.3247 96.8812 13.4246L96.8146 14.9836C96.8063 15.089 96.7258 15.1805 96.601 15.1805C96.4956 15.1722 96.404 15.089 96.4124 14.9669L96.4373 14.2457C95.7743 15.4358 95.1335 16.6314 94.5177 17.8381C98.0435 17.7632 101.555 17.7965 105.056 17.9213C105.162 17.9213 105.253 18.0045 105.253 18.1266L105.256 18.121ZM94.6649 27.2553C94.2754 27.6467 93.8021 27.7996 93.4192 27.7996H93.3221C92.9698 27.7663 92.7562 27.6443 92.6813 27.4307C92.623 27.2088 92.648 27.0035 92.7562 26.8148C92.8616 26.6262 92.9698 26.4625 93.0752 26.3405H93.0835C93.0835 26.3405 93.0835 26.3322 93.0918 26.3322C93.0003 26.2739 92.9199 26.2101 92.845 26.1269C92.7479 26.0048 92.6979 25.8966 92.7063 25.8079V25.7746C92.6979 25.6109 92.8533 25.3224 93.2389 25.1837C93.3609 25.1338 93.4858 25.1338 93.5995 25.1837C93.6827 25.217 93.7382 25.2669 93.7632 25.3391C93.8214 25.4944 93.7382 25.6664 93.6328 25.7746C93.5107 25.88 93.3693 25.9632 93.2306 26.0215C93.2888 26.0631 93.3443 26.0964 93.4025 26.1186C93.4525 26.1352 93.4858 26.1685 93.4996 26.2073C93.5163 26.2489 93.5163 26.2989 93.4996 26.3377C93.4762 26.3924 93.4234 26.4593 93.3574 26.543L93.3443 26.5596C93.1473 26.7649 92.9337 27.059 93.0003 27.3225C93.0086 27.3641 93.1224 27.4446 93.3443 27.4529C93.8103 27.4945 94.4012 27.2476 94.7868 26.5014C94.8013 26.4696 94.8214 26.4451 94.8458 26.4284C94.9369 26.2445 95.0497 26.0733 95.1862 25.9161C95.4082 25.6525 95.6301 25.4722 95.8437 25.3668C96.0739 25.2614 96.2709 25.2364 96.4429 25.2836C96.6315 25.3418 96.7536 25.4472 96.8285 25.6192C96.9034 25.6608 96.9256 25.7413 96.9034 25.8328C96.8118 26.0548 96.7064 26.26 96.5844 26.4487C96.4456 26.8259 96.4623 27.0812 96.626 27.2032C96.8312 27.3336 97.1419 27.3169 97.5608 27.1616C97.9797 26.9979 98.3736 26.7011 98.7509 26.2767C98.7687 26.2566 98.7893 26.2413 98.8113 26.231C98.9904 25.9847 99.1933 25.7244 99.4194 25.45C99.486 25.3751 99.5831 25.3585 99.658 25.4251C99.7329 25.4916 99.7412 25.5887 99.683 25.6636C99.4943 25.8855 99.3223 26.1158 99.167 26.3349C99.5692 25.9161 99.9964 25.5638 100.421 25.4001C100.526 25.3585 100.618 25.3668 100.701 25.4084C100.776 25.45 100.815 25.5138 100.831 25.597C100.84 25.6858 100.823 25.7774 100.798 25.8606C100.723 26.0659 100.643 26.2545 100.551 26.4431C100.46 26.6151 100.396 26.7954 100.338 26.9674C100.329 27.0007 100.321 27.0257 100.313 27.0423C100.317 27.0382 100.321 27.0361 100.325 27.034C100.329 27.0319 100.333 27.0298 100.338 27.0257C100.657 26.8204 100.987 26.5902 101.306 26.3377C101.838 25.9355 102.371 25.5499 102.92 25.2975C103.059 25.2392 103.175 25.2309 103.264 25.2891C103.306 25.3141 103.378 25.3724 103.403 25.4944C103.411 25.5998 103.395 25.708 103.353 25.8051C103.286 25.9937 103.189 26.199 103.067 26.4293C103.056 26.4513 103.045 26.4746 103.033 26.4991L103.033 26.4991C102.899 26.7673 102.701 27.1642 102.732 27.3142C103.026 27.2726 103.642 26.8065 104.207 26.1824C104.282 26.1161 104.378 26.1076 104.453 26.173C104.516 26.2394 104.522 26.3338 104.457 26.4071C104.113 26.8343 103.137 27.6693 102.693 27.6526C102.587 27.6526 102.512 27.5944 102.479 27.5555C102.257 27.2698 102.471 26.801 102.759 26.2684C102.881 26.0464 102.965 25.8578 103.023 25.6941C103.04 25.6608 103.048 25.6359 103.048 25.6109C102.549 25.8412 102.021 26.2184 101.506 26.6123C101.186 26.8676 100.856 27.095 100.521 27.317C100.357 27.414 100.218 27.439 100.11 27.3918C100.052 27.3669 99.9881 27.3003 99.9631 27.1699C99.9548 27.095 99.9631 26.9896 100.005 26.8676C100.071 26.6706 100.152 26.482 100.243 26.2933C100.332 26.113 100.407 25.9327 100.465 25.7607V25.7441C99.9964 25.9743 99.4971 26.4487 99.0311 26.9425L98.3265 27.6554C98.2932 27.6887 98.2516 27.7053 98.2127 27.7053C98.1739 27.7053 98.1378 27.697 98.1156 27.6803C98.0491 27.6221 98.0269 27.5416 98.0574 27.4667C98.094 27.3867 98.1348 27.3043 98.1798 27.2196C97.5252 27.6363 96.8369 27.7641 96.429 27.4806C96.3236 27.4057 96.1988 27.2587 96.1655 27.0284C96.0351 27.1672 95.8936 27.3086 95.7549 27.4307C95.6329 27.5361 95.4914 27.6193 95.3277 27.6776L95.319 27.679C95.2723 27.6868 95.2282 27.6942 95.189 27.6942C95.0253 27.6942 94.8866 27.6276 94.7785 27.5056C94.7212 27.4346 94.6834 27.3509 94.6649 27.2553ZM93.4025 25.5194C93.4025 25.5194 93.4192 25.4944 93.4275 25.4861C93.4109 25.4861 93.3859 25.4944 93.3609 25.5027C93.2056 25.5693 93.0974 25.6414 93.0586 25.7163C93.1806 25.6747 93.2971 25.6109 93.4025 25.5194ZM96.3541 25.6109C96.429 25.6359 96.5011 25.6997 96.5261 25.7912L96.5233 25.7968C96.4151 25.9854 96.3347 26.1491 96.2764 26.3044C96.0712 26.6401 95.8159 26.9258 95.5302 27.1727C95.4414 27.2615 95.3416 27.3197 95.2362 27.353C95.1779 27.3613 95.0975 27.3613 95.0392 27.2948C94.981 27.2115 94.9726 27.0728 95.0309 26.8676C95.1946 26.3433 95.6218 25.8495 95.9907 25.6775C96.0989 25.6276 96.196 25.6026 96.2709 25.6026C96.3042 25.6026 96.3291 25.6026 96.3541 25.6109ZM95.4442 28.9869C95.6162 28.9869 95.7716 28.8482 95.7716 28.6596C95.7716 28.4709 95.6162 28.3239 95.4442 28.3239C95.2556 28.3239 95.1086 28.4709 95.1086 28.6596C95.1086 28.8482 95.2556 28.9869 95.4442 28.9869ZM125.157 21.633C125.462 20.6232 125.559 19.6634 125.437 18.7701H125.443C125.254 17.5468 124.713 16.4732 123.812 15.555C122.965 14.7284 121.884 14.1209 120.571 13.7519C119.268 13.3746 117.817 13.2526 116.216 13.3913C113.617 13.6271 111.24 14.4232 109.081 15.7603C107.284 16.8838 106.252 18.1377 105.972 19.5164C105.947 19.6412 106.013 19.73 106.135 19.7549C106.244 19.7799 106.341 19.705 106.366 19.5996C106.626 18.3346 107.603 17.1695 109.301 16.1043C111.409 14.8005 113.72 14.0293 116.247 13.7908C117.781 13.6576 119.173 13.7741 120.43 14.1264C121.687 14.4787 122.719 15.0529 123.523 15.8408C124.369 16.6924 124.868 17.6855 125.04 18.8256C125.146 19.6717 125.054 20.5733 124.76 21.5331C124.472 22.4929 124.006 23.4194 123.357 24.321C121.889 26.3488 119.92 27.955 117.442 29.1284C115.581 29.9967 113.703 30.3573 111.808 30.2019C111.553 30.1853 111.209 30.1187 110.79 30.005C111.7 28.1186 112.618 26.2323 113.545 24.3543C115.292 23.8966 117.146 23.9437 118.81 24.5596C118.935 24.6012 119.04 24.5429 119.082 24.4458C119.115 24.3376 119.065 24.2239 118.96 24.1823C117.326 23.5692 115.514 23.4943 113.783 23.8799C114.588 22.271 115.39 20.6731 116.202 19.0892C116.258 18.981 116.216 18.8589 116.111 18.8173C116.011 18.7618 115.897 18.8034 115.839 18.9005C114.971 20.5982 114.111 22.3043 113.265 24.0186C112.077 24.3543 111.034 24.9035 110.124 25.6664C109.55 26.1574 109.148 26.6595 108.926 27.1672C108.638 27.8496 108.629 28.4876 108.901 29.0785C109.187 29.6444 109.681 30.005 110.23 30.2352C109.001 32.7929 107.794 35.3616 106.621 37.9276C106.563 38.0275 106.613 38.1412 106.718 38.1995C106.743 38.2078 106.776 38.2161 106.801 38.2161C106.876 38.2161 106.94 38.1773 106.99 38.1024C108.172 35.5198 109.378 32.9427 110.607 30.3767C111.093 30.5182 111.478 30.5903 111.772 30.607C112.058 30.6319 112.355 30.6486 112.657 30.6486C114.305 30.6486 116.028 30.2547 117.612 29.5001C120.155 28.2934 122.18 26.6456 123.681 24.5623C124.361 23.6192 124.855 22.6427 125.157 21.633ZM110.396 25.9771C111.159 25.3307 112.027 24.837 113.021 24.5179C112.895 24.7726 112.77 25.0273 112.644 25.2819L112.643 25.284L112.642 25.2858L112.642 25.2874L112.642 25.2876C111.891 26.8115 111.141 28.3348 110.405 29.8663C109.936 29.6777 109.503 29.367 109.264 28.8982C109.043 28.421 109.059 27.8967 109.298 27.3308C109.495 26.8787 109.864 26.4293 110.396 25.9771ZM127.538 26.2541C127.479 26.2466 127.424 26.2706 127.379 26.3211C127.099 26.6817 126.83 26.9286 126.574 27.0673C126.322 27.206 126.147 27.2726 126.042 27.2726C126.036 27.2726 126.028 27.2727 126.02 27.273C125.975 27.2741 125.903 27.2759 125.853 27.2476C125.798 27.206 125.862 27.0174 125.895 26.9841L126.649 25.4583C126.683 25.3834 126.674 25.3113 126.616 25.2531C126.549 25.2115 126.469 25.2031 126.402 25.2447C125.853 25.6137 125.362 26.0326 124.91 26.5069C124.939 26.4362 124.969 26.3634 124.999 26.2887L125 26.2876C125.1 26.0402 125.21 25.7719 125.329 25.4889C125.376 25.4972 125.418 25.4805 125.459 25.4556C125.476 25.4556 126.78 23.8744 127.806 22.332C128.158 21.8077 128.461 21.3139 128.699 20.8479C128.938 20.3791 129.068 20.0018 129.085 19.7078C129.085 19.5108 129.027 19.361 128.905 19.2639C128.816 19.1752 128.619 19.1086 128.347 19.2639C127.765 19.6162 126.896 21.0865 125.739 23.6857L125.728 23.7113C125.575 24.0586 125.39 24.4775 125.182 24.9729C124.968 25.4722 124.771 25.9549 124.591 26.4154C124.406 26.86 124.284 27.192 124.209 27.3981L124.209 27.3985L124.205 27.4085C124.205 27.4168 124.197 27.4168 124.197 27.4168V27.4251L124.205 27.4335C124.18 27.4973 124.172 27.5389 124.172 27.5472C124.189 27.6193 124.236 27.6693 124.311 27.6859H124.344C124.4 27.6859 124.441 27.6609 124.483 27.6027C124.852 27.0201 125.368 26.4709 126.025 25.9383L125.59 26.8232C125.362 27.2809 125.567 27.4862 125.681 27.5361C125.812 27.611 125.945 27.611 126.067 27.6027C126.307 27.6027 126.729 27.443 127.188 27.0299C127.13 27.2218 127.121 27.3815 127.163 27.5111C127.212 27.6193 127.296 27.6831 127.409 27.7081C127.745 27.7663 128.239 27.3808 128.755 26.8148C128.683 27.1172 128.699 27.3475 128.788 27.5195C128.888 27.6748 129.035 27.758 129.224 27.758C129.535 27.7527 129.889 27.5559 130.21 27.2353C130.249 27.3832 130.326 27.5154 130.441 27.6304C130.58 27.7525 130.736 27.8107 130.924 27.8107C130.963 27.8107 131.005 27.8107 131.046 27.8024C131.235 27.7691 131.407 27.6776 131.57 27.5222C131.709 27.3974 131.806 27.2504 131.881 27.095C132.439 27.219 133.194 27.1049 134.097 26.5403C134.037 26.9497 134.081 27.2508 134.234 27.4446C134.325 27.5527 134.497 27.6914 134.799 27.6914C135.504 27.6748 136.53 26.9757 136.899 26.5014C136.958 26.4265 136.941 26.3294 136.874 26.2628C136.8 26.2046 136.694 26.2212 136.628 26.2878C136.447 26.5153 136.167 26.7455 135.798 26.9757C135.429 27.206 135.091 27.328 134.797 27.3447C134.658 27.3447 134.561 27.3059 134.503 27.231C134.389 27.0756 134.389 26.7538 134.503 26.2795C135.529 25.4029 136.292 24.5013 136.808 23.7052H137.424C137.465 23.7052 137.507 23.6746 137.507 23.6164C137.507 23.5748 137.465 23.5332 137.424 23.5332H136.916L136.911 23.5304C137.476 22.59 137.682 21.8493 137.543 21.547C137.479 21.4249 137.371 21.3666 137.232 21.3833C136.972 21.4471 136.666 21.6857 136.331 22.0879C135.995 22.4901 135.657 22.9728 135.338 23.5304H133.279C133.238 23.5304 133.196 23.572 133.196 23.6136C133.196 23.6691 133.238 23.7024 133.279 23.7024H135.241C134.888 24.3265 134.603 24.9174 134.397 25.4667C134.314 25.6901 134.246 25.8966 134.194 26.0864C134.162 26.0869 134.129 26.097 134.095 26.1186C133.249 26.7094 132.528 26.8648 131.995 26.7677C132.003 26.7011 132.012 26.6373 132.02 26.5624C132.02 26.4875 132.012 26.4237 131.995 26.3571C132.472 26.2184 132.899 25.7829 132.619 25.2836C132.555 25.1615 132.447 25.0228 132.317 24.9646C132.106 24.898 131.981 25.1754 132.195 25.2669C132.303 25.3169 132.442 25.5721 132.392 25.6941C132.303 25.9327 132.073 26.0215 131.884 26.0631C131.817 25.9715 131.737 25.9077 131.645 25.8578C131.532 25.8023 131.423 25.769 131.318 25.7607C131.146 25.7524 131.016 25.7829 130.924 25.8578C130.555 25.9878 130.303 26.3782 130.211 26.7167C129.875 27.159 129.483 27.414 129.221 27.414C129.132 27.414 129.107 27.3808 129.082 27.3475C129.049 27.3142 128.974 27.0701 129.238 26.4459C129.26 26.371 129.293 26.2989 129.335 26.224H129.351C129.884 26.1435 130.441 25.6747 130.131 25.1171C130.067 24.9951 129.959 24.8564 129.828 24.7981C129.615 24.7315 129.493 25.0089 129.706 25.1005C129.812 25.1504 129.953 25.4056 129.903 25.5277C129.837 25.7163 129.681 25.8051 129.526 25.855C129.543 25.8235 129.562 25.7904 129.584 25.7548C129.602 25.7245 129.621 25.6925 129.64 25.6581C129.679 25.5832 129.673 25.4778 129.582 25.4362C129.507 25.3807 129.41 25.4029 129.351 25.4778C128.433 26.8148 127.687 27.414 127.482 27.3891C127.448 27.2892 127.515 27.0673 127.679 26.7316C127.842 26.3876 128.056 26.027 128.311 25.6498C128.366 25.5749 128.358 25.4778 128.269 25.4195C128.194 25.364 128.089 25.3862 128.031 25.4611C127.984 25.5249 127.875 25.6886 127.712 25.9521C127.653 26.0492 127.594 26.1499 127.538 26.2541ZM130.666 27.3724C130.537 27.2513 130.487 27.0565 130.527 26.8611C130.593 26.7685 130.657 26.6705 130.716 26.568C130.737 26.5183 130.742 26.472 130.728 26.4306C130.752 26.397 130.779 26.3643 130.808 26.3322C130.841 26.4459 130.916 26.5624 131.021 26.6678C131.135 26.7899 131.307 26.8981 131.546 27.0035H131.543C131.484 27.095 131.418 27.1838 131.329 27.267C131.257 27.3419 131.141 27.4307 130.985 27.4557C130.863 27.4695 130.758 27.4473 130.666 27.3724ZM127.773 20.4346C127.446 20.9672 127.093 21.6163 126.724 22.3792C126.355 23.142 126.011 23.9049 125.676 24.6677C126.652 23.4444 128.81 20.5428 128.744 19.6551C128.735 19.5718 128.702 19.533 128.694 19.533C128.685 19.5247 128.669 19.508 128.644 19.508C128.636 19.508 128.619 19.508 128.602 19.5164C128.38 19.5996 128.111 19.902 127.773 20.4346ZM131.068 28.6596C131.068 28.8482 130.913 28.9869 130.741 28.9869C130.552 28.9869 130.405 28.8482 130.405 28.6596C130.405 28.4709 130.552 28.3239 130.741 28.3239C130.913 28.3239 131.068 28.4709 131.068 28.6596ZM131.668 26.5513C131.676 26.4542 131.643 26.346 131.609 26.2711C131.559 26.1962 131.471 26.1408 131.346 26.1075C131.24 26.0825 131.157 26.1075 131.149 26.1158L131.141 26.1241C131.107 26.1824 131.141 26.2961 131.263 26.4182C131.354 26.5153 131.484 26.5985 131.656 26.6734C131.665 26.6318 131.665 26.5902 131.665 26.5513H131.668ZM136.408 23.7052C136.015 24.3127 135.44 24.9618 134.694 25.6581L134.719 25.5832C134.971 24.9341 135.277 24.3043 135.637 23.7052H136.408ZM137.252 21.73C137.293 21.9492 137.08 22.615 136.514 23.5332H135.734C136.334 22.5595 136.916 21.8604 137.252 21.73Z" fill="url(#paint5_linear_1629_11036)"/>
<defs>
<linearGradient id="paint0_linear_1629_11036" x1="5.51424" y1="2.93615" x2="15.5868" y2="15.4221" gradientUnits="userSpaceOnUse">
<stop offset="0.03" stop-color="#FFB715"/>
<stop offset="1" stop-color="#F04C05"/>
</linearGradient>
<linearGradient id="paint1_linear_1629_11036" x1="26.5058" y1="15.9913" x2="30.0482" y2="0.717502" gradientUnits="userSpaceOnUse">
<stop offset="0.02" stop-color="#00804D"/>
<stop offset="1" stop-color="#03328C"/>
</linearGradient>
<linearGradient id="paint2_linear_1629_11036" x1="6.51288" y1="32.8505" x2="16.025" y2="21.8959" gradientUnits="userSpaceOnUse">
<stop offset="0.02" stop-color="#00804D"/>
<stop offset="1" stop-color="#03328C"/>
</linearGradient>
<linearGradient id="paint3_linear_1629_11036" x1="22.271" y1="21.4908" x2="26.7039" y2="30.3983" gradientUnits="userSpaceOnUse">
<stop offset="0.03" stop-color="#FFB715"/>
<stop offset="1" stop-color="#F04C05"/>
</linearGradient>
<linearGradient id="paint4_linear_1629_11036" x1="119.933" y1="11.4157" x2="110.032" y2="47.3248" gradientUnits="userSpaceOnUse">
<stop stop-color="#03328C"/>
<stop offset="1" stop-color="#00804D"/>
</linearGradient>
<linearGradient id="paint5_linear_1629_11036" x1="137.574" y1="16.3628" x2="115.158" y2="55.1666" gradientUnits="userSpaceOnUse">
<stop stop-color="#03328C"/>
<stop offset="1" stop-color="#00804D"/>
</linearGradient>
</defs>
</svg>
