<svg width="483" height="483" viewBox="0 0 483 483" fill="none" xmlns="http://www.w3.org/2000/svg">
<g filter="url(#filter0_f_4296_22012)">
<circle cx="241.148" cy="241.148" r="135.843" fill="#C1FFC1"/>
</g>
<circle cx="241.148" cy="241.148" r="151.288" fill="#F4F4F4" stroke="white" stroke-width="8.42438"/>
<mask id="mask0_4296_22012" style="mask-type:alpha" maskUnits="userSpaceOnUse" x="94" y="94" width="294" height="294">
<circle cx="241.148" cy="241.147" r="146.374" fill="white"/>
</mask>
<g mask="url(#mask0_4296_22012)">
<mask id="mask1_4296_22012" style="mask-type:luminance" maskUnits="userSpaceOnUse" x="128" y="171" width="226" height="226">
<path d="M128.472 171.296H353.824V396.648H128.472V171.296Z" fill="white"/>
</mask>
<g mask="url(#mask1_4296_22012)">
<path d="M326.633 234.074L273.261 180.702C271.014 178.589 268.033 177.433 264.95 177.48C261.866 177.527 258.922 178.773 256.741 180.953C254.56 183.133 253.313 186.077 253.265 189.161C253.217 192.244 254.372 195.225 256.484 197.473L233.599 220.358L286.972 273.73L309.857 250.845C312.081 253.07 315.097 254.32 318.243 254.321C319.801 254.321 321.343 254.015 322.782 253.419C324.221 252.823 325.529 251.95 326.631 250.848C327.732 249.747 328.606 248.44 329.202 247.001C329.799 245.562 330.106 244.02 330.106 242.462C330.106 240.904 329.8 239.362 329.204 237.923C328.608 236.484 327.735 235.176 326.633 234.074Z" fill="#00804D"/>
<path d="M264.869 177.227H175.915C169.623 177.227 163.59 179.726 159.141 184.175C154.693 188.624 152.193 194.657 152.193 200.949V366.997C152.193 373.289 154.693 379.322 159.141 383.771C163.59 388.22 169.623 390.719 175.915 390.719H306.382C312.673 390.719 318.707 388.22 323.155 383.771C327.604 379.322 330.103 373.289 330.103 366.997V242.461H276.73C270.8 242.461 264.869 236.53 264.869 230.6V177.227Z" fill="url(#paint0_linear_4296_22012)"/>
<path d="M264.869 177.226H253.009V230.599C253.009 236.89 255.508 242.924 259.957 247.373C264.405 251.821 270.439 254.32 276.73 254.32H330.103V242.46H276.73C270.8 242.46 264.869 236.529 264.869 230.599V177.226Z" fill="white"/>
<path d="M235.217 243.218C235.217 244.791 234.592 246.299 233.48 247.411C232.368 248.524 230.86 249.148 229.287 249.148H181.844C180.272 249.148 178.763 248.524 177.651 247.411C176.539 246.299 175.914 244.791 175.914 243.218C175.914 241.645 176.539 240.137 177.651 239.025C178.763 237.913 180.272 237.288 181.844 237.288H229.287C230.86 237.288 232.368 237.913 233.48 239.025C234.592 240.137 235.217 241.645 235.217 243.218Z" fill="white"/>
<path d="M235.217 333.781C235.217 335.353 234.592 336.862 233.48 337.974C232.368 339.086 230.86 339.711 229.287 339.711H181.844C180.272 339.711 178.763 339.086 177.651 337.974C176.539 336.862 175.914 335.353 175.914 333.781C175.914 332.208 176.539 330.699 177.651 329.587C178.763 328.475 180.272 327.85 181.844 327.85H229.287C230.86 327.85 232.368 328.475 233.48 329.587C234.592 330.699 235.217 332.208 235.217 333.781Z" fill="white"/>
<path d="M306.381 271.999C306.381 273.572 305.756 275.081 304.644 276.193C303.532 277.305 302.024 277.93 300.451 277.93H181.844C180.272 277.93 178.763 277.305 177.651 276.193C176.539 275.081 175.914 273.572 175.914 271.999C175.914 270.427 176.539 268.918 177.651 267.806C178.763 266.694 180.272 266.069 181.844 266.069H300.451C302.024 266.069 303.532 266.694 304.644 267.806C305.756 268.918 306.381 270.427 306.381 271.999Z" fill="white"/>
<path d="M284.323 300.748C284.323 302.33 283.805 303.848 282.883 304.967C281.962 306.086 280.712 306.715 279.409 306.715H181.124C179.821 306.715 178.571 306.086 177.649 304.967C176.728 303.848 176.21 302.33 176.21 300.748C176.21 299.165 176.728 297.647 177.649 296.528C178.571 295.409 179.821 294.78 181.124 294.78H279.409C280.712 294.78 281.962 295.409 282.883 296.528C283.805 297.647 284.323 299.165 284.323 300.748Z" fill="white"/>
</g>
<path d="M310.995 338.598L308.634 340.799L301.628 333.287L299.141 330.619L301.501 328.418L303.989 331.086L310.995 338.598Z" fill="#B7FFBF"/>
<path d="M303.989 331.088C303.612 331.469 303.225 331.844 302.831 332.212C302.437 332.58 302.035 332.941 301.628 333.287L299.141 330.619L301.508 328.418L303.989 331.088ZM311.373 338.953C310.997 339.334 310.61 339.708 310.216 340.076C309.822 340.444 309.42 340.806 309.013 341.152L306.526 338.484L308.892 336.283L311.373 338.953Z" fill="#00800F"/>
<path d="M313.784 303.563C313.51 311.262 310.961 318.707 306.459 324.958C301.956 331.209 295.702 335.986 288.487 338.684C281.271 341.383 273.418 341.883 265.919 340.121C258.419 338.359 251.61 334.414 246.351 328.784C239.304 321.227 235.547 311.18 235.906 300.852C236.266 290.525 240.713 280.763 248.269 273.714C263.977 259.06 288.683 259.919 303.337 275.631C306.839 279.365 309.565 283.756 311.359 288.551C313.152 293.345 313.976 298.448 313.784 303.563Z" fill="url(#paint1_linear_4296_22012)"/>
<path d="M306.506 303.324C306.221 311.526 302.765 319.296 296.865 325C290.965 330.703 283.081 333.894 274.875 333.901C274.501 333.901 274.124 333.895 273.746 333.882C271.778 333.814 269.821 333.565 267.899 333.139C264.24 332.326 260.756 330.862 257.614 328.819C255.442 327.403 253.45 325.728 251.683 323.831C246.018 317.676 243.018 309.53 243.336 301.171C243.655 292.812 247.267 284.918 253.384 279.212C259.502 273.506 267.627 270.452 275.988 270.715C284.349 270.978 292.267 274.538 298.013 280.617C299.28 281.974 300.426 283.438 301.439 284.993C303.485 288.133 304.951 291.615 305.766 295.272C306.354 297.914 306.603 300.62 306.506 303.324Z" fill="url(#paint2_linear_4296_22012)"/>
<path d="M285.324 285.265C280.205 282.359 274.141 281.605 268.465 283.169C262.79 284.733 257.968 288.487 255.06 293.605" stroke="white" stroke-width="10.5305" stroke-linecap="round" stroke-linejoin="round"/>
<path d="M340.102 371.212C338.77 372.459 337.012 373.152 335.187 373.148H334.931C333.987 373.119 333.057 372.902 332.197 372.511C331.336 372.121 330.562 371.563 329.918 370.872L303.412 343.469L313.956 333.629L340.457 361.017C341.759 362.417 342.453 364.277 342.386 366.188C342.319 368.099 341.498 369.905 340.102 371.212Z" fill="#00804D"/>
<path d="M341.04 370.145C340.374 371.076 339.496 371.834 338.478 372.358C337.46 372.882 336.332 373.156 335.187 373.158H334.931C333.986 373.127 333.056 372.909 332.196 372.517C331.335 372.124 330.561 371.565 329.918 370.872L303.412 343.469L305.121 341.875L331.57 369.215C332.214 369.907 332.989 370.465 333.849 370.856C334.71 371.247 335.639 371.464 336.584 371.494H336.84C338.347 371.498 339.817 371.026 341.04 370.145Z" fill="#7EFFCC"/>
<path d="M313.808 336.871L338.766 361.83" stroke="white" stroke-width="2.10609" stroke-linecap="round" stroke-linejoin="round"/>
</g>
<defs>
<filter id="filter0_f_4296_22012" x="-5.34058e-05" y="-5.34058e-05" width="482.296" height="482.297" filterUnits="userSpaceOnUse" color-interpolation-filters="sRGB">
<feFlood flood-opacity="0" result="BackgroundImageFix"/>
<feBlend mode="normal" in="SourceGraphic" in2="BackgroundImageFix" result="shape"/>
<feGaussianBlur stdDeviation="52.6524" result="effect1_foregroundBlur_4296_22012"/>
</filter>
<linearGradient id="paint0_linear_4296_22012" x1="241.148" y1="390.719" x2="241.148" y2="177.227" gradientUnits="userSpaceOnUse">
<stop stop-color="#B5FFE7"/>
<stop offset="1" stop-color="#46A35F"/>
</linearGradient>
<linearGradient id="paint1_linear_4296_22012" x1="274.847" y1="263.262" x2="274.847" y2="341.154" gradientUnits="userSpaceOnUse">
<stop stop-color="#BDFFB7"/>
<stop offset="1" stop-color="#559F58"/>
</linearGradient>
<linearGradient id="paint2_linear_4296_22012" x1="274.92" y1="270.699" x2="274.92" y2="333.901" gradientUnits="userSpaceOnUse">
<stop stop-color="#B3C7B4"/>
<stop offset="1" stop-color="white"/>
</linearGradient>
</defs>
</svg>
