<svg xmlns="http://www.w3.org/2000/svg" width="14" height="14" viewBox="0 0 14 14" fill="none">
  <path d="M10.7098 13.2708H3.26067C2.37401 13.2708 1.56317 12.8217 1.09651 12.0633C0.629841 11.305 0.589007 10.3833 0.985674 9.58417L1.98901 7.57166C2.31567 6.91833 2.84067 6.51 3.42984 6.44583C4.01901 6.38166 4.61984 6.67333 5.07484 7.23916L5.20317 7.4025C5.45984 7.7175 5.75734 7.88666 6.04901 7.8575C6.34067 7.83416 6.60901 7.62416 6.80734 7.26833L7.90984 5.27916C8.36484 4.45666 8.97151 4.03083 9.63067 4.06C10.284 4.095 10.844 4.585 11.2173 5.44833L13.0432 9.7125C13.3815 10.5 13.2998 11.3983 12.8273 12.1158C12.3607 12.845 11.5673 13.2708 10.7098 13.2708ZM3.59317 7.32083C3.56984 7.32083 3.54651 7.32083 3.52317 7.32666C3.23151 7.35583 2.96317 7.58916 2.77067 7.96833L1.76734 9.98083C1.50484 10.5 1.53401 11.1125 1.83734 11.6083C2.14067 12.1042 2.67734 12.4017 3.26067 12.4017H10.704C11.2757 12.4017 11.7832 12.1275 12.0982 11.6492C12.4132 11.1708 12.4657 10.5992 12.2382 10.0742L10.4123 5.81C10.1907 5.285 9.88151 4.96416 9.58401 4.9525C9.30984 4.935 8.95401 5.22666 8.67401 5.7225L7.57151 7.71166C7.23317 8.31833 6.70234 8.6975 6.12484 8.75C5.54734 8.79666 4.95817 8.51666 4.52067 7.96833L4.39234 7.805C4.14734 7.48416 3.86734 7.32083 3.59317 7.32083Z" fill="#2E2E2E"/>
  <path d="M4.06641 5.10547C2.86474 5.10547 1.87891 4.12547 1.87891 2.91797C1.87891 1.71047 2.85891 0.730469 4.06641 0.730469C5.27391 0.730469 6.25391 1.71047 6.25391 2.91797C6.25391 4.12547 5.27391 5.10547 4.06641 5.10547ZM4.06641 1.60547C3.34307 1.60547 2.75391 2.19464 2.75391 2.91797C2.75391 3.6413 3.34307 4.23047 4.06641 4.23047C4.78974 4.23047 5.37891 3.6413 5.37891 2.91797C5.37891 2.19464 4.78974 1.60547 4.06641 1.60547Z" fill="#2E2E2E"/>
</svg>
