<svg xmlns="http://www.w3.org/2000/svg" width="20" height="20" viewBox="0 0 20 20" fill="none">
  <path d="M17.1849 7.04036C16.3099 3.19036 12.9515 1.45703 10.0015 1.45703C10.0015 1.45703 10.0015 1.45703 9.99321 1.45703C7.05154 1.45703 3.68488 3.18203 2.80988 7.03203C1.83488 11.332 4.46821 14.9737 6.85154 17.2654C7.73488 18.1154 8.86821 18.5404 10.0015 18.5404C11.1349 18.5404 12.2682 18.1154 13.1432 17.2654C15.5265 14.9737 18.1599 11.3404 17.1849 7.04036ZM10.0015 11.2154C8.55154 11.2154 7.37654 10.0404 7.37654 8.59036C7.37654 7.14036 8.55154 5.96536 10.0015 5.96536C11.4515 5.96536 12.6265 7.14036 12.6265 8.59036C12.6265 10.0404 11.4515 11.2154 10.0015 11.2154Z" fill="url(#paint0_linear_2374_2631)"/>
  <defs>
    <linearGradient id="paint0_linear_2374_2631" x1="3.64485" y1="1.88225" x2="19.0078" y2="17.2996" gradientUnits="userSpaceOnUse">
      <stop stop-color="#FFB715"/>
      <stop offset="1" stop-color="#F04C05"/>
    </linearGradient>
  </defs>
</svg>
