<svg xmlns="http://www.w3.org/2000/svg" width="19" height="20" viewBox="0 0 19 20" fill="none">
  <path d="M9.36914 15.4121H9.39551C9.42962 15.4121 9.46318 15.4261 9.4873 15.4502C9.51121 15.4743 9.52441 15.5071 9.52441 15.541C9.52438 15.575 9.51126 15.6078 9.4873 15.6318C9.46318 15.656 9.42962 15.6699 9.39551 15.6699H9.36914C9.33509 15.6699 9.30243 15.6559 9.27832 15.6318C9.25423 15.6077 9.24027 15.5751 9.24023 15.541C9.24023 15.5069 9.2542 15.4743 9.27832 15.4502C9.30244 15.4261 9.33503 15.4121 9.36914 15.4121Z" fill="#D9E45A" stroke="#D9E45A" stroke-width="0.512"/>
  <path d="M14.9225 15.9255H3.83384C3.73183 15.9255 3.634 15.885 3.56187 15.8128C3.48974 15.7407 3.44922 15.6429 3.44922 15.5409C3.44922 15.4389 3.48974 15.341 3.56187 15.2689C3.634 15.1968 3.73183 15.1562 3.83384 15.1562H14.9225C15.0245 15.1562 15.1223 15.1968 15.1945 15.2689C15.2666 15.341 15.3071 15.4389 15.3071 15.5409C15.3071 15.6429 15.2666 15.7407 15.1945 15.8128C15.1223 15.885 15.0245 15.9255 14.9225 15.9255Z" fill="#D9E45A" stroke="#F9EAD5" stroke-width="0.2"/>
  <path d="M9.39181 15.9251C9.2898 15.9251 9.19197 15.8845 9.11984 15.8124C9.04771 15.7403 9.00719 15.6424 9.00719 15.5404V15.0294C9.00719 14.0846 8.55261 13.3786 8.14612 13.3786H5.07539C4.66913 13.3786 4.21456 14.0846 4.21456 15.0294V15.5404C4.21456 15.6424 4.17403 15.7403 4.1019 15.8124C4.02977 15.8845 3.93194 15.9251 3.82993 15.9251C3.72793 15.9251 3.6301 15.8845 3.55797 15.8124C3.48583 15.7403 3.44531 15.6424 3.44531 15.5404V15.0294C3.44531 13.6724 4.16143 12.6094 5.07539 12.6094H8.14612C9.05959 12.6094 9.77643 13.6724 9.77643 15.0294V15.5404C9.77643 15.6424 9.73591 15.7403 9.66378 15.8124C9.59165 15.8845 9.49382 15.9251 9.39181 15.9251Z" fill="#D9E45A" stroke="#D9E45A" stroke-width="0.2"/>
  <path d="M14.9269 15.9251C14.8249 15.9251 14.7271 15.8845 14.6549 15.8124C14.5828 15.7403 14.5423 15.6424 14.5423 15.5404V15.0294C14.5423 14.0846 14.0911 13.3786 13.6875 13.3786H10.6319C10.2283 13.3786 9.77706 14.0846 9.77706 15.0294V15.5404C9.77706 15.6424 9.73653 15.7403 9.6644 15.8124C9.59227 15.8845 9.49444 15.9251 9.39243 15.9251C9.29043 15.9251 9.1926 15.8845 9.12047 15.8124C9.04833 15.7403 9.00781 15.6424 9.00781 15.5404V15.0294C9.00781 13.6724 9.72105 12.6094 10.6319 12.6094H13.6875C14.5981 12.6094 15.3115 13.6724 15.3115 15.0294V15.5404C15.3115 15.6424 15.271 15.7403 15.1989 15.8124C15.1267 15.8845 15.0289 15.9251 14.9269 15.9251Z" fill="#D9E45A" stroke="#D9E45A" stroke-width="0.2"/>
  <path d="M16.6466 17.5304H2.12712C2.02511 17.5304 1.92728 17.4899 1.85515 17.4177C1.78302 17.3456 1.7425 17.2478 1.7425 17.1458C1.7425 17.0437 1.78302 16.9459 1.85515 16.8738C1.92728 16.8017 2.02511 16.7611 2.12712 16.7611H16.6466C16.7486 16.7611 16.8464 16.8017 16.9186 16.8738C16.9907 16.9459 17.0312 17.0437 17.0312 17.1458C17.0312 17.2478 16.9907 17.3456 16.9186 17.4177C16.8464 17.4899 16.7486 17.5304 16.6466 17.5304Z" fill="#F9EAD5"/>
  <path d="M2.60449 17.5306H1.71505C1.28735 17.5304 0.877213 17.3605 0.574693 17.0581C0.272174 16.7558 0.102008 16.3457 0.101562 15.918V11.8254C0.102008 11.3979 0.272034 10.9879 0.574338 10.6856C0.876643 10.3832 1.28654 10.2132 1.71409 10.2127H2.60353C3.03127 10.2129 3.44144 10.3829 3.74399 10.6852C4.04654 10.9876 4.21675 11.3977 4.21726 11.8254V15.918C4.21675 16.3456 4.04666 16.7555 3.74431 17.0578C3.44196 17.3601 3.03205 17.5301 2.60449 17.5306ZM1.71505 10.9814C1.49121 10.9815 1.27654 11.0704 1.11824 11.2287C0.95993 11.3869 0.870934 11.6016 0.870807 11.8254V15.918C0.871061 16.1416 0.959989 16.356 1.11808 16.5141C1.27617 16.6721 1.49052 16.7611 1.71409 16.7613H2.60353C2.82715 16.7611 3.04155 16.6722 3.1997 16.5141C3.35784 16.356 3.4468 16.1417 3.44705 15.918V11.8254C3.4468 11.6018 3.35785 11.3874 3.19971 11.2292C3.04157 11.0711 2.82717 10.9821 2.60353 10.9819L1.71505 10.9814ZM17.0471 17.5306H16.1576C15.7301 17.5301 15.3201 17.3601 15.0178 17.0578C14.7154 16.7555 14.5454 16.3456 14.5448 15.918V11.8254C14.5454 11.3978 14.7154 10.9879 15.0178 10.6856C15.3201 10.3832 15.73 10.2132 16.1576 10.2127H17.0471C17.4746 10.2132 17.8845 10.3832 18.1868 10.6856C18.4891 10.9879 18.6591 11.3979 18.6596 11.8254V15.918C18.6591 16.3456 18.4891 16.7555 18.1868 17.0578C17.8845 17.3601 17.4746 17.5301 17.0471 17.5306ZM16.1576 10.9814C15.9337 10.9814 15.719 11.0703 15.5606 11.2286C15.4023 11.3869 15.3133 11.6015 15.3131 11.8254V15.918C15.3134 16.1417 15.4023 16.356 15.5605 16.5141C15.7186 16.6722 15.933 16.7611 16.1567 16.7613H17.0461C17.2698 16.7613 17.4844 16.6725 17.6427 16.5144C17.801 16.3563 17.8901 16.1418 17.8903 15.918V11.8254C17.8901 11.6018 17.8012 11.3875 17.6431 11.2293C17.485 11.0712 17.2706 10.9822 17.0471 10.9819L16.1576 10.9814Z" fill="#F9EAD5"/>
  <path d="M3.27522 19.9987H2.16703C2.06502 19.9987 1.96719 19.9582 1.89506 19.8861C1.82293 19.8139 1.78241 19.7161 1.78241 19.6141V17.1463C1.78241 17.0442 1.82293 16.9464 1.89506 16.8743C1.96719 16.8022 2.06502 16.7616 2.16703 16.7616C2.26904 16.7616 2.36687 16.8022 2.439 16.8743C2.51113 16.9464 2.55165 17.0442 2.55165 17.1463V19.2295H2.98123L3.57931 17.0448C3.5918 16.9952 3.61407 16.9486 3.6448 16.9076C3.67554 16.8667 3.71413 16.8324 3.75832 16.8066C3.8025 16.7808 3.85139 16.764 3.90213 16.7573C3.95286 16.7507 4.00441 16.7542 4.05377 16.7677C4.10313 16.7812 4.14929 16.8044 4.18957 16.836C4.22984 16.8675 4.26341 16.9068 4.28831 16.9515C4.31322 16.9962 4.32895 17.0454 4.33458 17.0963C4.34022 17.1472 4.33566 17.1986 4.32115 17.2477L3.64566 19.7155C3.62344 19.7968 3.57517 19.8685 3.50824 19.9197C3.44132 19.9708 3.35946 19.9986 3.27522 19.9987ZM16.6168 19.9987H15.5096C15.4253 19.9987 15.3433 19.971 15.2763 19.9198C15.2092 19.8686 15.1609 19.7969 15.1387 19.7155L14.4632 17.2477C14.4386 17.1501 14.4533 17.0467 14.504 16.9598C14.5548 16.8729 14.6376 16.8094 14.7347 16.7828C14.8318 16.7563 14.9354 16.7688 15.0233 16.8178C15.1112 16.8668 15.1765 16.9483 15.205 17.0448L15.8031 19.2295H16.2322V17.1463C16.2322 17.0442 16.2727 16.9464 16.3448 16.8743C16.417 16.8022 16.5148 16.7616 16.6168 16.7616C16.7188 16.7616 16.8166 16.8022 16.8888 16.8743C16.9609 16.9464 17.0014 17.0442 17.0014 17.1463V19.6141C17.0014 19.7161 16.9609 19.8139 16.8888 19.8861C16.8166 19.9582 16.7188 19.9987 16.6168 19.9987ZM16.6031 10.9678C16.5011 10.9678 16.4033 10.9273 16.3311 10.8551C16.259 10.783 16.2185 10.6852 16.2185 10.5832V7.65787L16.2132 7.65282C16.0081 7.46171 15.2778 7.25858 14.3281 7.25858H4.44423C3.36537 7.25858 2.71343 7.50281 2.55526 7.65666L2.55405 7.65787V10.5832C2.55405 10.6852 2.51353 10.783 2.4414 10.8551C2.36927 10.9273 2.27144 10.9678 2.16943 10.9678C2.06742 10.9678 1.96959 10.9273 1.89746 10.8551C1.82533 10.783 1.78481 10.6852 1.78481 10.5832V7.61868C1.78481 7.48935 1.8252 7.29536 2.01799 7.10713C2.48386 6.65136 3.57691 6.48885 4.44423 6.48885H14.3281C15.1814 6.48885 16.2625 6.64679 16.7375 7.08983C16.9442 7.28214 16.9877 7.4831 16.9877 7.61748V10.5832C16.9877 10.6852 16.9472 10.783 16.8751 10.8551C16.8029 10.9273 16.7051 10.9678 16.6031 10.9678Z" fill="#F9EAD5"/>
  <path d="M13.8156 7.22704C13.7135 7.22704 13.6157 7.18652 13.5436 7.11439C13.4715 7.04225 13.4309 6.94442 13.4309 6.84242V4.46665C13.4309 4.36465 13.4715 4.26681 13.5436 4.19468C13.6157 4.12255 13.7135 4.08203 13.8156 4.08203C13.9176 4.08203 14.0154 4.12255 14.0875 4.19468C14.1597 4.26681 14.2002 4.36465 14.2002 4.46665V6.84242C14.2002 6.94442 14.1597 7.04225 14.0875 7.11439C14.0154 7.18652 13.9176 7.22704 13.8156 7.22704Z" fill="#F9EAD5"/>
  <path d="M16.6466 17.5304H2.12712C2.02511 17.5304 1.92728 17.4899 1.85515 17.4177C1.78302 17.3456 1.7425 17.2478 1.7425 17.1458C1.7425 17.0437 1.78302 16.9459 1.85515 16.8738C1.92728 16.8017 2.02511 16.7611 2.12712 16.7611H16.6466C16.7486 16.7611 16.8464 16.8017 16.9186 16.8738C16.9907 16.9459 17.0312 17.0437 17.0312 17.1458C17.0312 17.2478 16.9907 17.3456 16.9186 17.4177C16.8464 17.4899 16.7486 17.5304 16.6466 17.5304Z" stroke="#F9EAD5" stroke-width="0.2"/>
  <path d="M2.60449 17.5306H1.71505C1.28735 17.5304 0.877213 17.3605 0.574693 17.0581C0.272174 16.7558 0.102008 16.3457 0.101562 15.918V11.8254C0.102008 11.3979 0.272034 10.9879 0.574338 10.6856C0.876643 10.3832 1.28654 10.2132 1.71409 10.2127H2.60353C3.03127 10.2129 3.44144 10.3829 3.74399 10.6852C4.04654 10.9876 4.21675 11.3977 4.21726 11.8254V15.918C4.21675 16.3456 4.04666 16.7555 3.74431 17.0578C3.44196 17.3601 3.03205 17.5301 2.60449 17.5306ZM1.71505 10.9814C1.49121 10.9815 1.27654 11.0704 1.11824 11.2287C0.95993 11.3869 0.870934 11.6016 0.870807 11.8254V15.918C0.871061 16.1416 0.959989 16.356 1.11808 16.5141C1.27617 16.6721 1.49052 16.7611 1.71409 16.7613H2.60353C2.82715 16.7611 3.04155 16.6722 3.1997 16.5141C3.35784 16.356 3.4468 16.1417 3.44705 15.918V11.8254C3.4468 11.6018 3.35785 11.3874 3.19971 11.2292C3.04157 11.0711 2.82717 10.9821 2.60353 10.9819L1.71505 10.9814ZM17.0471 17.5306H16.1576C15.7301 17.5301 15.3201 17.3601 15.0178 17.0578C14.7154 16.7555 14.5454 16.3456 14.5448 15.918V11.8254C14.5454 11.3978 14.7154 10.9879 15.0178 10.6856C15.3201 10.3832 15.73 10.2132 16.1576 10.2127H17.0471C17.4746 10.2132 17.8845 10.3832 18.1868 10.6856C18.4891 10.9879 18.6591 11.3979 18.6596 11.8254V15.918C18.6591 16.3456 18.4891 16.7555 18.1868 17.0578C17.8845 17.3601 17.4746 17.5301 17.0471 17.5306ZM16.1576 10.9814C15.9337 10.9814 15.719 11.0703 15.5606 11.2286C15.4023 11.3869 15.3133 11.6015 15.3131 11.8254V15.918C15.3134 16.1417 15.4023 16.356 15.5605 16.5141C15.7186 16.6722 15.933 16.7611 16.1567 16.7613H17.0461C17.2698 16.7613 17.4844 16.6725 17.6427 16.5144C17.801 16.3563 17.8901 16.1418 17.8903 15.918V11.8254C17.8901 11.6018 17.8012 11.3875 17.6431 11.2293C17.485 11.0712 17.2706 10.9822 17.0471 10.9819L16.1576 10.9814Z" stroke="#F9EAD5" stroke-width="0.2"/>
  <path d="M3.27522 19.9987H2.16703C2.06502 19.9987 1.96719 19.9582 1.89506 19.8861C1.82293 19.8139 1.78241 19.7161 1.78241 19.6141V17.1463C1.78241 17.0442 1.82293 16.9464 1.89506 16.8743C1.96719 16.8022 2.06502 16.7616 2.16703 16.7616C2.26904 16.7616 2.36687 16.8022 2.439 16.8743C2.51113 16.9464 2.55165 17.0442 2.55165 17.1463V19.2295H2.98123L3.57931 17.0448C3.5918 16.9952 3.61407 16.9486 3.6448 16.9076C3.67554 16.8667 3.71413 16.8324 3.75832 16.8066C3.8025 16.7808 3.85139 16.764 3.90213 16.7573C3.95286 16.7507 4.00441 16.7542 4.05377 16.7677C4.10313 16.7812 4.14929 16.8044 4.18957 16.836C4.22984 16.8675 4.26341 16.9068 4.28831 16.9515C4.31322 16.9962 4.32895 17.0454 4.33458 17.0963C4.34022 17.1472 4.33566 17.1986 4.32115 17.2477L3.64566 19.7155C3.62344 19.7968 3.57517 19.8685 3.50824 19.9197C3.44132 19.9708 3.35946 19.9986 3.27522 19.9987ZM16.6168 19.9987H15.5096C15.4253 19.9987 15.3433 19.971 15.2763 19.9198C15.2092 19.8686 15.1609 19.7969 15.1387 19.7155L14.4632 17.2477C14.4386 17.1501 14.4533 17.0467 14.504 16.9598C14.5548 16.8729 14.6376 16.8094 14.7347 16.7828C14.8318 16.7563 14.9354 16.7688 15.0233 16.8178C15.1112 16.8668 15.1765 16.9483 15.205 17.0448L15.8031 19.2295H16.2322V17.1463C16.2322 17.0442 16.2727 16.9464 16.3448 16.8743C16.417 16.8022 16.5148 16.7616 16.6168 16.7616C16.7188 16.7616 16.8166 16.8022 16.8888 16.8743C16.9609 16.9464 17.0014 17.0442 17.0014 17.1463V19.6141C17.0014 19.7161 16.9609 19.8139 16.8888 19.8861C16.8166 19.9582 16.7188 19.9987 16.6168 19.9987ZM16.6031 10.9678C16.5011 10.9678 16.4033 10.9273 16.3311 10.8551C16.259 10.783 16.2185 10.6852 16.2185 10.5832V7.65787L16.2132 7.65282C16.0081 7.46171 15.2778 7.25858 14.3281 7.25858H4.44423C3.36537 7.25858 2.71343 7.50281 2.55526 7.65666L2.55405 7.65787V10.5832C2.55405 10.6852 2.51353 10.783 2.4414 10.8551C2.36927 10.9273 2.27144 10.9678 2.16943 10.9678C2.06742 10.9678 1.96959 10.9273 1.89746 10.8551C1.82533 10.783 1.78481 10.6852 1.78481 10.5832V7.61868C1.78481 7.48935 1.8252 7.29536 2.01799 7.10713C2.48386 6.65136 3.57691 6.48885 4.44423 6.48885H14.3281C15.1814 6.48885 16.2625 6.64679 16.7375 7.08983C16.9442 7.28214 16.9877 7.4831 16.9877 7.61748V10.5832C16.9877 10.6852 16.9472 10.783 16.8751 10.8551C16.8029 10.9273 16.7051 10.9678 16.6031 10.9678Z" stroke="#F9EAD5" stroke-width="0.2"/>
  <path d="M13.8156 7.22704C13.7135 7.22704 13.6157 7.18652 13.5436 7.11439C13.4715 7.04225 13.4309 6.94442 13.4309 6.84242V4.46665C13.4309 4.36465 13.4715 4.26681 13.5436 4.19468C13.6157 4.12255 13.7135 4.08203 13.8156 4.08203C13.9176 4.08203 14.0154 4.12255 14.0875 4.19468C14.1597 4.26681 14.2002 4.36465 14.2002 4.46665V6.84242C14.2002 6.94442 14.1597 7.04225 14.0875 7.11439C14.0154 7.18652 13.9176 7.22704 13.8156 7.22704Z" stroke="#F9EAD5" stroke-width="0.2"/>
  <path d="M15.9614 4.85297H11.6697C11.6107 4.85296 11.5525 4.83937 11.4996 4.81326C11.4467 4.78715 11.4005 4.74921 11.3646 4.70238C11.3286 4.65555 11.304 4.60109 11.2925 4.54321C11.281 4.48533 11.283 4.42558 11.2983 4.36859L12.3959 0.284861C12.4179 0.203136 12.4662 0.130931 12.5333 0.0794313C12.6005 0.0279317 12.6827 1.28361e-05 12.7673 0H14.8638C14.9484 1.28361e-05 15.0306 0.0279317 15.0978 0.0794313C15.1649 0.130931 15.2132 0.203136 15.2352 0.284861L16.3328 4.36859C16.3481 4.42558 16.3501 4.48533 16.3386 4.54321C16.3271 4.60109 16.3025 4.65555 16.2666 4.70238C16.2306 4.74921 16.1844 4.78715 16.1315 4.81326C16.0786 4.83937 16.0204 4.85296 15.9614 4.85297ZM12.1714 4.08373H15.4597L14.5688 0.769244H13.0623L12.1714 4.08373Z" fill="#D9E45A" stroke="#D9E45A" stroke-width="0.2"/>
</svg>
