<svg width="22" height="21" viewBox="0 0 22 21" fill="none" xmlns="http://www.w3.org/2000/svg">
<path d="M0 0H7.75869C9.39385 0 10.7213 1.34032 10.7213 2.99557V11.4874L3.9637 11.1631C2.53803 11.0956 1.36449 10.0102 1.16983 8.57992L0 0Z" fill="white"/>
<path d="M11.5243 11.4883H16.4873C17.7127 11.4883 18.8121 10.7254 19.2515 9.56879L22.0009 2.33668L16.5892 1.22131C14.9819 0.889512 13.4153 1.94115 13.0927 3.56828L11.5225 11.4902L11.5243 11.4883Z" fill="white"/>
<path d="M10.7213 12.2792L5.04646 12.5567C3.70236 12.6223 2.56961 13.597 2.29152 14.9299L1.02344 20.9997H7.2378C8.771 20.9997 10.0502 19.8169 10.1874 18.2722L10.7195 12.2773L10.7213 12.2792Z" fill="white"/>
<path d="M11.5244 12.2773L14.1366 12.4329C15.3695 12.506 16.4281 13.3477 16.7933 14.54L18.1763 19.0764H14.9746C13.4785 19.0764 12.2178 17.9479 12.0342 16.4483L11.5263 12.2773H11.5244Z" fill="white"/>
</svg>
