<svg width="403" height="192" viewBox="0 0 403 192" fill="none" xmlns="http://www.w3.org/2000/svg">
<path d="M241.223 0.00683594C241.223 10.2924 249.561 18.6309 259.847 18.6309C270.132 18.6308 278.471 10.2924 278.471 0.00683594V0.00390625H384.302C394.098 0.00390625 402.039 7.94533 402.039 17.7412V173.826C402.039 183.622 394.098 191.563 384.302 191.563H278.471V191.562C278.471 181.276 270.132 172.938 259.847 172.938C249.561 172.938 241.223 181.276 241.223 191.562V191.563H17.7373C7.94142 191.563 0 183.622 0 173.826V17.7412C0 7.94533 7.94142 0.00390625 17.7373 0.00390625H241.223V0.00683594Z" fill="white"/>
<line x1="259.404" y1="18.625" x2="259.404" y2="172.937" stroke="url(#paint0_linear_2895_20396)" stroke-width="0.886851" stroke-dasharray="5.32 5.32"/>
<mask id="mask0_2895_20396" style="mask-type:alpha" maskUnits="userSpaceOnUse" x="0" y="0" width="403" height="192">
<mask id="path-3-inside-1_2895_20396" fill="white">
<path d="M241.223 0.00683594C241.223 10.2924 249.561 18.6309 259.847 18.6309C270.132 18.6308 278.471 10.2924 278.471 0.00683594V0.00390625H384.302C394.098 0.00390625 402.039 7.94533 402.039 17.7412V173.826C402.039 183.622 394.098 191.563 384.302 191.563H278.471V191.562C278.471 181.276 270.132 172.938 259.847 172.938C249.561 172.938 241.223 181.276 241.223 191.562V191.563H17.7373C7.94142 191.563 0 183.622 0 173.826V17.7412C0 7.94533 7.94142 0.00390625 17.7373 0.00390625H241.223V0.00683594Z"/>
</mask>
<path d="M241.223 0.00683594C241.223 10.2924 249.561 18.6309 259.847 18.6309C270.132 18.6308 278.471 10.2924 278.471 0.00683594V0.00390625H384.302C394.098 0.00390625 402.039 7.94533 402.039 17.7412V173.826C402.039 183.622 394.098 191.563 384.302 191.563H278.471V191.562C278.471 181.276 270.132 172.938 259.847 172.938C249.561 172.938 241.223 181.276 241.223 191.562V191.563H17.7373C7.94142 191.563 0 183.622 0 173.826V17.7412C0 7.94533 7.94142 0.00390625 17.7373 0.00390625H241.223V0.00683594Z" fill="white"/>
<path d="M241.223 0.00683594H240.336V0.00684349L241.223 0.00683594ZM259.847 18.6309V19.5177V18.6309ZM278.471 0.00683594L279.358 0.00684349V0.00683594H278.471ZM278.471 0.00390625V-0.882944H277.584V0.00390625H278.471ZM278.471 191.563H277.584V192.45H278.471V191.563ZM259.847 172.938V172.051V172.938ZM241.223 191.563V192.45H242.11V191.563H241.223ZM241.223 0.00390625H242.11V-0.882944H241.223V0.00390625ZM241.223 0.00683594L240.336 0.00684349C240.336 10.7822 249.071 19.5177 259.847 19.5177V18.6309V17.744C250.051 17.744 242.11 9.80265 242.11 0.00682838L241.223 0.00683594ZM259.847 18.6309V19.5177C270.622 19.5176 279.357 10.7822 279.358 0.00684349L278.471 0.00683594L277.584 0.00682838C277.584 9.80259 269.642 17.7439 259.847 17.744V18.6309ZM278.471 0.00683594H279.358V0.00390625H278.471H277.584V0.00683594H278.471ZM278.471 0.00390625V0.890757H384.302V0.00390625V-0.882944H278.471V0.00390625ZM384.302 0.00390625V0.890757C393.608 0.890757 401.152 8.43512 401.152 17.7412H402.039H402.926C402.926 7.45554 394.587 -0.882944 384.302 -0.882944V0.00390625ZM402.039 17.7412H401.152V173.826H402.039H402.926V17.7412H402.039ZM402.039 173.826H401.152C401.152 183.132 393.608 190.677 384.302 190.677V191.563V192.45C394.587 192.45 402.926 184.112 402.926 173.826H402.039ZM384.302 191.563V190.677H278.471V191.563V192.45H384.302V191.563ZM278.471 191.563H279.358V191.562H278.471H277.584V191.563H278.471ZM278.471 191.562H279.358C279.358 180.786 270.622 172.051 259.847 172.051V172.938V173.824C269.642 173.824 277.584 181.766 277.584 191.562H278.471ZM259.847 172.938V172.051C249.071 172.051 240.336 180.786 240.336 191.562H241.223H242.11C242.11 181.766 250.051 173.824 259.847 173.824V172.938ZM241.223 191.562H240.336V191.563H241.223H242.11V191.562H241.223ZM241.223 191.563V190.677H17.7373V191.563V192.45H241.223V191.563ZM17.7373 191.563V190.677C8.43122 190.677 0.886851 183.132 0.886851 173.826H0H-0.886851C-0.886851 184.112 7.45163 192.45 17.7373 192.45V191.563ZM0 173.826H0.886851V17.7412H0H-0.886851V173.826H0ZM0 17.7412H0.886851C0.886851 8.43512 8.43122 0.890757 17.7373 0.890757V0.00390625V-0.882944C7.45163 -0.882944 -0.886851 7.45554 -0.886851 17.7412H0ZM17.7373 0.00390625V0.890757H241.223V0.00390625V-0.882944H17.7373V0.00390625ZM241.223 0.00390625H240.336V0.00683594H241.223H242.11V0.00390625H241.223Z" fill="url(#paint1_linear_2895_20396)" mask="url(#path-3-inside-1_2895_20396)"/>
</mask>
<g mask="url(#mask0_2895_20396)">
<path d="M259.848 220.83V-6.64751C282.768 -17.2897 329.503 -39.2836 333.075 -42.1215C336.647 -44.9595 392.609 -50.1032 420.144 -52.3203C426.246 -13.1511 438.719 67.9366 439.79 78.9336C440.862 89.9305 431.902 195.259 427.288 246.548L259.848 220.83Z" fill="url(#paint2_linear_2895_20396)" stroke="url(#paint3_linear_2895_20396)" stroke-width="0.886851"/>
</g>
<defs>
<linearGradient id="paint0_linear_2895_20396" x1="258.936" y1="29.509" x2="257.138" y2="29.519" gradientUnits="userSpaceOnUse">
<stop stop-color="#FFB715"/>
<stop offset="1" stop-color="#F04C05"/>
</linearGradient>
<linearGradient id="paint1_linear_2895_20396" x1="28.3567" y1="4.77197" x2="149.519" y2="299.501" gradientUnits="userSpaceOnUse">
<stop stop-color="#FFB715"/>
<stop offset="1" stop-color="#F04C05"/>
</linearGradient>
<linearGradient id="paint2_linear_2895_20396" x1="272.546" y1="-44.8812" x2="524.856" y2="131.272" gradientUnits="userSpaceOnUse">
<stop stop-color="#FFB715"/>
<stop offset="1" stop-color="#F04C05"/>
</linearGradient>
<linearGradient id="paint3_linear_2895_20396" x1="272.546" y1="-44.8812" x2="524.856" y2="131.272" gradientUnits="userSpaceOnUse">
<stop stop-color="#FFB715"/>
<stop offset="1" stop-color="#F04C05"/>
</linearGradient>
</defs>
</svg>
