<svg width="321" height="144" viewBox="0 0 321 144" fill="none" xmlns="http://www.w3.org/2000/svg">
<mask id="mask0_3050_1531" style="mask-type:alpha" maskUnits="userSpaceOnUse" x="0" y="0" width="321" height="144">
<mask id="path-1-inside-1_3050_1531" fill="white">
<path d="M193.507 0C195.594 5.32542 201.059 9.12494 207.471 9.125C213.883 9.125 219.347 5.32541 221.435 0H306.839C314.66 0.000103032 321 6.3409 321 14.1621V129.025C321 136.847 314.66 143.186 306.839 143.187H220.727C218.689 137.998 213.36 134.296 207.106 134.296C200.853 134.296 195.525 137.998 193.487 143.187H14.1621C6.34086 143.187 0.000133595 136.847 0 129.025V14.1621C6.11813e-05 6.34083 6.34082 0 14.1621 0H193.507Z"/>
</mask>
<path d="M193.507 0C195.594 5.32542 201.059 9.12494 207.471 9.125C213.883 9.125 219.347 5.32541 221.435 0H306.839C314.66 0.000103032 321 6.3409 321 14.1621V129.025C321 136.847 314.66 143.186 306.839 143.187H220.727C218.689 137.998 213.36 134.296 207.106 134.296C200.853 134.296 195.525 137.998 193.487 143.187H14.1621C6.34086 143.187 0.000133595 136.847 0 129.025V14.1621C6.11813e-05 6.34083 6.34082 0 14.1621 0H193.507Z" fill="white"/>
<path d="M193.507 0L194.166 -0.258413L193.99 -0.708089H193.507V0ZM207.471 9.125V9.83309V9.125ZM221.435 0V-0.708089H220.952L220.775 -0.258418L221.435 0ZM306.839 0V-0.708089V0ZM321 14.1621H321.708V14.1621L321 14.1621ZM321 129.025L321.708 129.025V129.025H321ZM306.839 143.187V143.895V143.187ZM220.727 143.187L220.067 143.445L220.244 143.895H220.727V143.187ZM207.106 134.296V133.588H207.106L207.106 134.296ZM193.487 143.187V143.895H193.97L194.146 143.445L193.487 143.187ZM0 129.025H-0.708089V129.025L0 129.025ZM0 14.1621L-0.708089 14.1621V14.1621H0ZM193.507 0L192.848 0.258413C195.046 5.86731 200.781 9.83303 207.471 9.83309V9.125V8.41691C201.337 8.41686 196.142 4.78354 194.166 -0.258413L193.507 0ZM207.471 9.125V9.83309C214.161 9.83309 219.895 5.86729 222.094 0.258418L221.435 0L220.775 -0.258418C218.799 4.78354 213.605 8.41691 207.471 8.41691V9.125ZM221.435 0V0.708089H306.839V0V-0.708089H221.435V0ZM306.839 0V0.708089C314.269 0.708187 320.292 6.7319 320.292 14.1621L321 14.1621L321.708 14.1621C321.708 5.94989 315.051 -0.707981 306.839 -0.708089V0ZM321 14.1621H320.292V129.025H321H321.708V14.1621H321ZM321 129.025L320.292 129.025C320.292 136.455 314.269 142.478 306.839 142.478V143.187V143.895C315.051 143.895 321.708 137.238 321.708 129.025L321 129.025ZM306.839 143.187V142.478H220.727V143.187V143.895H306.839V143.187ZM220.727 143.187L221.386 142.928C219.236 137.456 213.637 133.588 207.106 133.588V134.296V135.004C213.082 135.004 218.141 138.54 220.067 143.445L220.727 143.187ZM207.106 134.296L207.106 133.588C200.576 133.588 194.977 137.456 192.828 142.928L193.487 143.187L194.146 143.445C196.073 138.54 201.131 135.004 207.106 135.004L207.106 134.296ZM193.487 143.187V142.478H14.1621V143.187V143.895H193.487V143.187ZM14.1621 143.187V142.478C6.73187 142.478 0.708216 136.455 0.708089 129.025L0 129.025L-0.708089 129.025C-0.707949 137.238 5.94984 143.895 14.1621 143.895V143.187ZM0 129.025H0.708089V14.1621H0H-0.708089V129.025H0ZM0 14.1621L0.708089 14.1621C0.708147 6.73189 6.73189 0.708089 14.1621 0.708089V0V-0.708089C5.94974 -0.708089 -0.708025 5.94977 -0.708089 14.1621L0 14.1621ZM14.1621 0V0.708089H193.507V0V-0.708089H14.1621V0Z" fill="url(#paint0_linear_3050_1531)" mask="url(#path-1-inside-1_3050_1531)"/>
</mask>
<g mask="url(#mask0_3050_1531)">
<path d="M207.473 165.06V-4.97392C225.773 -12.9287 263.087 -29.3686 265.94 -31.4899C268.792 -33.6112 313.474 -37.456 335.458 -39.1133C340.33 -9.83519 350.289 50.776 351.144 58.996C352 67.2159 344.846 145.946 341.162 184.284L207.473 165.06Z" fill="url(#paint1_linear_3050_1531)" stroke="url(#paint2_linear_3050_1531)" stroke-width="0.708089"/>
</g>
<defs>
<linearGradient id="paint0_linear_3050_1531" x1="22.6408" y1="3.56403" x2="108.97" y2="227.874" gradientUnits="userSpaceOnUse">
<stop stop-color="#FFB715"/>
<stop offset="1" stop-color="#F04C05"/>
</linearGradient>
<linearGradient id="paint1_linear_3050_1531" x1="217.611" y1="-33.5527" x2="410.167" y2="110.047" gradientUnits="userSpaceOnUse">
<stop stop-color="#FFB715"/>
<stop offset="1" stop-color="#F04C05"/>
</linearGradient>
<linearGradient id="paint2_linear_3050_1531" x1="217.611" y1="-33.5527" x2="410.167" y2="110.047" gradientUnits="userSpaceOnUse">
<stop stop-color="#FFB715"/>
<stop offset="1" stop-color="#F04C05"/>
</linearGradient>
</defs>
</svg>
