<svg width="321" height="144" viewBox="0 0 321 144" fill="none" xmlns="http://www.w3.org/2000/svg">
<path d="M193.741 0C195.982 5.37374 201.285 9.15131 207.471 9.15137C213.69 9.15137 219.245 5.39168 221.575 0H306.839C314.66 0.000213382 321 6.34096 321 14.1621V129.025C321 136.847 314.66 143.187 306.839 143.188H221.073C218.763 137.972 213.542 134.333 207.471 134.333C201.399 134.333 196.178 137.972 193.868 143.188H14.1621C6.34082 143.188 6.78044e-05 136.847 0 129.025V14.1621C6.77064e-05 6.34084 6.34082 0 14.1621 0H193.741Z" fill="white"/>
</svg>
