<svg width="454" height="216" viewBox="0 0 454 216" fill="none" xmlns="http://www.w3.org/2000/svg">
<mask id="mask0_1902_19819" style="mask-type:alpha" maskUnits="userSpaceOnUse" x="0" y="0" width="454" height="216">
<mask id="path-1-inside-1_1902_19819" fill="white">
<path d="M272 0C272 11.598 281.402 21 293 21C304.598 21 314 11.598 314 0H433.333C444.379 0 453.333 8.95431 453.333 20V196C453.333 207.046 444.379 216 433.333 216H314C314 204.402 304.598 195 293 195C281.402 195 272 204.402 272 216H20C8.95431 216 5.1544e-07 207.046 0 196V20C5.1544e-07 8.95431 8.95431 0 20 0H272Z"/>
</mask>
<path d="M272 0C272 11.598 281.402 21 293 21C304.598 21 314 11.598 314 0H433.333C444.379 0 453.333 8.95431 453.333 20V196C453.333 207.046 444.379 216 433.333 216H314C314 204.402 304.598 195 293 195C281.402 195 272 204.402 272 216H20C8.95431 216 5.1544e-07 207.046 0 196V20C5.1544e-07 8.95431 8.95431 0 20 0H272Z" fill="white"/>
<path d="M272 0H273V-1H272V0ZM314 0V-1H313V0H314ZM453.333 20H454.333H453.333ZM453.333 196H454.333H453.333ZM314 216H313V217H314V216ZM272 216V217H273V216H272ZM20 216L20 217H20V216ZM0 196H-1H0ZM0 20H-1H0ZM272 0H271C271 12.1503 280.85 22 293 22V21V20C281.954 20 273 11.0457 273 0H272ZM293 21V22C305.15 22 315 12.1503 315 0H314H313C313 11.0457 304.046 20 293 20V21ZM314 0V1H433.333V0V-1H314V0ZM433.333 0V1C443.826 1 452.333 9.50659 452.333 20H453.333H454.333C454.333 8.40202 444.931 -1 433.333 -1V0ZM453.333 20H452.333V196H453.333H454.333V20H453.333ZM453.333 196H452.333C452.333 206.493 443.826 215 433.333 215V216V217C444.931 217 454.333 207.598 454.333 196H453.333ZM433.333 216V215H314V216V217H433.333V216ZM314 216H315C315 203.85 305.15 194 293 194V195V196C304.046 196 313 204.954 313 216H314ZM293 195V194C280.85 194 271 203.85 271 216H272H273C273 204.954 281.954 196 293 196V195ZM272 216V215H20V216V217H272V216ZM20 216L20 215C9.5066 215 1 206.493 1 196H0H-1C-0.999999 207.598 8.40203 217 20 217L20 216ZM0 196H1V20H0H-1V196H0ZM0 20H1C1 9.50659 9.50659 1 20 1V0V-1C8.40202 -1 -0.999999 8.40202 -1 20H0ZM20 0V1H272V0V-1H20V0Z" fill="url(#paint0_linear_1902_19819)" mask="url(#path-1-inside-1_1902_19819)"/>
</mask>
<g mask="url(#mask0_1902_19819)">
<path d="M293 249V-7.5C318.845 -19.5 371.542 -44.3 375.57 -47.5C379.598 -50.7 442.7 -56.5 473.748 -59C480.628 -14.8333 494.692 76.6 495.901 89C497.109 101.4 487.006 220.167 481.803 278L293 249Z" fill="url(#paint1_linear_1902_19819)" stroke="url(#paint2_linear_1902_19819)"/>
</g>
<defs>
<linearGradient id="paint0_linear_1902_19819" x1="31.9746" y1="5.37641" x2="168.596" y2="337.709" gradientUnits="userSpaceOnUse">
<stop stop-color="#FFB715"/>
<stop offset="1" stop-color="#F04C05"/>
</linearGradient>
<linearGradient id="paint1_linear_1902_19819" x1="307.318" y1="-50.6118" x2="591.819" y2="148.017" gradientUnits="userSpaceOnUse">
<stop stop-color="#FFB715"/>
<stop offset="1" stop-color="#F04C05"/>
</linearGradient>
<linearGradient id="paint2_linear_1902_19819" x1="307.318" y1="-50.6118" x2="591.819" y2="148.017" gradientUnits="userSpaceOnUse">
<stop stop-color="#FFB715"/>
<stop offset="1" stop-color="#F04C05"/>
</linearGradient>
</defs>
</svg>
