<svg xmlns="http://www.w3.org/2000/svg" width="1599" height="882" viewBox="0 0 1599 882" fill="none">
  <path fill-rule="evenodd" clip-rule="evenodd" d="M868.73 -992.638C818.273 -981.706 830.28 -889.742 782.202 -826.011C724.522 -749.644 667.033 -686.304 635.13 -592.002C616.187 -535.893 611.097 -471 583.793 -418.199C548.774 -350.87 477.971 -294.177 438.757 -215.365C411.432 -160.486 404.474 -97.6746 370.08 -45.784C288.101 78.0177 156.421 144.018 56.3017 249.149C-3.82687 312.411 -38.4855 387.339 -73.1315 465.858C-73.88 465.783 -74.0894 467.841 -74.1466 468.402C-93.5399 525.223 -109.213 584.5 -147.904 632.173C-207.77 705.859 -365.375 807.409 -349.346 909.991C-345.31 935.355 -324.635 938.404 -302.006 937.115C-243.254 933.829 -209.465 863.729 -172.087 828.967C-121.982 782.455 -75.171 725.589 -45.0452 663.623C28.5598 512.503 21.2857 422.344 167.199 307.505C206.872 276.19 339.992 103.147 376.819 159.26C420.179 225.49 159.446 419.009 118.191 465.854C17.9255 579.855 17.3875 750.509 -58.0876 879.132C-89.1898 932.113 -137.056 982.633 -189.457 1014.54C-220.5 1033.5 -255.914 1047.1 -282.534 1072.75C-339.991 1128.35 -359.052 1198.62 -395.084 1266.6C-419.154 1311.79 -470.62 1354.96 -461.959 1411.04C-453.055 1468.47 -386.135 1416.48 -371.294 1395.12C-302.494 1294.93 -280.672 1197.52 -174.29 1118.17C-143.183 1094.87 -103.274 1046.38 -65.3658 1062.14C-32.9 1075.66 -89.6595 1193.14 -93.0995 1234.38C-94.4925 1249.93 -93.9257 1268.51 -93.8909 1270.03C-92.4713 1293.23 -87.1761 1315.51 -78.9789 1337.14C-78.0846 1339.5 -78.3826 1338.72 -77.1903 1341.86C-53.0524 1409.35 -40.2931 1466.03 -43.4872 1538.3C-44.789 1565.97 -58.435 1675.92 -61.9538 1708.65C-65.3965 1740.63 -66.1814 1772.5 -62.9988 1804.38C-56.8904 1865.13 -40.4112 1924.28 -9.71701 1977.5C12.4688 2015.86 40.2712 2052.9 55.0768 2095.05C54.2898 2095.36 56.6654 2096.17 57.1506 2096.97C62.7699 2104.92 65.3741 2114.63 68.2405 2123.62C75.2953 2145.32 81.3582 2167.49 86.8604 2189.6C103.326 2256.31 112.076 2326.39 104.341 2394.98C91.2648 2510.48 12.1902 2512.83 -28.6155 2603.58C-65.2311 2684.73 -31.9283 2766.2 -18.5392 2848.29C-19.9252 2848.9 -17.5471 2858.97 -17.4933 2860.3C-14.0284 2891.29 -18.3526 2924.49 -21.4749 2955.18C-35.6013 3094.01 69.4025 3108.1 -10.4072 3286.75C-38.7761 3350.04 -64.3796 3415.87 -105.65 3472.16C-146.282 3527.77 -198.11 3574.48 -238.181 3630.13C-259.98 3660.44 -298.59 3737.05 -233.585 3742.9C-157.708 3749.68 -65.347 3607.46 -29.1703 3552.91C55.1916 3426.13 137.692 3282.35 116.704 3124.44C109.575 3070.03 84.3418 3018.87 80.4305 2964.41C76.1364 2904.42 93.2498 2845.86 85.5679 2785.72C79.9722 2742.23 51.6455 2662.03 81.9572 2622.39C125.568 2565.39 157.443 2672.04 159.677 2700.25C168.241 2801.88 137.625 2898.39 161.388 2999.3C167.184 3024.09 175.366 3086.74 212.708 3083.92C269.122 3079.45 260.697 2983.89 258.139 2947.7C247.81 2805.82 307.163 2714.87 215.253 2585.1C217.575 2584.58 212.209 2581.58 211.09 2579.57C197.526 2554.94 195.045 2529.17 196.739 2501.36C200.894 2436.37 214.424 2372.15 215.546 2307.24C218.422 2137.77 100.361 2012.32 63.6898 1854.33C33.7258 1725.19 70.8503 1544.27 63.6233 1470.37C61.6013 1449.37 51.7944 1395.25 42.246 1375.75C13.6771 1316.51 -1.47647 1259.2 10.9336 1192.98C20.9075 1139.55 43.3768 1089.65 51.3303 1035.64C62.1833 960.56 54.8932 879.851 77.2532 806.886C94.737 750.25 130.045 700.531 153.512 646.394C178.729 588.089 198.315 495.936 255.961 460.779C330.337 415.413 286.32 556.311 278.628 578.024C240.622 683.993 183.85 786.728 155.682 896.345C141.249 952.725 151.775 1012.78 140.692 1069.69C133.516 1106.77 83.1967 1244.57 147.149 1253.34C205.695 1261.38 219.927 1158.66 225.624 1121.24C235.64 1054.39 227.858 987.814 246.668 921.861C280.844 801.514 344.779 689.677 365.188 565.281C370.2 534.598 373.605 502.996 374.688 471.913C375.396 451.947 360.258 353.615 399.044 358.885C432.985 363.473 438.727 409.239 439.822 435.628C443.333 516.329 438.752 611.52 423.325 690.673C406.479 778.189 352.846 851.942 333.923 939.435C311.04 1045.43 325.896 1155.83 288.568 1258.84C278.866 1285.46 263.35 1307.89 246.806 1329.27C220.716 1362.72 192.085 1393.27 179.159 1432.98C159.61 1493.18 171.443 1555.26 168.755 1616.99C166.843 1661.79 158.569 1705.95 157.032 1750.78C156.025 1781.11 175.196 1852.82 213.12 1805.26C260.815 1745.28 207.186 1534.7 284.501 1425.17C289.135 1418.65 323.03 1373.51 351.512 1396.44C403.244 1438.01 322.335 1527.14 314.6 1573.42C303.915 1637.55 327.686 1701.22 310.937 1765.5C275.009 1903.06 193.235 1930.09 231.741 2097.91L231.554 2097.89C230.786 2098 237.557 2111.35 238.172 2112.74C243.838 2125.79 249.075 2139.37 253.767 2152.71C266.747 2190.52 278.394 2230.26 282.274 2270.17C288.689 2337.17 255.728 2404.71 265.737 2471.7C269.567 2497.24 290.283 2540.75 322.887 2517.61C388.077 2471.49 384.026 2280.9 367.003 2212.24C355.888 2167.25 330.337 2126.66 323.474 2080.78C303.585 1947.37 374.823 1888.26 401.841 1773.23C416.151 1712.49 403.505 1654.68 409.487 1594.04C412.171 1567.66 437.911 1498.63 438.212 1497.53C442.019 1482.41 443.935 1467.3 444.373 1451.84C445.048 1430.36 444.204 1408.91 441.846 1387.49C432.193 1298.41 415.249 1215.97 426.484 1125.99C435.044 1056.72 443.274 983.266 462.405 916.022C476.924 864.378 502.517 815.372 513.162 762.766C532.549 667.003 522.42 571.449 516.878 475.417C514.752 438.715 518.148 401.629 512.596 365.145C511.753 366.005 511.683 362.973 511.629 361.645C510.295 343.171 507.819 324.771 504.575 306.481C498.164 269.154 486.942 232.661 480.906 195.372C460.186 66.4146 471.429 -60.8043 522.468 -181.515C533.198 -207.079 571.26 -302.455 614.141 -283.536C654.143 -266.043 545.234 40.661 548.359 126.995C550.558 187.146 576.457 242.903 587.135 301.46C595.959 350.375 584.533 399.499 590.324 448.484C612.465 632.221 664.413 667.943 598.273 873.89C599.536 868.913 597.058 883.974 596.002 888.782C594.133 897.855 591.723 906.684 588.75 915.456C577.407 948.897 560.455 979.876 549.093 1013.51C515.289 1113.47 516.059 1198.81 518.609 1303.8C522.426 1466.96 510.214 1635.29 477.26 1795.65C461.859 1870.83 423.262 1939.88 419.665 2017.97C416.751 2080.06 438.564 2138.8 446.937 2199.58C448.827 2199.59 449.293 2211.73 449.734 2216.69C454.16 2275.37 455.309 2336.54 445.982 2394.77C413.838 2595.48 318.337 2703.53 327.847 2918.51C329.038 2943.95 325.918 2983.91 352.657 2997.97C396.803 3021.18 412.849 2930.36 411.714 2904.36C406.377 2765.42 443.234 2750.65 485.548 2632.07C512.214 2557.67 517.554 2488.45 521.694 2410.6C522.952 2387.09 524.306 2241.86 534.034 2233.59C539.225 2229.01 547.218 2228.5 553.748 2229.36C597.045 2234.9 579.311 2403.61 577.163 2422.86C575.411 2440.08 573.984 2507.99 570.03 2543.13C564.043 2596.4 513.344 2737.93 502.435 2833.99C491.149 2931.91 451.216 3015.94 377.148 3087.99C333.282 3130.78 281.658 3156.91 246.252 3209.46C183.227 3303.05 158.877 3412.3 111.075 3512.35C80.3651 3576.35 -99.453 3795.87 -150.823 3826.94C-249.124 3886.32 -348.345 3731.79 -445.935 3943.98C-456.605 3967.1 -479.54 4004.85 -469.405 4031.59C-436.414 4119.82 -259.446 3805.68 -250.269 3953.3C-247.229 4003.34 -583.137 4324.37 -474.925 4377.55C-468.437 4380.67 -461.551 4381.74 -454.533 4381.51C-451.688 4381.42 -449.011 4381.13 -446.11 4380.48C-389.418 4367.72 -347.273 4248.94 -313.587 4205.86C-272.922 4153.67 -226.521 4106.39 -186.007 4053.8C-157.702 4017.18 -139.771 3972.87 -109.187 3937.98C-6.50119 3820.64 104.828 3737.26 177.076 3592.04C197.508 3551.02 248.552 3307.62 313.552 3328.41C342.301 3337.57 334.702 3380.66 329.65 3402.46C312.812 3475.03 263.321 3534.08 234.533 3601.48C179.888 3729.77 144.967 3848.15 111.609 3982.76C101.678 4022.77 67.6596 4095.12 106.153 4129.28C118.991 4140.61 129.657 4130.54 138.716 4119.55C162.158 4091.69 173.117 4052.72 183.019 4018.57C195.052 3976.5 236.869 3690.01 297.507 3710.93C309.01 3714.92 315.2 3728.41 318.662 3738.97C365.432 3879.47 122.072 4231.09 141.396 4442.52C142.552 4455.31 144.796 4489 163.32 4490.88C194.008 4494.01 244.678 4239.41 265.756 4193.92C305.505 4107.98 366.622 4034.99 387.43 3940.12C411.423 3830.65 370.152 3725.3 372.66 3617.05C374.376 3544.44 413.515 3475.64 428.235 3405.31C444.823 3325.89 441.369 3244.63 464.656 3166.27C471.884 3141.68 485.036 3101.61 509.612 3088.62C516.392 3085.14 522.793 3085.42 528.285 3090.89C606.421 3166.52 472.559 3488.08 463.718 3589.83C455.81 3682.42 472.566 3775.99 462.333 3870.99C459.707 3896.81 460.361 3929.39 494.746 3925.9C581.301 3916.93 540.875 3636.06 552.254 3570.68C578.135 3420.37 639.538 3290.69 640.932 3133.92C641.726 3031.36 583.892 2936.42 594.307 2834.08C608.033 2699.18 631.891 2604.05 659.194 2452.76C678.337 2346.38 671.129 2207.27 589.974 2124.14C566.51 2100.21 545.152 2070.44 535.439 2037.69C503.828 1930.31 575.435 1722.65 597.108 1613.69C608.058 1558.1 610.748 1496.37 612.904 1439.87C616.909 1331.76 563.071 1219.85 596.984 1111.39C595.029 1115.73 596.251 1101.86 597.289 1097.24C599.776 1087.66 603.76 1078.24 608.247 1069.43C621.3 1043.35 637.773 1018.94 654.022 994.88C703.18 922.373 719.912 824.826 723.373 738.784C727.511 640.523 690.382 563.207 673.87 469.083C664.621 416.911 670.704 362.707 667.95 309.871C664.709 246.968 646.251 184.973 645.068 122.279C644.183 71.5248 665.424 -25.7523 665.611 -25.7332C665.611 -25.7332 669.256 -44.8337 669.595 -46.312C682.09 -96.6501 703.041 -144.616 714.057 -195.293C727.565 -257.438 700.962 -317.426 694.312 -378.408C685.283 -460.617 721.698 -641.987 790.642 -695.278C899.035 -779.527 950.526 -566.527 959.558 -497.363C968.961 -426.27 974.139 -347.1 963.705 -276.135C946.227 -158.248 895.905 -29.7131 920.719 90.5876C937.163 170.526 983.626 228.564 1018.76 299.44C1029.77 321.354 1035.31 337.42 1040.7 349.501C1055.51 382.388 1068.7 416.247 1082.69 449.62C1123.89 548.334 1146.34 651 1174.62 753.884C1210.7 884.216 1280.27 1012.47 1283.27 1150.21C1284.38 1198.72 1268.71 1246.85 1264.59 1294.82C1260.05 1348.62 1267.92 1457.17 1275.09 1507.43C1293.08 1633.46 1331.52 1755.53 1347 1882.07C1359.08 1980.65 1341.84 2085.14 1368.89 2181.67C1380.42 2222.54 1403.42 2262.12 1422.08 2299.94C1449.21 2354.68 1477.11 2409.32 1508.44 2461.85C1513.77 2470.9 1531.55 2509.76 1544.94 2510C1590.61 2510.85 1555.43 2427.5 1547.92 2408.4C1514.34 2322.18 1466.44 2241.12 1440.34 2152.07C1431.65 2122.26 1418.81 2064.43 1467.54 2066.75C1498.21 2068.17 1521.45 2120.43 1533.18 2142.61C1577.89 2227.13 1609.63 2318.45 1643.46 2407.72C1647.31 2418.13 1682.54 2512.27 1690.98 2512.94C1725.28 2515.86 1723.73 2464.09 1722.56 2442.24C1719.25 2370.63 1700.93 2294.28 1676.01 2227.1C1650.33 2158.12 1625.22 2085.25 1573.27 2030.99C1529.35 1985.12 1462.07 1962.59 1432.13 1903.78C1396.34 1833.78 1423.56 1753.93 1417.33 1679.57C1410.41 1595.12 1369.98 1516.9 1359.25 1432.82C1355.74 1405.99 1315.48 1277.7 1353.51 1266.25C1373.99 1260.02 1383.2 1294.04 1386.96 1307.28C1392.39 1326.36 1394.63 1332.26 1397.12 1339.32C1402.6 1354.23 1404.95 1370.17 1409.64 1385.39C1424.6 1433.42 1461.82 1470.85 1476.31 1519.78C1505.9 1619.2 1438 1779.22 1514.64 1860.37C1520.77 1866.86 1530.3 1873.68 1539.97 1871.45C1605.38 1856.56 1508.51 1641.77 1577.19 1656.14C1641.99 1669.54 1619.66 2015.49 1711.46 1945.61C1745.88 1919.44 1695.5 1706.74 1687.44 1659.61C1675.5 1591.09 1651.22 1523.21 1600.27 1473.97C1572.39 1446.94 1541.14 1425.23 1520.99 1391.05C1492.6 1342.98 1477.22 1287.91 1453.22 1237.64C1430.77 1190.74 1397.66 1150.13 1376.83 1102.08C1350.66 1041.56 1340.93 973.653 1323.75 910.276C1330.41 902.445 1254.92 715.36 1240.24 686.833C1178.5 567.124 1154.04 426.632 1106.94 300.472C1078.57 224.425 1027.97 160.671 1003.64 82.0109C991.972 44.3383 988.706 -90.7842 1032.78 -111.443C1108 -146.514 1102.73 87.3667 1106.89 115.202C1111.81 148.597 1122.5 181.065 1135.6 212.079C1176.17 309.406 1230.46 400.19 1270.38 498.396C1296.25 561.901 1306.55 629.683 1330.68 693.578C1357.2 763.577 1390.64 830.688 1408.52 903.966C1435.75 1015.44 1467.77 1193.18 1573.94 1257.11C1623.62 1287.12 1635.08 1219.09 1622.51 1184.73C1607.98 1145.45 1470.69 883.826 1506.92 860.29C1554.68 829.42 1668.43 1088.26 1694.2 1136.07C1703.24 1153.06 1740.03 1213.33 1766.79 1193.74C1802.55 1167.51 1745.08 1074.51 1731.47 1046.66C1699.26 980.432 1677.29 900.877 1620.16 851.017C1555.74 794.932 1465.14 780.42 1415.97 706.227C1379.45 650.9 1389.84 578.419 1367.87 517.579C1326.25 402.565 1247.33 299.443 1213.15 181.971C1191.05 105.617 1212.31 24.7896 1190.98 -51.6757C1164.52 -146.434 1109.01 -171.365 1081.62 -249.582C1072.4 -276.04 1070.21 -282.313 1068.29 -289.503C1064.07 -303.733 1060.44 -318.281 1057.77 -332.919C1049.74 -376.65 1052.91 -422.644 1049.67 -467.021C1043.64 -548.924 1013.15 -624.62 973.694 -695.746C950.373 -737.818 922.197 -774.902 912.773 -823.501C905.277 -861.317 919.671 -895.015 919.492 -932.274C919.406 -968.578 898.646 -998.673 867.717 -991.986" fill="black" fill-opacity="0.03"/>
</svg>
