<svg width="39" height="44" viewBox="0 0 39 44" fill="none" xmlns="http://www.w3.org/2000/svg">
<g filter="url(#filter0_d_4036_18252)">
<mask id="path-1-inside-1_4036_18252" fill="white">
<path d="M19.3633 4.90625C25.4693 4.90638 30.4364 9.27598 30.4365 14.6465C30.4362 21.3115 20.5264 31.0955 20.1045 31.5088C19.7089 31.8963 19.0174 31.897 18.6211 31.5088C18.1961 31.0925 8.28939 21.3104 8.28906 14.6465C8.28906 9.2759 13.2571 4.90625 19.3633 4.90625Z"/>
</mask>
<path d="M19.3633 4.90625C25.4693 4.90638 30.4364 9.27598 30.4365 14.6465C30.4362 21.3115 20.5264 31.0955 20.1045 31.5088C19.7089 31.8963 19.0174 31.897 18.6211 31.5088C18.1961 31.0925 8.28939 21.3104 8.28906 14.6465C8.28906 9.2759 13.2571 4.90625 19.3633 4.90625Z" fill="#FFC542"/>
<path d="M19.3633 4.90625L19.3633 3.32426H19.3633V4.90625ZM30.4365 14.6465L32.0185 14.6466V14.6464L30.4365 14.6465ZM20.1045 31.5088L18.9975 30.3786L18.9974 30.3787L20.1045 31.5088ZM18.6211 31.5088L19.7281 30.3787L19.7281 30.3787L18.6211 31.5088ZM8.28906 14.6465H6.70707V14.6466L8.28906 14.6465ZM19.3633 4.90625L19.3632 6.48824C24.7923 6.48836 28.8544 10.3342 28.8545 14.6465L30.4365 14.6465L32.0185 14.6464C32.0184 8.21775 26.1463 3.3244 19.3633 3.32426L19.3633 4.90625ZM30.4365 14.6465L28.8545 14.6464C28.8545 15.9549 28.3567 17.5567 27.4679 19.3243C26.5913 21.0679 25.4006 22.8436 24.1689 24.4651C21.7061 27.7071 19.1852 30.1948 18.9975 30.3786L20.1045 31.5088L21.2115 32.6389C21.4457 32.4095 24.0907 29.7986 26.6883 26.379C27.9868 24.6697 29.3 22.7239 30.2947 20.7456C31.2774 18.7912 32.0184 16.6706 32.0185 14.6466L30.4365 14.6465ZM20.1045 31.5088L18.9974 30.3787C19.1301 30.2488 19.2722 30.2177 19.3626 30.2177C19.4531 30.2177 19.5955 30.2488 19.7281 30.3787L18.6211 31.5088L17.514 32.6389C18.5261 33.6303 20.2016 33.6283 21.2116 32.6389L20.1045 31.5088ZM18.6211 31.5088L19.7281 30.3787C19.5389 30.1933 17.018 27.7053 14.5556 24.4636C13.324 22.8422 12.1337 21.0668 11.2572 19.3234C10.3687 17.5561 9.87112 15.9546 9.87106 14.6464L8.28906 14.6465L6.70707 14.6466C6.70717 16.6703 7.44801 18.7906 8.43039 20.7446C9.42483 22.7227 10.7378 24.6682 12.0361 26.3774C14.6333 29.7968 17.2783 32.408 17.5141 32.6389L18.6211 31.5088ZM8.28906 14.6465H9.87106C9.87106 10.3343 13.9339 6.48824 19.3633 6.48824V4.90625V3.32426C12.5803 3.32426 6.70707 8.21751 6.70707 14.6465H8.28906Z" fill="white" mask="url(#path-1-inside-1_4036_18252)"/>
<g clip-path="url(#clip0_4036_18252)">
<path d="M18.1786 11.2344C18.6578 11.3009 19.2577 11.8501 19.2577 12.3401V16.0015L17.0842 15.917C16.2115 15.8684 15.3953 15.8811 15.128 14.8884L14.6172 11.2344H18.1786Z" fill="white"/>
<path d="M19.582 15.9984C19.8385 14.9455 19.9678 13.8218 20.2417 12.7763C20.4112 12.13 20.8123 11.7424 21.5187 11.6875L24.1052 12.1786C24.1313 12.205 24.0291 12.45 24.0096 12.5017C23.7031 13.2948 23.3945 14.1017 23.063 14.8842C22.9152 15.2348 22.8196 15.5263 22.4892 15.7618C22.3794 15.84 22.0588 15.9963 21.9327 15.9963H19.5831L19.582 15.9984Z" fill="white"/>
<path d="M15.0605 19.9379L15.6072 17.3822C15.7365 16.8953 16.1821 16.4919 16.7048 16.4381C17.3678 16.3694 18.1014 16.3715 18.7697 16.3483C18.9208 16.343 19.0947 16.2944 19.2577 16.3198C19.2186 16.6757 19.2001 17.0358 19.1664 17.3938C19.1229 17.8553 19.1001 18.5428 18.9969 18.98C18.9078 19.3549 18.4285 19.9379 18.0025 19.9379H15.0605Z" fill="white"/>
<path d="M22.4803 19.1568H20.899C20.8392 19.1568 20.6175 19.0681 20.549 19.0375C20.0861 18.8305 19.8839 18.4946 19.7948 18.0183C19.6927 17.4681 19.6774 16.8683 19.584 16.3139C19.6188 16.3139 19.6535 16.3117 19.6883 16.3128C20.0741 16.3202 20.8838 16.3476 21.2109 16.4997C21.5163 16.6412 21.7412 16.9169 21.8608 17.2178C22.1053 17.8293 22.2433 18.5369 22.4803 19.1578V19.1568Z" fill="white"/>
</g>
</g>
<defs>
<filter id="filter0_d_4036_18252" x="-0.767816" y="-1.85904" width="40.2622" height="45.3364" filterUnits="userSpaceOnUse" color-interpolation-filters="sRGB">
<feFlood flood-opacity="0" result="BackgroundImageFix"/>
<feColorMatrix in="SourceAlpha" type="matrix" values="0 0 0 0 0 0 0 0 0 0 0 0 0 0 0 0 0 0 127 0" result="hardAlpha"/>
<feOffset dy="3.38339"/>
<feGaussianBlur stdDeviation="4.14465"/>
<feComposite in2="hardAlpha" operator="out"/>
<feColorMatrix type="matrix" values="0 0 0 0 0.186667 0 0 0 0 0.186667 0 0 0 0 0.186667 0 0 0 0.6 0"/>
<feBlend mode="normal" in2="BackgroundImageFix" result="effect1_dropShadow_4036_18252"/>
<feBlend mode="normal" in="SourceGraphic" in2="effect1_dropShadow_4036_18252" result="shape"/>
</filter>
<clipPath id="clip0_4036_18252">
<rect width="9.49196" height="8.70096" fill="white" transform="translate(14.6172 11.2344)"/>
</clipPath>
</defs>
</svg>
