<svg xmlns="http://www.w3.org/2000/svg" width="186" height="113" viewBox="0 0 186 113" fill="none">
  <g filter="url(#filter0_dn_2809_17459)">
    <path d="M176.52 60.8993L172.497 83.6152L160.749 89.1486L10.816 62.5985L10.8168 62.5937L21.2627 64.4435L12.1246 55.2086L16.1454 32.5023L27.899 26.9669L167.383 51.6667L176.52 60.8993Z" fill="#F9B833"/>
    <g filter="url(#filter1_g_2809_17459)">
      <path d="M34.9274 49.0833C34.1756 53.3292 31.1087 54.3724 28.5091 53.9121C25.9529 53.4595 23.4307 51.4265 24.1826 47.1806L25.8858 37.5622L30.0668 38.3026L28.4748 47.2927C28.2676 48.4625 28.1918 49.5215 29.2533 49.7095C30.3148 49.8975 30.6506 48.8845 30.8577 47.7147L32.4497 38.7246L36.6306 39.4649L34.9274 49.0833ZM44.4814 40.8551L48.4891 41.5648L45.8038 56.7289L41.8395 56.0269L40.7069 48.9226L40.512 48.888L39.5216 55.6164L35.5139 54.9068L38.1992 39.7427L42.1852 40.4485L43.2756 47.7911L43.4489 47.8218L44.4814 40.8551ZM58.0594 43.2595L57.3958 47.0072L53.5831 46.3321L53.1458 48.8016C54.3629 48.615 55.6756 48.6464 56.6529 48.9311L56.0084 52.5705L55.7471 52.6583C54.9661 52.2742 53.8435 52.0531 52.5435 52.2027L51.5615 57.7484L47.4455 57.0196L50.1307 41.8555L58.0594 43.2595ZM57.4289 50.9677C58.4033 45.4653 61.8071 43.655 65.1648 44.2496C68.5226 44.8442 71.0978 47.7132 70.1234 53.2156C69.1491 58.718 65.7453 60.5282 62.3875 59.9336C59.0298 59.339 56.4546 56.4701 57.4289 50.9677ZM61.6965 51.7234C61.2439 54.2796 61.9299 55.831 63.078 56.0343C64.2478 56.2414 65.4465 55.0238 65.8992 52.4676C66.3633 49.8463 65.6225 48.3523 64.4744 48.149C63.3262 47.9457 62.153 49.1455 61.6965 51.7234ZM72.6198 45.8379L78.4905 46.8774C81.09 47.3378 82.7673 49.2211 82.2111 52.3622C81.8658 54.3119 80.8226 55.5347 79.5402 56.0896L80.4657 62.2189L80.3544 62.8471L76.0435 62.0837L75.564 56.2121L75.0657 56.1239L74.0722 61.7346L69.8912 60.9943L72.6198 45.8379ZM75.7483 52.6477L76.8315 52.8395C77.4597 52.9507 77.7799 52.4042 77.8988 51.7326C77.9947 51.1911 77.8701 50.6328 77.2419 50.5215L76.1588 50.3297L75.7483 52.6477ZM82.4344 55.3956C83.3935 49.9799 87.0254 48.143 90.9247 48.8335C93.0477 49.2094 94.4668 50.1534 94.9087 50.8125L94.1683 54.9935L93.6917 54.9091C93.4577 54.0856 92.3331 52.9928 90.9033 52.7396C88.6504 52.3407 87.1931 53.3785 86.6982 56.173C86.2264 58.8375 87.027 60.4986 89.085 60.863C89.085 60.863 89.1346 60.9612 89.28 60.8975L89.6981 58.5363L87.5751 58.1603L88.2081 54.5859L94.0571 55.6217L92.6723 63.442C91.1933 64.476 89.4765 64.7082 87.6135 64.3783C84.2774 63.7875 81.4754 60.8114 82.4344 55.3956ZM104.792 51.535L104.129 55.2826L100.273 54.5998L99.8699 56.8744C101.087 56.6878 102.4 56.7192 103.377 57.004L102.733 60.6433L102.471 60.7311C101.694 60.3254 100.568 60.1259 99.2677 60.2755L98.9147 62.2685L102.771 62.9513L102.107 66.699L94.1351 65.2874L96.8204 50.1233L104.792 51.535ZM114.535 53.2603L113.86 57.0729L111.412 56.6395L109.402 67.9909L105.286 67.262L107.296 55.9106L104.74 55.458L105.415 51.6453L114.535 53.2603ZM123.95 54.9273L123.274 58.74L120.826 58.3065L118.816 69.6579L114.7 68.929L116.711 57.5776L114.154 57.125L114.829 53.3123L123.95 54.9273ZM120.37 69.933L120.477 69.3265L125.763 55.2484L132.193 56.4094L132.327 71.4248L132.22 72.0313L127.909 71.268L128.079 68.4159L125.522 67.9632L124.703 70.7002L120.37 69.933ZM126.545 64.4579L128.322 64.7725L128.622 59.7986L127.972 59.6835L126.545 64.4579ZM139.06 73.2427L133.103 72.1878L135.788 57.0237L141.897 58.1055C144.172 58.5083 145.396 60.1772 145.031 62.2352C144.698 64.1199 143.355 64.8876 142.323 65.0399L142.292 65.2132C143.365 65.7159 144.715 67.4296 144.308 69.7258C143.825 72.4554 141.79 73.726 139.06 73.2427ZM137.879 69.1906L138.767 69.3479C139.309 69.4438 139.956 69.0669 140.079 68.3737C140.217 67.5939 139.831 67.1234 139.203 67.0121L138.293 66.851L137.879 69.1906ZM138.857 63.6665L139.615 63.8008C140.157 63.8967 140.7 63.479 140.83 62.7425C140.957 62.0276 140.557 61.5099 140.037 61.4179L139.279 61.2836L138.857 63.6665ZM147.085 59.0241L151.201 59.753L149.18 71.1694L152.256 71.7141L151.592 75.4618L144.4 74.1882L147.085 59.0241ZM163.16 61.8706L162.496 65.6183L158.64 64.9355L158.237 67.2101C159.454 67.0235 160.767 67.0548 161.744 67.3396L161.1 70.979L160.839 71.0668C160.061 70.661 158.935 70.4616 157.635 70.6112L157.282 72.6042L161.138 73.287L160.474 77.0347L152.502 75.623L155.188 60.4589L163.16 61.8706Z" fill="#120806"/>
    </g>
  </g>
  <defs>
    <filter id="filter0_dn_2809_17459" x="-9.1" y="-8.1" width="194.72" height="130.7" filterUnits="userSpaceOnUse" color-interpolation-filters="sRGB">
      <feFlood flood-opacity="0" result="BackgroundImageFix"/>
      <feColorMatrix in="SourceAlpha" type="matrix" values="0 0 0 0 0 0 0 0 0 0 0 0 0 0 0 0 0 0 127 0" result="hardAlpha"/>
      <feOffset dy="1"/>
      <feGaussianBlur stdDeviation="4.55"/>
      <feComposite in2="hardAlpha" operator="out"/>
      <feColorMatrix type="matrix" values="0 0 0 0 0 0 0 0 0 0 0 0 0 0 0 0 0 0 0.05 0"/>
      <feBlend mode="normal" in2="BackgroundImageFix" result="effect1_dropShadow_2809_17459"/>
      <feBlend mode="normal" in="SourceGraphic" in2="BackgroundImageFix" result="shape"/>
      <feTurbulence type="fractalNoise" baseFrequency="3.4076874256134033 3.4076874256134033" stitchTiles="stitch" numOctaves="3" result="noise" seed="9675"/>
      <feColorMatrix in="noise" type="luminanceToAlpha" result="alphaNoise"/>
      <feComponentTransfer in="alphaNoise" result="coloredNoise1">
        <feFuncA type="discrete" tableValues="1 1 1 1 1 1 1 1 1 1 1 1 1 1 1 1 1 1 1 1 1 1 1 1 1 1 1 1 1 1 1 1 1 1 1 1 1 1 1 1 1 1 1 1 1 1 1 1 1 1 1 0 0 0 0 0 0 0 0 0 0 0 0 0 0 0 0 0 0 0 0 0 0 0 0 0 0 0 0 0 0 0 0 0 0 0 0 0 0 0 0 0 0 0 0 0 0 0 0 0 "/>
      </feComponentTransfer>
      <feComposite operator="in" in2="shape" in="coloredNoise1" result="noise1Clipped"/>
      <feFlood flood-color="rgba(235, 214, 167, 0.25)" result="color1Flood"/>
      <feComposite operator="in" in2="noise1Clipped" in="color1Flood" result="color1"/>
      <feMerge result="effect2_noise_2809_17459">
        <feMergeNode in="shape"/>
        <feMergeNode in="color1"/>
      </feMerge>
      <feBlend mode="normal" in="effect2_noise_2809_17459" in2="effect1_dropShadow_2809_17459" result="effect2_noise_2809_17459"/>
    </filter>
    <filter id="filter1_g_2809_17459" x="22.8767" y="37.0271" width="140.606" height="40.5474" filterUnits="userSpaceOnUse" color-interpolation-filters="sRGB">
      <feFlood flood-opacity="0" result="BackgroundImageFix"/>
      <feBlend mode="normal" in="SourceGraphic" in2="BackgroundImageFix" result="shape"/>
      <feTurbulence type="fractalNoise" baseFrequency="0.56535488367080688 0.56535488367080688" numOctaves="3" seed="4167"/>
      <feDisplacementMap in="shape" scale="0.55521035194396973" xChannelSelector="R" yChannelSelector="G" result="displacedImage" width="100%" height="100%"/>
      <feMerge result="effect1_texture_2809_17459">
        <feMergeNode in="displacedImage"/>
      </feMerge>
    </filter>
  </defs>
</svg>
