<svg xmlns="http://www.w3.org/2000/svg" width="177" height="168" viewBox="0 0 177 168" fill="none">
  <g filter="url(#filter0_dn_2809_17525)">
    <path d="M148.609 152.691L138.218 157.247L146.328 159.836L146.327 159.838L21.8028 120.082L31.0987 90.965L41.4911 86.41L149.797 120.988L155.622 130.715L157.901 123.576L157.904 123.577L148.609 152.691ZM21.8059 120.078L29.9162 122.668L24.0869 112.934L21.8059 120.078Z" fill="#FC6B3E"/>
    <g filter="url(#filter1_g_2809_17525)">
      <path d="M35.4357 111.964L40.1194 97.2937L46.0086 99.1739L44.4618 106.116L44.5247 106.136L47.2451 99.5687L53.1342 101.449L48.4505 116.119L44.5942 114.888L47.5829 105.889L47.4152 105.835L43.1691 114.433L40.738 113.657L42.2596 104.189L42.0919 104.136L39.3129 113.202L35.4357 111.964ZM62.1149 114.57C60.8034 118.678 57.6248 119.302 55.1099 118.5C52.6369 117.71 50.4084 115.359 51.7198 111.251L54.6907 101.946L58.7355 103.237L55.9587 111.935C55.5974 113.066 55.381 114.106 56.408 114.434C57.4349 114.762 57.9028 113.802 58.2641 112.671L61.0409 103.973L65.0857 105.265L62.1149 114.57ZM66.6032 105.749L70.5852 107.02L67.059 118.065L70.035 119.015L68.8774 122.641L61.9194 120.42L66.6032 105.749ZM81.654 110.554L80.4764 114.243L78.1082 113.487L74.602 124.469L70.62 123.197L74.1262 112.215L71.6532 111.426L72.8308 107.737L81.654 110.554ZM82.6286 110.865L86.6105 112.137L81.9268 126.807L77.9448 125.536L82.6286 110.865ZM85.3716 119.824C87.0376 114.606 90.8469 113.235 94.0953 114.272C95.6672 114.774 96.5594 115.452 96.9067 115.955L95.6956 119.748L95.2346 119.601C95.0482 119.172 94.5801 118.469 93.7418 118.201C91.9394 117.625 90.3166 118.585 89.5002 121.142C88.6839 123.699 89.4503 125.422 91.2527 125.997C92.1119 126.272 92.8803 125.963 93.2808 125.721L93.7418 125.868L92.5307 129.662C91.9559 129.871 90.8362 129.906 89.2853 129.411C86.0788 128.387 83.7055 125.043 85.3716 119.824ZM95.523 123.065C97.2225 117.742 100.837 116.402 104.086 117.439C107.334 118.476 109.504 121.663 107.804 126.986C106.105 132.309 102.49 133.649 99.2414 132.612C95.993 131.575 93.8235 128.388 95.523 123.065ZM99.6517 124.383C98.8621 126.856 99.3351 128.485 100.446 128.84C101.578 129.201 102.928 128.154 103.717 125.681C104.527 123.145 103.992 121.566 102.881 121.211C101.771 120.857 100.448 121.889 99.6517 124.383ZM111.22 119.994L115.202 121.265L111.676 132.31L114.652 133.26L113.495 136.886L106.537 134.664L111.22 119.994ZM115.846 129.554C117.546 124.23 121.161 122.89 124.409 123.927C127.658 124.965 129.827 128.151 128.128 133.475C126.428 138.798 122.813 140.138 119.565 139.101C116.316 138.064 114.147 134.877 115.846 129.554ZM119.975 130.872C119.185 133.345 119.658 134.974 120.769 135.328C121.901 135.69 123.251 134.643 124.041 132.17C124.85 129.634 124.316 128.054 123.205 127.7C122.094 127.345 120.771 128.378 119.975 130.872ZM131.586 126.496L137.265 128.309C139.78 129.112 141.191 131.202 140.221 134.241C139.619 136.127 138.422 137.2 137.077 137.579L137.177 143.777L136.983 144.385L132.812 143.053L133.12 137.17L132.638 137.016L130.905 142.444L126.86 141.153L131.586 126.496ZM133.778 133.662L134.826 133.997C135.434 134.191 135.824 133.692 136.031 133.042C136.199 132.518 136.15 131.948 135.542 131.754L134.494 131.42L133.778 133.662Z" fill="white"/>
    </g>
  </g>
  <defs>
    <filter id="filter0_dn_2809_17525" x="-7.1729" y="-6.38544" width="191.068" height="174.183" filterUnits="userSpaceOnUse" color-interpolation-filters="sRGB">
      <feFlood flood-opacity="0" result="BackgroundImageFix"/>
      <feColorMatrix in="SourceAlpha" type="matrix" values="0 0 0 0 0 0 0 0 0 0 0 0 0 0 0 0 0 0 127 0" result="hardAlpha"/>
      <feOffset dy="0.788326"/>
      <feGaussianBlur stdDeviation="3.58688"/>
      <feComposite in2="hardAlpha" operator="out"/>
      <feColorMatrix type="matrix" values="0 0 0 0 0 0 0 0 0 0 0 0 0 0 0 0 0 0 0.05 0"/>
      <feBlend mode="normal" in2="BackgroundImageFix" result="effect1_dropShadow_2809_17525"/>
      <feBlend mode="normal" in="SourceGraphic" in2="BackgroundImageFix" result="shape"/>
      <feTurbulence type="fractalNoise" baseFrequency="4.3226866722106934 4.3226866722106934" stitchTiles="stitch" numOctaves="3" result="noise" seed="9675"/>
      <feColorMatrix in="noise" type="luminanceToAlpha" result="alphaNoise"/>
      <feComponentTransfer in="alphaNoise" result="coloredNoise1">
        <feFuncA type="discrete" tableValues="1 1 1 1 1 1 1 1 1 1 1 1 1 1 1 1 1 1 1 1 1 1 1 1 1 1 1 1 1 1 1 1 1 1 1 1 1 1 1 1 1 1 1 1 1 1 1 1 1 1 1 0 0 0 0 0 0 0 0 0 0 0 0 0 0 0 0 0 0 0 0 0 0 0 0 0 0 0 0 0 0 0 0 0 0 0 0 0 0 0 0 0 0 0 0 0 0 0 0 0 "/>
      </feComponentTransfer>
      <feComposite operator="in" in2="shape" in="coloredNoise1" result="noise1Clipped"/>
      <feFlood flood-color="rgba(235, 214, 167, 0.25)" result="color1Flood"/>
      <feComposite operator="in" in2="noise1Clipped" in="color1Flood" result="color1"/>
      <feMerge result="effect2_noise_2809_17525">
        <feMergeNode in="shape"/>
        <feMergeNode in="color1"/>
      </feMerge>
      <feBlend mode="normal" in="effect2_noise_2809_17525" in2="effect1_dropShadow_2809_17525" result="effect2_noise_2809_17525"/>
    </filter>
    <filter id="filter1_g_2809_17525" x="35.0787" y="96.7615" width="106.946" height="48.149" filterUnits="userSpaceOnUse" color-interpolation-filters="sRGB">
      <feFlood flood-opacity="0" result="BackgroundImageFix"/>
      <feBlend mode="normal" in="SourceGraphic" in2="BackgroundImageFix" result="shape"/>
      <feTurbulence type="fractalNoise" baseFrequency="0.56535488367080688 0.56535488367080688" numOctaves="3" seed="4167"/>
      <feDisplacementMap in="shape" scale="0.55521035194396973" xChannelSelector="R" yChannelSelector="G" result="displacedImage" width="100%" height="100%"/>
      <feMerge result="effect1_texture_2809_17525">
        <feMergeNode in="displacedImage"/>
      </feMerge>
    </filter>
  </defs>
</svg>
