<svg xmlns="http://www.w3.org/2000/svg" width="20" height="20" viewBox="0 0 20 20" fill="none">
  <path fill-rule="evenodd" clip-rule="evenodd" d="M17.3302 18.7319H10.7812C10.5222 18.7319 10.3124 18.5221 10.3124 18.2632C10.3124 18.0042 10.5222 17.7944 10.7812 17.7944H16.8625C16.9754 16.5905 17.8881 15.6152 19.0624 15.4074V11.615C17.9389 11.4159 17.0548 10.5148 16.8817 9.38262L3.11813 9.3827C2.94512 10.515 2.06102 11.4162 0.9375 11.6151V15.4074C2.11184 15.6153 3.02441 16.5905 3.13738 17.7945L9.21875 17.7944C9.47774 17.7944 9.6875 18.0042 9.6875 18.2632C9.6875 18.5221 9.47774 18.7319 9.21875 18.7319H2.66977C2.60438 18.7319 2.53971 18.7183 2.47991 18.6918C2.42012 18.6654 2.36653 18.6267 2.32257 18.5783C2.27862 18.5299 2.24529 18.4728 2.22472 18.4107C2.20415 18.3487 2.19679 18.283 2.20313 18.2179C2.20867 18.1616 2.2116 18.1046 2.2116 18.0467C2.2116 17.0857 1.42969 16.3038 0.46875 16.3038C0.209961 16.3038 0 16.0941 0 15.8351V11.1876C0 10.9286 0.209961 10.7188 0.46875 10.7188C1.42969 10.7188 2.2116 9.93687 2.2116 8.97594L2.21094 8.92656C2.20924 8.86399 2.2201 8.80171 2.24288 8.74341C2.26565 8.6851 2.29989 8.63196 2.34355 8.58711C2.38724 8.54223 2.43948 8.50657 2.49717 8.48221C2.55487 8.45786 2.61686 8.44531 2.67949 8.44531L17.3207 8.44539C17.3835 8.44536 17.4456 8.45795 17.5034 8.48242C17.5612 8.50689 17.6135 8.54273 17.6572 8.58781C17.7008 8.63288 17.7351 8.68626 17.7578 8.74479C17.7805 8.80332 17.7912 8.86581 17.7893 8.92855L17.7885 8.97613C17.7885 9.93707 18.5704 10.719 19.5313 10.719C19.7903 10.719 20.0001 10.9287 20.0001 11.1877V15.8355C20.0001 16.0945 19.7903 16.3042 19.5313 16.3042C18.5704 16.3042 17.7885 17.0861 17.7885 18.0471C17.7885 18.105 17.7916 18.1623 17.797 18.2188C17.8032 18.2838 17.7958 18.3494 17.7752 18.4114C17.7546 18.4734 17.7213 18.5305 17.6773 18.5788C17.6333 18.6271 17.5797 18.6657 17.52 18.6921C17.4602 18.7184 17.3955 18.732 17.3302 18.732L17.3302 18.7319Z" fill="#F9EAD5"/>
  <path fill-rule="evenodd" clip-rule="evenodd" d="M4.72707 15.7674C4.46809 15.7674 4.25832 15.5576 4.25832 15.2986V11.875C4.25832 11.616 4.46809 11.4062 4.72707 11.4062C4.98605 11.4062 5.19578 11.616 5.19578 11.875V15.2986C5.19578 15.5575 4.98602 15.7674 4.72707 15.7674ZM2.89844 15.7674C2.63945 15.7674 2.42969 15.5576 2.42969 15.2986V11.875C2.42969 11.616 2.63945 11.4062 2.89844 11.4062C3.15742 11.4062 3.36719 11.616 3.36719 11.875V15.2986C3.36719 15.5575 3.15742 15.7674 2.89844 15.7674Z" fill="#F9EAD5"/>
  <path fill-rule="evenodd" clip-rule="evenodd" d="M4.72707 14.0556H2.89844C2.63945 14.0556 2.42969 13.8459 2.42969 13.5869C2.42969 13.3279 2.63945 13.1181 2.89844 13.1181H4.72687C4.98586 13.1181 5.19563 13.3279 5.19563 13.5869C5.19563 13.8459 4.98605 14.0556 4.72707 14.0556ZM7.96715 15.7674H6.46531C6.11684 15.7674 5.83328 15.4839 5.83328 15.1354L5.83336 12.0384C5.83336 11.6898 6.11688 11.4062 6.46539 11.4062H7.96715C8.31559 11.4062 8.59918 11.6898 8.59918 12.0384V15.1354C8.5991 15.4839 8.31559 15.7674 7.96715 15.7674ZM6.77066 14.8299H7.6616V12.3438H6.77066V14.8299ZM10.0435 15.7674C9.78449 15.7674 9.57473 15.5576 9.57473 15.2986L9.57465 11.875C9.57465 11.616 9.78441 11.4062 10.0434 11.4062C10.3024 11.4062 10.5121 11.616 10.5121 11.875V15.2986C10.5122 15.5575 10.3024 15.7674 10.0435 15.7674Z" fill="#F9EAD5"/>
  <path fill-rule="evenodd" clip-rule="evenodd" d="M10.8507 12.3438H9.23824C8.97926 12.3438 8.76953 12.134 8.76953 11.875C8.76953 11.616 8.9793 11.4062 9.23828 11.4062H10.8507C11.1097 11.4062 11.3195 11.616 11.3195 11.875C11.3195 12.134 11.1097 12.3438 10.8507 12.3438ZM12.255 15.7674C11.9961 15.7674 11.7863 15.5576 11.7863 15.2986V11.875C11.7863 11.616 11.9961 11.4062 12.255 11.4062C12.514 11.4062 12.7238 11.616 12.7238 11.875V15.2986C12.7238 15.5575 12.5139 15.7674 12.255 15.7674Z" fill="#F9EAD5"/>
  <path fill-rule="evenodd" clip-rule="evenodd" d="M13.8664 12.3438H12.2539C11.9949 12.3438 11.7852 12.134 11.7852 11.875C11.7852 11.6161 11.995 11.4063 12.2539 11.4063H13.8664C14.1254 11.4063 14.3351 11.6161 14.3351 11.875C14.3351 12.134 14.1253 12.3438 13.8664 12.3438ZM13.8664 14.0557H12.2539C11.9949 14.0557 11.7852 13.8459 11.7852 13.5869C11.7852 13.3279 11.995 13.1182 12.2539 13.1182H13.8664C14.1254 13.1182 14.3351 13.3279 14.3351 13.5869C14.3351 13.8459 14.1253 14.0557 13.8664 14.0557ZM13.8664 15.7675H12.2539C11.9949 15.7675 11.7852 15.5578 11.7852 15.2988C11.7852 15.0398 11.995 14.83 12.2539 14.83H13.8664C14.1254 14.83 14.3351 15.0398 14.3351 15.2988C14.3351 15.5578 14.1253 15.7675 13.8664 15.7675ZM15.5593 15.7675C15.3003 15.7675 15.0905 15.5578 15.0905 15.2988V11.875C15.0905 11.616 15.3003 11.4062 15.5593 11.4062C15.8182 11.4062 16.028 11.616 16.028 11.875V15.2988C16.028 15.5578 15.8182 15.7676 15.5593 15.7676V15.7675Z" fill="#F9EAD5"/>
  <path fill-rule="evenodd" clip-rule="evenodd" d="M17.0978 15.7656H15.5586C15.2996 15.7656 15.0898 15.5559 15.0898 15.2969C15.0898 15.0379 15.2996 14.8281 15.5586 14.8281H17.0978C17.3568 14.8281 17.5665 15.0379 17.5665 15.2969C17.5665 15.5559 17.3566 15.7656 17.0978 15.7656Z" fill="#F9EAD5"/>
  <path fill-rule="evenodd" clip-rule="evenodd" d="M15.4549 9.37799C15.328 9.37799 15.2015 9.32686 15.109 9.2258L13.5206 7.49096C13.3457 7.29998 13.3588 7.0035 13.5497 6.82866C13.7406 6.6535 14.0372 6.6669 14.212 6.8578L15.8005 8.59268C15.9753 8.78362 15.9622 9.08014 15.7713 9.25495C15.6851 9.33427 15.5721 9.3782 15.4549 9.37799ZM4.54674 9.37799C4.43381 9.37799 4.32033 9.33737 4.23029 9.25495C4.03936 9.08014 4.02639 8.78362 4.20111 8.59268L8.83182 3.5353C9.00643 3.34436 9.30303 3.3312 9.49408 3.50616C9.68506 3.68096 9.69799 3.97748 9.52322 4.16842L4.8926 9.22584C4.84872 9.27389 4.79529 9.31224 4.73573 9.33845C4.67618 9.36465 4.61181 9.37814 4.54674 9.37803V9.37799ZM12.4128 6.05534C12.2858 6.05534 12.1593 6.00424 12.0669 5.90319L10.4784 4.1683C10.3036 3.97733 10.3166 3.68088 10.5076 3.50604C10.6986 3.33092 10.9949 3.34405 11.1698 3.53522L12.7584 5.27006C12.9332 5.461 12.9202 5.75748 12.7292 5.93233C12.6429 6.01154 12.5299 6.05542 12.4128 6.05534Z" fill="#F9EAD5"/>
  <path fill-rule="evenodd" clip-rule="evenodd" d="M10.0005 4.6416C9.06961 4.6416 8.3125 3.88445 8.3125 2.95359C8.3125 2.02273 9.06961 1.26562 10.0005 1.26562C10.9311 1.26562 11.6884 2.02273 11.6884 2.95359C11.6884 3.88445 10.9311 4.6416 10.0005 4.6416ZM10.0005 2.20312C9.58672 2.20312 9.24996 2.53984 9.24996 2.95359C9.24996 3.36734 9.58668 3.7041 10.0005 3.7041C10.4142 3.7041 10.751 3.3675 10.751 2.95359C10.751 2.53973 10.4143 2.20312 10.0005 2.20312Z" fill="#F9EAD5"/>
</svg>
