<svg xmlns="http://www.w3.org/2000/svg" width="20" height="20" viewBox="0 0 20 20" fill="none">
  <g clip-path="url(#clip0_2797_18206)">
    <path d="M5.2207 17.7706C5.34935 17.9612 5.41791 18.186 5.41754 18.4159C5.41754 19.0533 4.90152 19.5701 4.26504 19.5701C3.62855 19.5701 3.1125 19.0533 3.1125 18.4159C3.11213 18.1965 3.17452 17.9817 3.2923 17.7966M11.0628 18.2958C11.0669 18.3357 11.069 18.3758 11.069 18.4159C11.069 19.0533 10.553 19.5701 9.91648 19.5701C9.28 19.5701 8.76398 19.0533 8.76398 18.4159C8.76398 18.1881 8.82988 17.9757 8.94367 17.7968M10.1443 17.7089H2.66879C2.11402 17.7089 1.66016 17.255 1.66016 16.7003V5.60418C1.66016 5.04941 2.11406 4.59555 2.66879 4.59555H11.5127C12.0674 4.59555 12.5213 5.04945 12.5213 5.60418V8.81809M5.74977 2.26562V4.46289M8.43172 2.26562V4.46289" stroke="#F9EAD5" stroke-width="0.859375" stroke-miterlimit="10" stroke-linecap="round" stroke-linejoin="round"/>
    <path d="M4.13281 11.0911H6.9916M4.13281 12.7132H5.82793M4.13281 7.5H6.9916V9.36664H4.13281V7.5Z" stroke="#F9EAD5" stroke-width="0.859375" stroke-miterlimit="10" stroke-linecap="round" stroke-linejoin="round"/>
    <path d="M13.3678 18.7669C16.1145 18.7669 18.3411 16.5403 18.3411 13.7936C18.3411 11.0469 16.1145 8.82031 13.3678 8.82031C10.6211 8.82031 8.39453 11.0469 8.39453 13.7936C8.39453 16.5403 10.6211 18.7669 13.3678 18.7669Z" stroke="#F9EAD5" stroke-width="0.859375" stroke-miterlimit="10" stroke-linecap="round" stroke-linejoin="round"/>
    <path d="M13.3693 14.4925C13.3693 13.3007 12.4031 12.3346 11.2113 12.3346H10.732C10.6503 12.3346 10.572 12.367 10.5143 12.4247C10.4566 12.4825 10.4241 12.5608 10.4241 12.6424V13.1218C10.4241 14.3136 11.3903 15.2797 12.5821 15.2797H13.3693V14.4925ZM13.3693 14.4925C13.3693 13.3007 14.3355 12.3346 15.5273 12.3346H16.0066C16.0882 12.3346 16.1666 12.367 16.2243 12.4247C16.282 12.4825 16.3145 12.5608 16.3145 12.6424V13.1218C16.3145 14.3136 15.3483 15.2797 14.1565 15.2797H13.4084M13.3693 16.6321V15.3244M14.7765 3.04051V1.97363M16.3317 3.68395L17.0861 2.92957M16.9764 5.23863H18.0432M8.86738 2.1657H5.31641C5.05859 2.1657 4.84766 1.95477 4.84766 1.69695V0.898438C4.84766 0.640625 5.05859 0.429688 5.31641 0.429688H8.86738C9.1252 0.429688 9.33613 0.640625 9.33613 0.898438V1.69699C9.33613 1.95477 9.1252 2.1657 8.86738 2.1657Z" stroke="#F9EAD5" stroke-width="0.859375" stroke-miterlimit="10" stroke-linecap="round" stroke-linejoin="round"/>
  </g>
  <defs>
    <clipPath id="clip0_2797_18206">
      <rect width="20" height="20" fill="white"/>
    </clipPath>
  </defs>
</svg>
