<svg width="59" height="55" viewBox="0 0 59 55" fill="none" xmlns="http://www.w3.org/2000/svg">
<path d="M32.9739 33.8543C25.1629 32.3056 16.868 31.6974 9.10637 30.0208C4.30818 28.9826 1.34557 26.1945 0.740772 21.1004L3.61303 2.24622C3.79963 2.04984 5.62935 2.71747 6.01522 2.84391C11.9312 4.82989 17.9488 6.8276 23.7943 8.99748C26.4131 9.96454 28.5825 10.5715 30.4073 12.8928C31.0129 13.6641 32.2529 15.9378 32.2888 16.8498L32.9581 33.847L32.9739 33.8543Z" fill="url(#paint0_linear_1767_23595)"/>
<path d="M50.5993 52.5275L38.6109 50.4799C36.3226 49.9738 34.365 47.995 34.0196 45.5962C33.58 42.5542 33.4567 39.1736 33.2273 36.0981C33.1754 35.403 32.9178 34.6107 33.0062 33.8549C34.6689 33.9696 36.3476 33.9883 38.0192 34.0775C40.174 34.1927 43.3765 34.1711 45.4291 34.5662C47.1894 34.9077 49.9883 37.0086 50.0656 38.9716L50.5993 52.5275Z" fill="url(#paint1_linear_1767_23595)"/>
<path d="M59.7848 5.86131L60.3746 20.8419C60.3969 21.4082 59.627 23.5423 59.3582 24.2026C57.5415 28.6675 54.3893 30.7105 49.8449 31.7363C44.595 32.9137 38.8355 33.2864 33.5417 34.383C33.5287 34.0536 33.4955 33.7249 33.4926 33.395C33.4198 29.7372 33.3817 22.0562 34.7212 18.8992C35.9674 15.9522 38.5326 13.7159 41.3807 12.4687C47.1662 9.91914 53.9152 8.342 59.7949 5.86091L59.7848 5.86131Z" fill="url(#paint2_linear_1767_23595)"/>
<defs>
<linearGradient id="paint0_linear_1767_23595" x1="5.28309" y1="2.14934" x2="33.0792" y2="33.7616" gradientUnits="userSpaceOnUse">
<stop offset="0.179998" stop-color="white" stop-opacity="0.7"/>
<stop offset="1" stop-color="white" stop-opacity="0.16"/>
</linearGradient>
<linearGradient id="paint1_linear_1767_23595" x1="48.4466" y1="52.6128" x2="31.8426" y2="35.5723" gradientUnits="userSpaceOnUse">
<stop offset="0.240255" stop-color="white" stop-opacity="0.7"/>
<stop offset="1" stop-color="white" stop-opacity="0.24"/>
</linearGradient>
<linearGradient id="paint2_linear_1767_23595" x1="59.8465" y1="6.6191" x2="32.6887" y2="30.835" gradientUnits="userSpaceOnUse">
<stop stop-color="#FFB715"/>
<stop offset="1" stop-color="#F04C05" stop-opacity="0.24"/>
</linearGradient>
</defs>
</svg>
