<svg xmlns="http://www.w3.org/2000/svg" width="10" height="10" viewBox="0 0 10 10" fill="none">
  <path d="M8.10442 3.32683C7.9837 3.45149 7.86418 3.57774 7.74146 3.70041C6.87569 4.56667 6.00952 5.43253 5.14335 6.29839C4.8011 6.64051 4.45647 6.98104 4.11781 7.32635C4.02657 7.41955 3.92139 7.45539 3.79788 7.45539C3.46719 7.45579 3.1361 7.45619 2.80541 7.45539C2.62054 7.45499 2.54564 7.37852 2.54564 7.19452C2.54564 6.85837 2.54803 6.52222 2.54444 6.18647C2.54325 6.05504 2.59305 5.95428 2.68469 5.86347C3.09705 5.45483 3.50663 5.04381 3.9174 4.63358C4.31702 4.23451 4.71664 3.83623 5.11586 3.43715C5.47962 3.07352 5.84258 2.7087 6.20634 2.34507C6.34977 2.20129 6.4944 2.05871 6.63823 1.91533C6.64859 1.90497 6.65855 1.89342 6.67648 1.8739C6.64899 1.87032 6.63186 1.86634 6.61512 1.86634C5.36049 1.86634 4.10586 1.86634 2.85083 1.86713C1.97988 1.86793 1.10893 1.86992 0.238373 1.87112C0.204109 1.87112 0.169446 1.86913 0.135979 1.86196C0.000913408 1.83288 -0.0449052 1.69787 0.0507162 1.5979C0.198531 1.44336 0.351525 1.29361 0.502527 1.14227C0.832421 0.810499 1.16391 0.480325 1.4934 0.14816C1.5942 0.0462004 1.71293 0 1.85597 0C3.08151 0.00119484 4.30706 0.000796559 5.53261 0.000796559C6.69202 0.000796559 7.85143 0.000796559 9.01083 0.000796559C9.48057 0.000796559 9.85748 0.292735 9.96984 0.748765C9.98936 0.827625 9.99773 0.910865 9.99773 0.992114C9.99932 3.379 9.99892 5.76589 9.99932 8.15238C9.99932 8.28262 9.95908 8.39414 9.86505 8.48813C9.38535 8.96607 8.90724 9.44599 8.42834 9.92473C8.34666 10.0064 8.27296 10.0235 8.20522 9.96774C8.17375 9.94185 8.15184 9.89764 8.13909 9.85742C8.12674 9.81838 8.12992 9.77378 8.12992 9.73156C8.12992 7.6386 8.12992 5.54524 8.12992 3.45229C8.12992 3.41564 8.12992 3.379 8.12992 3.34196C8.12156 3.33679 8.11279 3.33201 8.10442 3.32683Z" fill="url(#paint0_linear_4002_16343)"/>
  <path d="M2.24642 8.70613C2.24642 8.93633 2.24681 9.16654 2.24642 9.39674C2.24602 9.56641 2.16235 9.65164 1.99302 9.65164C1.52965 9.65244 1.06669 9.65204 0.603322 9.65124C0.428016 9.65124 0.344746 9.5676 0.344348 9.39316C0.343551 8.93036 0.343551 8.46716 0.344348 8.00436C0.344348 7.83349 0.425626 7.75145 0.598143 7.75105C1.06669 7.74986 1.53523 7.74946 2.00338 7.75105C2.16115 7.75145 2.24602 7.84066 2.24642 7.99998C2.24681 8.23536 2.24642 8.47074 2.24642 8.70652V8.70613Z" fill="url(#paint1_linear_4002_16343)"/>
  <defs>
    <linearGradient id="paint0_linear_4002_16343" x1="-3.00072e-07" y1="10.0393" x2="9.4097" y2="3.00085" gradientUnits="userSpaceOnUse">
      <stop offset="0.517469" stop-color="#03328C"/>
      <stop offset="1" stop-color="#00804D"/>
    </linearGradient>
    <linearGradient id="paint1_linear_4002_16343" x1="0.34375" y1="9.6595" x2="2.13375" y2="8.31992" gradientUnits="userSpaceOnUse">
      <stop offset="0.517469" stop-color="#03328C"/>
      <stop offset="1" stop-color="#00804D"/>
    </linearGradient>
  </defs>
</svg>