<svg width="20" height="20" viewBox="0 0 20 20" fill="none" xmlns="http://www.w3.org/2000/svg">
<path d="M15.5917 6.01212C15.5142 5.93402 15.4221 5.87202 15.3205 5.82971C15.219 5.78741 15.11 5.76562 15 5.76562C14.89 5.76562 14.7811 5.78741 14.6796 5.82971C14.578 5.87202 14.4858 5.93402 14.4084 6.01212L8.20004 12.2288L5.59171 9.61212C5.51127 9.53442 5.41632 9.47333 5.31227 9.43233C5.20823 9.39132 5.09713 9.37121 4.98531 9.37315C4.87349 9.37508 4.76315 9.39902 4.66058 9.4436C4.55802 9.48818 4.46524 9.55252 4.38754 9.63296C4.30984 9.71339 4.24875 9.80834 4.20774 9.91239C4.16674 10.0164 4.14663 10.1275 4.14856 10.2394C4.1505 10.3512 4.17444 10.4615 4.21902 10.5641C4.2636 10.6666 4.32794 10.7594 4.40837 10.8371L7.60837 14.0371C7.68584 14.1152 7.77801 14.1772 7.87956 14.2195C7.98111 14.2618 8.09003 14.2836 8.20004 14.2836C8.31005 14.2836 8.41897 14.2618 8.52052 14.2195C8.62207 14.1772 8.71424 14.1152 8.79171 14.0371L15.5917 7.23712C15.6763 7.15909 15.7438 7.06438 15.79 6.95896C15.8361 6.85355 15.86 6.73971 15.86 6.62462C15.86 6.50954 15.8361 6.3957 15.79 6.29028C15.7438 6.18487 15.6763 6.09016 15.5917 6.01212Z" fill="#158E5C"/>
</svg>
