<svg width="20" height="20" viewBox="0 0 20 20" fill="none" xmlns="http://www.w3.org/2000/svg">
<path d="M13.094 13.975L6.0229 6.90395C5.78131 6.66236 5.78131 6.26166 6.0229 6.02007C6.2645 5.77847 6.66519 5.77847 6.90679 6.02007L13.9779 13.0911C14.2194 13.3327 14.2194 13.7334 13.9779 13.975C13.7363 14.2166 13.3356 14.2166 13.094 13.975Z" fill="#F04C05"/>
<path d="M6.02215 13.975C5.78055 13.7334 5.78055 13.3327 6.02215 13.0911L13.0932 6.02007C13.3348 5.77847 13.7355 5.77847 13.9771 6.02007C14.2187 6.26166 14.2187 6.66236 13.9771 6.90395L6.90603 13.975C6.66444 14.2166 6.26374 14.2166 6.02215 13.975Z" fill="#F04C05"/>
</svg>
