<svg width="81" height="55" viewBox="0 0 81 55" fill="none" xmlns="http://www.w3.org/2000/svg">
<path d="M71.927 5.14194L80.4269 26.0969L10.5911 54.4242L10.59 54.4214L15.1364 52.5773L8.50501 49.2813L2.09155 33.47L4.55504 26.4829L65.2943 1.84545L71.927 5.14194ZM75.8747 27.9424L80.4238 26.0971L78.3385 20.9561L75.8747 27.9424Z" fill="url(#paint0_linear_1426_20055)"/>
<g filter="url(#filter0_g_1426_20055)">
<path d="M16.2747 31.2225L17.3688 33.9198L14.5935 35.0455L15.2575 36.6826C15.97 36.0668 16.833 35.5533 17.5818 35.3404L18.6443 37.9597L18.5108 38.1228C17.8424 38.1761 17.0316 38.5049 16.2504 39.1305L16.8323 40.5649L19.6075 39.4391L20.7016 42.1365L14.964 44.4638L10.537 33.5498L16.2747 31.2225ZM21.3223 41.8847L21.1389 41.4326L20.9165 35.5129L17.2346 31.3597L17.0512 30.9075L20.1227 29.6616L22.7446 32.992L22.9317 32.9161L22.5082 28.694L25.5641 27.4545L25.7475 27.9066L26.0928 33.4132L29.9636 37.853L30.147 38.3052L27.0911 39.5447L24.3483 36.4086L24.1612 36.4845L24.3938 40.6388L21.3223 41.8847ZM30.8593 38.0162L26.4323 27.1023L30.5329 25.439C32.513 24.6358 34.2371 25.1711 35.2933 27.7749C36.3368 30.3474 35.2772 32.2116 33.5622 32.9073L32.424 33.3689L33.8217 36.8146L30.8593 38.0162ZM31.3932 30.8275L32.0324 30.5682C32.5781 30.3469 32.5375 29.7097 32.3035 29.1328C32.0695 28.5559 31.6737 28.1173 31.128 28.3387L30.4888 28.598L31.3932 30.8275ZM34.6769 23.7581L37.6393 22.5565L40.9721 30.7731L43.1861 29.8751L44.2802 32.5724L39.1039 34.672L34.6769 23.7581ZM42.3859 26.9859C40.7795 23.0257 42.2481 20.4691 44.6648 19.4889C47.0814 18.5086 49.9161 19.3197 51.5224 23.2799C53.1288 27.2401 51.6602 29.7968 49.2435 30.777C46.8269 31.7573 43.9922 30.9462 42.3859 26.9859ZM45.4574 25.7401C46.2036 27.5799 47.2788 28.3058 48.1052 27.9706C48.9471 27.6291 49.2284 26.3529 48.4821 24.5132C47.7169 22.6266 46.6295 21.9601 45.8031 22.2953C44.9768 22.6305 44.7048 23.8847 45.4574 25.7401ZM50.4511 17.3596L54.6764 15.6458C56.5474 14.8868 58.3996 15.4247 59.3166 17.6854C59.8858 19.0886 59.7074 20.3049 59.1024 21.1858L62.1942 24.7795L62.3776 25.2316L59.2749 26.4902L56.5767 22.882L56.2181 23.0275L57.8561 27.0657L54.8469 28.2863L50.4511 17.3596ZM55.2466 20.4983L56.0262 20.1821C56.4784 19.9987 56.4635 19.5145 56.2675 19.0312C56.1094 18.6414 55.8017 18.3304 55.3495 18.5138L54.5699 18.83L55.2466 20.4983ZM64.798 11.5402L65.8921 14.2375L63.1168 15.3632L63.7809 17.0003C64.4934 16.3845 65.3564 15.871 66.1052 15.6581L67.1677 18.2774L67.0341 18.4405C66.3657 18.4938 65.555 18.8226 64.7738 19.4481L65.3556 20.8826L68.1309 19.7568L69.225 22.4541L63.4874 24.7815L59.0604 13.8675L64.798 11.5402Z" fill="white"/>
</g>
<defs>
<filter id="filter0_g_1426_20055" x="10.2556" y="11.1462" width="59.2506" height="33.7115" filterUnits="userSpaceOnUse" color-interpolation-filters="sRGB">
<feFlood flood-opacity="0" result="BackgroundImageFix"/>
<feBlend mode="normal" in="SourceGraphic" in2="BackgroundImageFix" result="shape"/>
<feTurbulence type="fractalNoise" baseFrequency="0.76415914297103882 0.76415914297103882" numOctaves="3" seed="4167" />
<feDisplacementMap in="shape" scale="0.41076633334159851" xChannelSelector="R" yChannelSelector="G" result="displacedImage" width="100%" height="100%" />
<feMerge result="effect1_texture_1426_20055">
<feMergeNode in="displacedImage"/>
</feMerge>
</filter>
<linearGradient id="paint0_linear_1426_20055" x1="22.4165" y1="49.2356" x2="21.0161" y2="9.87808" gradientUnits="userSpaceOnUse">
<stop offset="0.02" stop-color="#00804D"/>
<stop offset="1" stop-color="#03328C"/>
</linearGradient>
</defs>
</svg>
