<svg width="149" height="113" viewBox="0 0 149 113" fill="none" xmlns="http://www.w3.org/2000/svg">
<g filter="url(#filter0_dn_1217_17094)">
<path d="M141.332 29.9965L132.978 28.3515L139.883 37.3552L135.428 59.9852L125.626 65.6981L14.0788 43.7345L7.17347 34.7309L11.6292 12.1009L21.4324 6.38714L141.332 29.9955L141.332 29.9965Z" fill="#F9B833"/>
<g filter="url(#filter1_g_1217_17094)">
<path d="M18.171 33.4545L21.2464 17.8351L27.5164 19.0697L26.7488 26.382L26.8158 26.3952L28.8329 19.3289L35.1029 20.5635L32.0276 36.1828L27.9219 35.3744L29.927 25.7793L29.7485 25.7442L26.4046 35.0757L23.8163 34.566L24.2595 24.6634L24.081 24.6283L22.299 34.2673L18.171 33.4545ZM45.8768 32.9761C45.0157 37.3495 41.8253 38.367 39.1477 37.8398C36.5148 37.3213 33.9483 35.1703 34.8094 30.7969L36.7601 20.8898L41.0665 21.7377L39.2433 30.9978C39.006 32.2027 38.9067 33.2957 40.0001 33.511C41.0934 33.7262 41.4605 32.686 41.6977 31.481L43.521 22.221L47.8275 23.069L45.8768 32.9761ZM49.4431 23.3871L53.6826 24.2218L51.3673 35.981L54.5358 36.6048L53.7757 40.465L46.3677 39.0064L49.4431 23.3871ZM65.4673 26.5423L64.6941 30.4694L62.1727 29.9729L59.8705 41.6651L55.631 40.8304L57.9332 29.1382L55.3002 28.6197L56.0734 24.6926L65.4673 26.5423ZM66.5049 26.7466L70.7444 27.5813L67.669 43.2006L63.4295 42.3659L66.5049 26.7466ZM70.381 35.6222C71.4749 30.0662 75.2247 28.2085 78.6833 28.8895C80.3568 29.219 81.3531 29.8093 81.7693 30.2852L80.9741 34.324L80.4832 34.2273C80.2412 33.8088 79.6772 33.1415 78.7847 32.9657C76.8657 32.5879 75.3127 33.7655 74.7767 36.4877C74.2407 39.2099 75.2314 40.8884 77.1503 41.2663C78.0652 41.4464 78.8177 41.0383 79.2004 40.7428L79.6913 40.8394L78.8961 44.8782C78.3305 45.1608 77.1848 45.3293 75.5336 45.0041C72.1196 44.3319 69.287 41.1782 70.381 35.6222ZM81.189 37.7503C82.3049 32.0827 85.8586 30.2792 89.3172 30.9602C92.7757 31.6412 95.3805 34.6573 94.2646 40.3249C93.1486 45.9925 89.5949 47.796 86.1364 47.115C82.6778 46.434 80.0731 43.4179 81.189 37.7503ZM85.5847 38.6158C85.0663 41.2488 85.7446 42.8658 86.9272 43.0986C88.1321 43.3359 89.3951 42.1011 89.9135 39.4682C90.4451 36.7682 89.709 35.2094 88.5264 34.9766C87.3438 34.7437 86.1075 35.9605 85.5847 38.6158ZM96.946 32.7404L101.186 33.5752L98.8702 45.3343L102.039 45.9582L101.279 49.8184L93.8706 48.3597L96.946 32.7404ZM102.827 42.0108C103.943 36.3432 107.496 34.5397 110.955 35.2207C114.414 35.9017 117.018 38.9178 115.902 44.5854C114.786 50.253 111.233 52.0565 107.774 51.3755C104.316 50.6945 101.711 47.6784 102.827 42.0108ZM107.222 42.8763C106.704 45.5093 107.382 47.1263 108.565 47.3591C109.77 47.5964 111.033 46.3616 111.551 43.7286C112.083 41.0287 111.347 39.4699 110.164 39.2371C108.982 39.0042 107.745 40.221 107.222 42.8763ZM118.628 37.0097L124.675 38.2003C127.353 38.7276 129.049 40.7072 128.412 43.9427C128.017 45.9509 126.914 47.194 125.578 47.7421L126.413 54.0952L126.286 54.7423L121.845 53.868L121.466 47.7901L120.953 47.689L119.815 53.4682L115.508 52.6202L118.628 37.0097ZM121.727 44.1098L122.843 44.3295C123.49 44.4569 123.832 43.8983 123.968 43.2066C124.078 42.6488 123.96 42.0693 123.313 41.9419L122.197 41.7223L121.727 44.1098Z" fill="#120806"/>
</g>
</g>
<defs>
<filter id="filter0_dn_1217_17094" x="-1.44916" y="0.00127512" width="149.956" height="120.887" filterUnits="userSpaceOnUse" color-interpolation-filters="sRGB">
<feFlood flood-opacity="0" result="BackgroundImageFix"/>
<feColorMatrix in="SourceAlpha" type="matrix" values="0 0 0 0 0 0 0 0 0 0 0 0 0 0 0 0 0 0 127 0" result="hardAlpha"/>
<feOffset dy="0.788326"/>
<feGaussianBlur stdDeviation="3.58688"/>
<feComposite in2="hardAlpha" operator="out"/>
<feColorMatrix type="matrix" values="0 0 0 0 0 0 0 0 0 0 0 0 0 0 0 0 0 0 0.05 0"/>
<feBlend mode="normal" in2="BackgroundImageFix" result="effect1_dropShadow_1217_17094"/>
<feBlend mode="normal" in="SourceGraphic" in2="BackgroundImageFix" result="shape"/>
<feTurbulence type="fractalNoise" baseFrequency="4.3226866722106934 4.3226866722106934" stitchTiles="stitch" numOctaves="3" result="noise" seed="9675" />
<feColorMatrix in="noise" type="luminanceToAlpha" result="alphaNoise" />
<feComponentTransfer in="alphaNoise" result="coloredNoise1">
<feFuncA type="discrete" tableValues="1 1 1 1 1 1 1 1 1 1 1 1 1 1 1 1 1 1 1 1 1 1 1 1 1 1 1 1 1 1 1 1 1 1 1 1 1 1 1 1 1 1 1 1 1 1 1 1 1 1 1 0 0 0 0 0 0 0 0 0 0 0 0 0 0 0 0 0 0 0 0 0 0 0 0 0 0 0 0 0 0 0 0 0 0 0 0 0 0 0 0 0 0 0 0 0 0 0 0 0 "/>
</feComponentTransfer>
<feComposite operator="in" in2="shape" in="coloredNoise1" result="noise1Clipped" />
<feFlood flood-color="rgba(235, 214, 167, 0.25)" result="color1Flood" />
<feComposite operator="in" in2="noise1Clipped" in="color1Flood" result="color1" />
<feMerge result="effect2_noise_1217_17094">
<feMergeNode in="shape" />
<feMergeNode in="color1" />
</feMerge>
<feBlend mode="normal" in="effect2_noise_1217_17094" in2="effect1_dropShadow_1217_17094" result="effect2_noise_1217_17094"/>
</filter>
<filter id="filter1_g_1217_17094" x="17.8406" y="17.2888" width="111.851" height="38.0005" filterUnits="userSpaceOnUse" color-interpolation-filters="sRGB">
<feFlood flood-opacity="0" result="BackgroundImageFix"/>
<feBlend mode="normal" in="SourceGraphic" in2="BackgroundImageFix" result="shape"/>
<feTurbulence type="fractalNoise" baseFrequency="0.56535488367080688 0.56535488367080688" numOctaves="3" seed="4167" />
<feDisplacementMap in="shape" scale="0.55521035194396973" xChannelSelector="R" yChannelSelector="G" result="displacedImage" width="100%" height="100%" />
<feMerge result="effect1_texture_1217_17094">
<feMergeNode in="displacedImage"/>
</feMerge>
</filter>
</defs>
</svg>
