<svg width="1103" height="223" viewBox="0 0 1103 223" fill="none" xmlns="http://www.w3.org/2000/svg">
<g filter="url(#filter0_gn_1217_23859)">
<mask id="path-1-outside-1_1217_23859" maskUnits="userSpaceOnUse" x="1.12988" y="41" width="1100" height="172" fill="black">
<rect fill="white" x="1.12988" y="41" width="1100" height="172"/>
<path d="M98.6819 48.9V81.458H70.5839V205H35.3499V81.458H6.35988V48.9H98.6819ZM111.302 48.9H169.282C195.819 48.9 215.666 64.733 215.666 96.622C215.666 118.03 206.077 132.525 192.697 139.884L215.666 199.425V205H178.871L159.916 145.905H146.536V205H110.856L111.302 48.9ZM146.536 115.8H164.599C173.742 115.8 179.094 108.441 179.094 97.96C179.094 87.702 173.742 81.012 164.599 81.012H146.536V115.8ZM220.187 205V199.425L251.184 48.9L310.502 49.123L341.499 199.425V205H304.704L299.129 169.543H262.557L256.982 205H220.187ZM267.24 138.769H294.446L285.526 82.35H276.16L267.24 138.769ZM352.585 205V48.9H405.882L421.269 138.1H422.607L437.771 48.9H491.068V205H456.726L457.841 97.514H455.611L434.203 205H409.45L388.042 97.514H385.812L386.927 205H352.585ZM511.342 205V48.9H567.092C595.413 48.9 614.591 64.064 614.591 100.636C614.591 136.762 592.514 154.379 567.092 154.379H546.576V205H511.342ZM546.576 124.051H561.74C572.444 124.051 578.465 114.908 578.465 102.197C578.465 89.709 572.444 81.012 561.74 81.012H546.576V124.051ZM697.479 48.9H733.159V205H697.479V142.783H661.353V205H625.673V48.9H661.353V111.117H697.479V48.9ZM860.769 149.696C860.769 192.735 832.225 207.453 806.58 207.453C780.935 207.453 752.391 192.735 752.391 149.696V48.9H788.071V144.79C788.071 160.4 792.977 171.773 806.58 171.773C819.737 171.773 825.089 160.4 825.089 144.79V48.9H860.769V149.696ZM874.239 126.95C874.239 70.308 905.013 46.224 939.578 46.224C974.143 46.224 1004.92 70.308 1004.92 126.95C1004.92 183.592 974.143 207.676 939.578 207.676C905.013 207.676 874.239 183.592 874.239 126.95ZM910.811 126.95C910.811 158.17 923.522 174.226 939.578 174.226C955.634 174.226 968.791 158.17 968.791 126.95C968.791 95.284 955.411 79.674 939.578 79.674C923.522 79.674 910.811 95.73 910.811 126.95ZM1096.08 48.9V81.458H1067.99V205H1032.75V81.458H1003.76V48.9H1096.08Z"/>
</mask>
<path d="M98.6819 48.9H103.196V44.3854H98.6819V48.9ZM98.6819 81.458V85.9726H103.196V81.458H98.6819ZM70.5839 81.458V76.9435H66.0693V81.458H70.5839ZM70.5839 205V209.515H75.0984V205H70.5839ZM35.3499 205H30.8353V209.515H35.3499V205ZM35.3499 81.458H39.8644V76.9435H35.3499V81.458ZM6.35988 81.458H1.84533V85.9726H6.35988V81.458ZM6.35988 48.9V44.3854H1.84533V48.9H6.35988ZM98.6819 48.9H94.1673V81.458H98.6819H103.196V48.9H98.6819ZM98.6819 81.458V76.9435H70.5839V81.458V85.9726H98.6819V81.458ZM70.5839 81.458H66.0693V205H70.5839H75.0984V81.458H70.5839ZM70.5839 205V200.485H35.3499V205V209.515H70.5839V205ZM35.3499 205H39.8644V81.458H35.3499H30.8353V205H35.3499ZM35.3499 81.458V76.9435H6.35988V81.458V85.9726H35.3499V81.458ZM6.35988 81.458H10.8744V48.9H6.35988H1.84533V81.458H6.35988ZM6.35988 48.9V53.4146H98.6819V48.9V44.3854H6.35988V48.9ZM111.302 48.9V44.3854H106.801L106.788 48.8871L111.302 48.9ZM192.697 139.884L190.522 135.928L187.066 137.829L188.485 141.509L192.697 139.884ZM215.666 199.425H220.181V198.584L219.878 197.8L215.666 199.425ZM215.666 205V209.515H220.181V205H215.666ZM178.871 205L174.572 206.379L175.578 209.515H178.871V205ZM159.916 145.905L164.215 144.526L163.209 141.39H159.916V145.905ZM146.536 145.905V141.39H142.022V145.905H146.536ZM146.536 205V209.515H151.051V205H146.536ZM110.856 205L106.342 204.987L106.329 209.515H110.856V205ZM146.536 115.8H142.022V120.315H146.536V115.8ZM146.536 81.012V76.4974H142.022V81.012H146.536ZM111.302 48.9V53.4146H169.282V48.9V44.3854H111.302V48.9ZM169.282 48.9V53.4146C181.67 53.4146 192.047 57.0999 199.3 64.06C206.517 70.9853 211.152 81.6417 211.152 96.622H215.666H220.181C220.181 79.7133 214.892 66.5088 205.551 57.5452C196.247 48.6166 183.431 44.3854 169.282 44.3854V48.9ZM215.666 96.622H211.152C211.152 116.531 202.335 129.431 190.522 135.928L192.697 139.884L194.873 143.84C209.82 135.619 220.181 119.529 220.181 96.622H215.666ZM192.697 139.884L188.485 141.509L211.454 201.05L215.666 199.425L219.878 197.8L196.909 138.259L192.697 139.884ZM215.666 199.425H211.152V205H215.666H220.181V199.425H215.666ZM215.666 205V200.485H178.871V205V209.515H215.666V205ZM178.871 205L183.17 203.621L164.215 144.526L159.916 145.905L155.617 147.284L174.572 206.379L178.871 205ZM159.916 145.905V141.39H146.536V145.905V150.42H159.916V145.905ZM146.536 145.905H142.022V205H146.536H151.051V145.905H146.536ZM146.536 205V200.485H110.856V205V209.515H146.536V205ZM110.856 205L115.371 205.013L115.817 48.9129L111.302 48.9L106.788 48.8871L106.342 204.987L110.856 205ZM146.536 115.8V120.315H164.599V115.8V111.285H146.536V115.8ZM164.599 115.8V120.315C170.512 120.315 175.459 117.873 178.822 113.604C182.092 109.451 183.609 103.916 183.609 97.96H179.094H174.58C174.58 102.485 173.42 105.87 171.729 108.017C170.13 110.047 167.83 111.285 164.599 111.285V115.8ZM179.094 97.96H183.609C183.609 92.0917 182.079 86.7211 178.733 82.7363C175.306 78.6545 170.361 76.4974 164.599 76.4974V81.012V85.5266C167.981 85.5266 170.283 86.7145 171.818 88.5422C173.434 90.4669 174.58 93.5703 174.58 97.96H179.094ZM164.599 81.012V76.4974H146.536V81.012V85.5266H164.599V81.012ZM146.536 81.012H142.022V115.8H146.536H151.051V81.012H146.536ZM220.187 205H215.673V209.515H220.187V205ZM220.187 199.425L215.765 198.514L215.673 198.965V199.425H220.187ZM251.184 48.9L251.201 44.3855L247.507 44.3716L246.762 47.9894L251.184 48.9ZM310.502 49.123L314.924 48.2111L314.184 44.6223L310.519 44.6085L310.502 49.123ZM341.499 199.425H346.014V198.964L345.921 198.513L341.499 199.425ZM341.499 205V209.515H346.014V205H341.499ZM304.704 205L300.244 205.701L300.844 209.515H304.704V205ZM299.129 169.543L303.589 168.842L302.989 165.028H299.129V169.543ZM262.557 169.543V165.028H258.697L258.097 168.842L262.557 169.543ZM256.982 205V209.515H260.842L261.442 205.701L256.982 205ZM267.24 138.769L262.781 138.064L261.956 143.284H267.24V138.769ZM294.446 138.769V143.284H299.731L298.905 138.064L294.446 138.769ZM285.526 82.35L289.985 81.645L289.383 77.8355H285.526V82.35ZM276.16 82.35V77.8355H272.303L271.701 81.645L276.16 82.35ZM220.187 205H224.702V199.425H220.187H215.673V205H220.187ZM220.187 199.425L224.609 200.336L255.606 49.8106L251.184 48.9L246.762 47.9894L215.765 198.514L220.187 199.425ZM251.184 48.9L251.167 53.4145L310.485 53.6375L310.502 49.123L310.519 44.6085L251.201 44.3855L251.184 48.9ZM310.502 49.123L306.081 50.0349L337.078 200.337L341.499 199.425L345.921 198.513L314.924 48.2111L310.502 49.123ZM341.499 199.425H336.985V205H341.499H346.014V199.425H341.499ZM341.499 205V200.485H304.704V205V209.515H341.499V205ZM304.704 205L309.164 204.299L303.589 168.842L299.129 169.543L294.669 170.244L300.244 205.701L304.704 205ZM299.129 169.543V165.028H262.557V169.543V174.058H299.129V169.543ZM262.557 169.543L258.097 168.842L252.522 204.299L256.982 205L261.442 205.701L267.017 170.244L262.557 169.543ZM256.982 205V200.485H220.187V205V209.515H256.982V205ZM267.24 138.769V143.284H294.446V138.769V134.254H267.24V138.769ZM294.446 138.769L298.905 138.064L289.985 81.645L285.526 82.35L281.067 83.055L289.987 139.474L294.446 138.769ZM285.526 82.35V77.8355H276.16V82.35V86.8646H285.526V82.35ZM276.16 82.35L271.701 81.645L262.781 138.064L267.24 138.769L271.699 139.474L280.619 83.055L276.16 82.35ZM352.585 205H348.07V209.515H352.585V205ZM352.585 48.9V44.3854H348.07V48.9H352.585ZM405.882 48.9L410.331 48.1326L409.684 44.3854H405.882V48.9ZM421.269 138.1L416.82 138.867L417.466 142.615H421.269V138.1ZM422.607 138.1V142.615H426.419L427.057 138.857L422.607 138.1ZM437.771 48.9V44.3854H433.959L433.32 48.1434L437.771 48.9ZM491.068 48.9H495.582V44.3854H491.068V48.9ZM491.068 205V209.515H495.582V205H491.068ZM456.726 205L452.211 204.953L452.164 209.515H456.726V205ZM457.841 97.514L462.355 97.5608L462.402 92.9995H457.841V97.514ZM455.611 97.514V92.9995H451.907L451.183 96.6322L455.611 97.514ZM434.203 205V209.515H437.907L438.63 205.882L434.203 205ZM409.45 205L405.022 205.882L405.746 209.515H409.45V205ZM388.042 97.514L392.469 96.6322L391.746 92.9995H388.042V97.514ZM385.812 97.514V92.9995H381.25L381.297 97.5608L385.812 97.514ZM386.927 205V209.515H391.488L391.441 204.953L386.927 205ZM352.585 205H357.099V48.9H352.585H348.07V205H352.585ZM352.585 48.9V53.4146H405.882V48.9V44.3854H352.585V48.9ZM405.882 48.9L401.433 49.6674L416.82 138.867L421.269 138.1L425.718 137.333L410.331 48.1326L405.882 48.9ZM421.269 138.1V142.615H422.607V138.1V133.585H421.269V138.1ZM422.607 138.1L427.057 138.857L442.221 49.6566L437.771 48.9L433.32 48.1434L418.156 137.343L422.607 138.1ZM437.771 48.9V53.4146H491.068V48.9V44.3854H437.771V48.9ZM491.068 48.9H486.553V205H491.068H495.582V48.9H491.068ZM491.068 205V200.485H456.726V205V209.515H491.068V205ZM456.726 205L461.24 205.047L462.355 97.5608L457.841 97.514L453.326 97.4672L452.211 204.953L456.726 205ZM457.841 97.514V92.9995H455.611V97.514V102.029H457.841V97.514ZM455.611 97.514L451.183 96.6322L429.775 204.118L434.203 205L438.63 205.882L460.038 98.3958L455.611 97.514ZM434.203 205V200.485H409.45V205V209.515H434.203V205ZM409.45 205L413.877 204.118L392.469 96.6322L388.042 97.514L383.614 98.3958L405.022 205.882L409.45 205ZM388.042 97.514V92.9995H385.812V97.514V102.029H388.042V97.514ZM385.812 97.514L381.297 97.5608L382.412 205.047L386.927 205L391.441 204.953L390.326 97.4672L385.812 97.514ZM386.927 205V200.485H352.585V205V209.515H386.927V205ZM511.342 205H506.827V209.515H511.342V205ZM511.342 48.9V44.3854H506.827V48.9H511.342ZM546.576 154.379V149.864H542.061V154.379H546.576ZM546.576 205V209.515H551.09V205H546.576ZM546.576 124.051H542.061V128.566H546.576V124.051ZM546.576 81.012V76.4974H542.061V81.012H546.576ZM511.342 205H515.856V48.9H511.342H506.827V205H511.342ZM511.342 48.9V53.4146H567.092V48.9V44.3854H511.342V48.9ZM567.092 48.9V53.4146C580.482 53.4146 591.038 56.9906 598.264 64.2404C605.488 71.4886 610.076 83.1037 610.076 100.636H614.591H619.105C619.105 81.5963 614.104 67.3434 604.659 57.8666C595.216 48.3914 582.022 44.3854 567.092 44.3854V48.9ZM614.591 100.636H610.076C610.076 117.759 604.865 129.983 597.142 137.903C589.405 145.839 578.753 149.864 567.092 149.864V154.379V158.894C580.852 158.894 593.95 154.111 603.607 144.206C613.278 134.287 619.105 119.639 619.105 100.636H614.591ZM567.092 154.379V149.864H546.576V154.379V158.894H567.092V154.379ZM546.576 154.379H542.061V205H546.576H551.09V154.379H546.576ZM546.576 205V200.485H511.342V205V209.515H546.576V205ZM546.576 124.051V128.566H561.74V124.051V119.536H546.576V124.051ZM561.74 124.051V128.566C568.548 128.566 574.073 125.58 577.756 120.562C581.33 115.691 582.979 109.197 582.979 102.197H578.465H573.95C573.95 107.908 572.589 112.341 570.476 115.22C568.472 117.951 565.635 119.536 561.74 119.536V124.051ZM578.465 102.197H582.979C582.979 95.2923 581.322 88.934 577.708 84.1871C573.987 79.2988 568.461 76.4974 561.74 76.4974V81.012V85.5266C565.722 85.5266 568.558 87.0737 570.524 89.6559C572.597 92.3795 573.95 96.6137 573.95 102.197H578.465ZM561.74 81.012V76.4974H546.576V81.012V85.5266H561.74V81.012ZM546.576 81.012H542.061V124.051H546.576H551.09V81.012H546.576ZM697.479 48.9V44.3854H692.964V48.9H697.479ZM733.159 48.9H737.673V44.3854H733.159V48.9ZM733.159 205V209.515H737.673V205H733.159ZM697.479 205H692.964V209.515H697.479V205ZM697.479 142.783H701.993V138.268H697.479V142.783ZM661.353 142.783V138.268H656.838V142.783H661.353ZM661.353 205V209.515H665.867V205H661.353ZM625.673 205H621.158V209.515H625.673V205ZM625.673 48.9V44.3854H621.158V48.9H625.673ZM661.353 48.9H665.867V44.3854H661.353V48.9ZM661.353 111.117H656.838V115.632H661.353V111.117ZM697.479 111.117V115.632H701.993V111.117H697.479ZM697.479 48.9V53.4146H733.159V48.9V44.3854H697.479V48.9ZM733.159 48.9H728.644V205H733.159H737.673V48.9H733.159ZM733.159 205V200.485H697.479V205V209.515H733.159V205ZM697.479 205H701.993V142.783H697.479H692.964V205H697.479ZM697.479 142.783V138.268H661.353V142.783V147.298H697.479V142.783ZM661.353 142.783H656.838V205H661.353H665.867V142.783H661.353ZM661.353 205V200.485H625.673V205V209.515H661.353V205ZM625.673 205H630.187V48.9H625.673H621.158V205H625.673ZM625.673 48.9V53.4146H661.353V48.9V44.3854H625.673V48.9ZM661.353 48.9H656.838V111.117H661.353H665.867V48.9H661.353ZM661.353 111.117V115.632H697.479V111.117V106.602H661.353V111.117ZM697.479 111.117H701.993V48.9H697.479H692.964V111.117H697.479ZM752.391 48.9V44.3854H747.876V48.9H752.391ZM788.071 48.9H792.585V44.3854H788.071V48.9ZM825.089 48.9V44.3854H820.574V48.9H825.089ZM860.769 48.9H865.283V44.3854H860.769V48.9ZM860.769 149.696H856.254C856.254 170.142 849.52 183.255 840.316 191.318C830.998 199.481 818.607 202.938 806.58 202.938V207.453V211.968C820.198 211.968 834.901 208.066 846.266 198.11C857.745 188.054 865.283 172.289 865.283 149.696H860.769ZM806.58 207.453V202.938C794.552 202.938 782.161 199.481 772.843 191.318C763.639 183.255 756.905 170.142 756.905 149.696H752.391H747.876C747.876 172.289 755.414 188.054 766.893 198.11C778.258 208.066 792.962 211.968 806.58 211.968V207.453ZM752.391 149.696H756.905V48.9H752.391H747.876V149.696H752.391ZM752.391 48.9V53.4146H788.071V48.9V44.3854H752.391V48.9ZM788.071 48.9H783.556V144.79H788.071H792.585V48.9H788.071ZM788.071 144.79H783.556C783.556 152.928 784.81 160.655 788.371 166.488C792.142 172.665 798.252 176.288 806.58 176.288V171.773V167.258C801.304 167.258 798.16 165.194 796.077 161.783C793.784 158.026 792.585 152.262 792.585 144.79H788.071ZM806.58 171.773V176.288C814.726 176.288 820.799 172.633 824.601 166.52C828.219 160.705 829.603 152.987 829.603 144.79H825.089H820.574C820.574 152.203 819.283 157.976 816.935 161.751C814.772 165.227 811.591 167.258 806.58 167.258V171.773ZM825.089 144.79H829.603V48.9H825.089H820.574V144.79H825.089ZM825.089 48.9V53.4146H860.769V48.9V44.3854H825.089V48.9ZM860.769 48.9H856.254V149.696H860.769H865.283V48.9H860.769ZM874.239 126.95H878.754C878.754 99.4313 886.219 80.4526 897.274 68.3975C908.309 56.364 923.365 50.7386 939.578 50.7386V46.224V41.7095C921.227 41.7095 903.613 48.126 890.62 62.295C877.646 76.4424 869.725 97.8267 869.725 126.95H874.239ZM939.578 46.224V50.7386C955.792 50.7386 970.847 56.364 981.882 68.3975C992.937 80.4526 1000.4 99.4313 1000.4 126.95H1004.92H1009.43C1009.43 97.8267 1001.51 76.4424 988.537 62.295C975.544 48.126 957.93 41.7095 939.578 41.7095V46.224ZM1004.92 126.95H1000.4C1000.4 154.469 992.937 173.447 981.882 185.503C970.847 197.536 955.792 203.161 939.578 203.161V207.676V212.191C957.93 212.191 975.544 205.774 988.537 191.605C1001.51 177.458 1009.43 156.073 1009.43 126.95H1004.92ZM939.578 207.676V203.161C923.365 203.161 908.309 197.536 897.274 185.503C886.219 173.447 878.754 154.469 878.754 126.95H874.239H869.725C869.725 156.073 877.646 177.458 890.62 191.605C903.613 205.774 921.227 212.191 939.578 212.191V207.676ZM910.811 126.95H906.297C906.297 143.099 909.573 155.877 915.397 164.769C921.307 173.792 929.838 178.741 939.578 178.741V174.226V169.711C933.262 169.711 927.41 166.632 922.95 159.822C918.405 152.881 915.326 142.021 915.326 126.95H910.811ZM939.578 174.226V178.741C949.3 178.741 957.933 173.811 963.958 164.806C969.906 155.915 973.306 143.127 973.306 126.95H968.791H964.277C964.277 141.993 961.098 152.843 956.453 159.785C951.886 166.613 945.912 169.711 939.578 169.711V174.226ZM968.791 126.95H973.306C973.306 110.548 969.85 97.7489 963.86 88.9056C957.793 79.9473 949.157 75.1594 939.578 75.1594V79.674V84.1886C945.833 84.1886 951.803 87.2057 956.384 93.9689C961.043 100.847 964.277 111.686 964.277 126.95H968.791ZM939.578 79.674V75.1594C929.838 75.1594 921.307 80.1079 915.397 89.1311C909.573 98.0231 906.297 110.801 906.297 126.95H910.811H915.326C915.326 111.879 918.405 101.019 922.95 94.078C927.41 87.2681 933.262 84.1886 939.578 84.1886V79.674ZM1096.08 48.9H1100.6V44.3854H1096.08V48.9ZM1096.08 81.458V85.9726H1100.6V81.458H1096.08ZM1067.99 81.458V76.9435H1063.47V81.458H1067.99ZM1067.99 205V209.515H1072.5V205H1067.99ZM1032.75 205H1028.24V209.515H1032.75V205ZM1032.75 81.458H1037.27V76.9435H1032.75V81.458ZM1003.76 81.458H999.248V85.9726H1003.76V81.458ZM1003.76 48.9V44.3854H999.248V48.9H1003.76ZM1096.08 48.9H1091.57V81.458H1096.08H1100.6V48.9H1096.08ZM1096.08 81.458V76.9435H1067.99V81.458V85.9726H1096.08V81.458ZM1067.99 81.458H1063.47V205H1067.99H1072.5V81.458H1067.99ZM1067.99 205V200.485H1032.75V205V209.515H1067.99V205ZM1032.75 205H1037.27V81.458H1032.75H1028.24V205H1032.75ZM1032.75 81.458V76.9435H1003.76V81.458V85.9726H1032.75V81.458ZM1003.76 81.458H1008.28V48.9H1003.76H999.248V81.458H1003.76ZM1003.76 48.9V53.4146H1096.08V48.9V44.3854H1003.76V48.9Z" fill="white" mask="url(#path-1-outside-1_1217_23859)"/>
</g>
<defs>
<filter id="filter0_gn_1217_23859" x="0.000409484" y="39.8656" width="1102.44" height="174.171" filterUnits="userSpaceOnUse" color-interpolation-filters="sRGB">
<feFlood flood-opacity="0" result="BackgroundImageFix"/>
<feBlend mode="normal" in="SourceGraphic" in2="BackgroundImageFix" result="shape"/>
<feTurbulence type="fractalNoise" baseFrequency="0.077417023479938507 0.077417023479938507" numOctaves="3" seed="4167" />
<feDisplacementMap in="shape" scale="3.6905872821807861" xChannelSelector="R" yChannelSelector="G" result="displacedImage" width="100%" height="100%" />
<feMerge result="effect1_texture_1217_23859">
<feMergeNode in="displacedImage"/>
</feMerge>
<feTurbulence type="fractalNoise" baseFrequency="0.49327355623245239 0.49327355623245239" stitchTiles="stitch" numOctaves="3" result="noise" seed="6823" />
<feColorMatrix in="noise" type="luminanceToAlpha" result="alphaNoise" />
<feComponentTransfer in="alphaNoise" result="coloredNoise1">
<feFuncA type="discrete" tableValues="1 1 1 1 1 1 1 1 1 1 1 1 1 1 1 1 1 1 1 1 1 1 1 1 1 1 1 1 1 1 1 1 1 1 1 1 1 1 1 1 1 1 1 1 1 1 1 1 1 1 1 0 0 0 0 0 0 0 0 0 0 0 0 0 0 0 0 0 0 0 0 0 0 0 0 0 0 0 0 0 0 0 0 0 0 0 0 0 0 0 0 0 0 0 0 0 0 0 0 0 "/>
</feComponentTransfer>
<feComposite operator="in" in2="effect1_texture_1217_23859" in="coloredNoise1" result="noise1Clipped" />
<feFlood flood-color="rgba(255, 255, 255, 0.09)" result="color1Flood" />
<feComposite operator="in" in2="noise1Clipped" in="color1Flood" result="color1" />
<feMerge result="effect2_noise_1217_23859">
<feMergeNode in="effect1_texture_1217_23859" />
<feMergeNode in="color1" />
</feMerge>
</filter>
</defs>
</svg>
