<svg width="1103" height="175" viewBox="0 0 1103 175" fill="none" xmlns="http://www.w3.org/2000/svg">
<g filter="url(#filter0_gn_1217_23852)">
<mask id="path-1-outside-1_1217_23852" maskUnits="userSpaceOnUse" x="1.12988" y="1.13672" width="1100" height="172" fill="black">
<rect fill="white" x="1.12988" y="1.13672" width="1100" height="172"/>
<path d="M98.6819 9.03672V41.5947H70.5839V165.137H35.3499V41.5947H6.35988V9.03672H98.6819ZM111.302 9.03672H169.282C195.819 9.03672 215.666 24.8697 215.666 56.7587C215.666 78.1667 206.077 92.6617 192.697 100.021L215.666 159.562V165.137H178.871L159.916 106.042H146.536V165.137H110.856L111.302 9.03672ZM146.536 75.9367H164.599C173.742 75.9367 179.094 68.5777 179.094 58.0967C179.094 47.8387 173.742 41.1487 164.599 41.1487H146.536V75.9367ZM220.187 165.137V159.562L251.184 9.03672L310.502 9.25972L341.499 159.562V165.137H304.704L299.129 129.68H262.557L256.982 165.137H220.187ZM267.24 98.9057H294.446L285.526 42.4867H276.16L267.24 98.9057ZM352.585 165.137V9.03672H405.882L421.269 98.2367H422.607L437.771 9.03672H491.068V165.137H456.726L457.841 57.6507H455.611L434.203 165.137H409.45L388.042 57.6507H385.812L386.927 165.137H352.585ZM511.342 165.137V9.03672H567.092C595.413 9.03672 614.591 24.2007 614.591 60.7727C614.591 96.8987 592.514 114.516 567.092 114.516H546.576V165.137H511.342ZM546.576 84.1877H561.74C572.444 84.1877 578.465 75.0447 578.465 62.3337C578.465 49.8457 572.444 41.1487 561.74 41.1487H546.576V84.1877ZM697.479 9.03672H733.159V165.137H697.479V102.92H661.353V165.137H625.673V9.03672H661.353V71.2537H697.479V9.03672ZM860.769 109.833C860.769 152.872 832.225 167.59 806.58 167.59C780.935 167.59 752.391 152.872 752.391 109.833V9.03672H788.071V104.927C788.071 120.537 792.977 131.91 806.58 131.91C819.737 131.91 825.089 120.537 825.089 104.927V9.03672H860.769V109.833ZM874.239 87.0867C874.239 30.4447 905.013 6.36073 939.578 6.36073C974.143 6.36073 1004.92 30.4447 1004.92 87.0867C1004.92 143.729 974.143 167.813 939.578 167.813C905.013 167.813 874.239 143.729 874.239 87.0867ZM910.811 87.0867C910.811 118.307 923.522 134.363 939.578 134.363C955.634 134.363 968.791 118.307 968.791 87.0867C968.791 55.4207 955.411 39.8107 939.578 39.8107C923.522 39.8107 910.811 55.8667 910.811 87.0867ZM1096.08 9.03672V41.5947H1067.99V165.137H1032.75V41.5947H1003.76V9.03672H1096.08Z"/>
</mask>
<path d="M98.6819 9.03672V41.5947H70.5839V165.137H35.3499V41.5947H6.35988V9.03672H98.6819ZM111.302 9.03672H169.282C195.819 9.03672 215.666 24.8697 215.666 56.7587C215.666 78.1667 206.077 92.6617 192.697 100.021L215.666 159.562V165.137H178.871L159.916 106.042H146.536V165.137H110.856L111.302 9.03672ZM146.536 75.9367H164.599C173.742 75.9367 179.094 68.5777 179.094 58.0967C179.094 47.8387 173.742 41.1487 164.599 41.1487H146.536V75.9367ZM220.187 165.137V159.562L251.184 9.03672L310.502 9.25972L341.499 159.562V165.137H304.704L299.129 129.68H262.557L256.982 165.137H220.187ZM267.24 98.9057H294.446L285.526 42.4867H276.16L267.24 98.9057ZM352.585 165.137V9.03672H405.882L421.269 98.2367H422.607L437.771 9.03672H491.068V165.137H456.726L457.841 57.6507H455.611L434.203 165.137H409.45L388.042 57.6507H385.812L386.927 165.137H352.585ZM511.342 165.137V9.03672H567.092C595.413 9.03672 614.591 24.2007 614.591 60.7727C614.591 96.8987 592.514 114.516 567.092 114.516H546.576V165.137H511.342ZM546.576 84.1877H561.74C572.444 84.1877 578.465 75.0447 578.465 62.3337C578.465 49.8457 572.444 41.1487 561.74 41.1487H546.576V84.1877ZM697.479 9.03672H733.159V165.137H697.479V102.92H661.353V165.137H625.673V9.03672H661.353V71.2537H697.479V9.03672ZM860.769 109.833C860.769 152.872 832.225 167.59 806.58 167.59C780.935 167.59 752.391 152.872 752.391 109.833V9.03672H788.071V104.927C788.071 120.537 792.977 131.91 806.58 131.91C819.737 131.91 825.089 120.537 825.089 104.927V9.03672H860.769V109.833ZM874.239 87.0867C874.239 30.4447 905.013 6.36073 939.578 6.36073C974.143 6.36073 1004.92 30.4447 1004.92 87.0867C1004.92 143.729 974.143 167.813 939.578 167.813C905.013 167.813 874.239 143.729 874.239 87.0867ZM910.811 87.0867C910.811 118.307 923.522 134.363 939.578 134.363C955.634 134.363 968.791 118.307 968.791 87.0867C968.791 55.4207 955.411 39.8107 939.578 39.8107C923.522 39.8107 910.811 55.8667 910.811 87.0867ZM1096.08 9.03672V41.5947H1067.99V165.137H1032.75V41.5947H1003.76V9.03672H1096.08Z" fill="white"/>
<path d="M98.6819 9.03672H103.196V4.52217H98.6819V9.03672ZM98.6819 41.5947V46.1093H103.196V41.5947H98.6819ZM70.5839 41.5947V37.0802H66.0693V41.5947H70.5839ZM70.5839 165.137V169.651H75.0984V165.137H70.5839ZM35.3499 165.137H30.8353V169.651H35.3499V165.137ZM35.3499 41.5947H39.8644V37.0802H35.3499V41.5947ZM6.35988 41.5947H1.84533V46.1093H6.35988V41.5947ZM6.35988 9.03672V4.52217H1.84533V9.03672H6.35988ZM98.6819 9.03672H94.1673V41.5947H98.6819H103.196V9.03672H98.6819ZM98.6819 41.5947V37.0802H70.5839V41.5947V46.1093H98.6819V41.5947ZM70.5839 41.5947H66.0693V165.137H70.5839H75.0984V41.5947H70.5839ZM70.5839 165.137V160.622H35.3499V165.137V169.651H70.5839V165.137ZM35.3499 165.137H39.8644V41.5947H35.3499H30.8353V165.137H35.3499ZM35.3499 41.5947V37.0802H6.35988V41.5947V46.1093H35.3499V41.5947ZM6.35988 41.5947H10.8744V9.03672H6.35988H1.84533V41.5947H6.35988ZM6.35988 9.03672V13.5513H98.6819V9.03672V4.52217H6.35988V9.03672ZM111.302 9.03672V4.52217H106.801L106.788 9.02382L111.302 9.03672ZM192.697 100.021L190.522 96.065L187.066 97.9657L188.485 101.646L192.697 100.021ZM215.666 159.562H220.181V158.721L219.878 157.937L215.666 159.562ZM215.666 165.137V169.651H220.181V165.137H215.666ZM178.871 165.137L174.572 166.516L175.578 169.651H178.871V165.137ZM159.916 106.042L164.215 104.663L163.209 101.527H159.916V106.042ZM146.536 106.042V101.527H142.022V106.042H146.536ZM146.536 165.137V169.651H151.051V165.137H146.536ZM110.856 165.137L106.342 165.124L106.329 169.651H110.856V165.137ZM146.536 75.9367H142.022V80.4513H146.536V75.9367ZM146.536 41.1487V36.6342H142.022V41.1487H146.536ZM111.302 9.03672V13.5513H169.282V9.03672V4.52217H111.302V9.03672ZM169.282 9.03672V13.5513C181.67 13.5513 192.047 17.2366 199.3 24.1967C206.517 31.122 211.152 41.7784 211.152 56.7587H215.666H220.181C220.181 39.8501 214.892 26.6455 205.551 17.6819C196.247 8.75332 183.431 4.52217 169.282 4.52217V9.03672ZM215.666 56.7587H211.152C211.152 76.6674 202.335 89.5679 190.522 96.065L192.697 100.021L194.873 103.976C209.82 95.7556 220.181 79.6661 220.181 56.7587H215.666ZM192.697 100.021L188.485 101.646L211.454 161.187L215.666 159.562L219.878 157.937L196.909 98.3959L192.697 100.021ZM215.666 159.562H211.152V165.137H215.666H220.181V159.562H215.666ZM215.666 165.137V160.622H178.871V165.137V169.651H215.666V165.137ZM178.871 165.137L183.17 163.758L164.215 104.663L159.916 106.042L155.617 107.421L174.572 166.516L178.871 165.137ZM159.916 106.042V101.527H146.536V106.042V110.556H159.916V106.042ZM146.536 106.042H142.022V165.137H146.536H151.051V106.042H146.536ZM146.536 165.137V160.622H110.856V165.137V169.651H146.536V165.137ZM110.856 165.137L115.371 165.15L115.817 9.04962L111.302 9.03672L106.788 9.02382L106.342 165.124L110.856 165.137ZM146.536 75.9367V80.4513H164.599V75.9367V71.4222H146.536V75.9367ZM164.599 75.9367V80.4513C170.512 80.4513 175.459 78.0099 178.822 73.7404C182.092 69.5882 183.609 64.0523 183.609 58.0967H179.094H174.58C174.58 62.6221 173.42 66.0063 171.729 68.1538C170.13 70.184 167.83 71.4222 164.599 71.4222V75.9367ZM179.094 58.0967H183.609C183.609 52.2284 182.079 46.8579 178.733 42.873C175.306 38.7912 170.361 36.6342 164.599 36.6342V41.1487V45.6633C167.981 45.6633 170.283 46.8512 171.818 48.6789C173.434 50.6036 174.58 53.7071 174.58 58.0967H179.094ZM164.599 41.1487V36.6342H146.536V41.1487V45.6633H164.599V41.1487ZM146.536 41.1487H142.022V75.9367H146.536H151.051V41.1487H146.536ZM220.187 165.137H215.673V169.651H220.187V165.137ZM220.187 159.562L215.765 158.651L215.673 159.102V159.562H220.187ZM251.184 9.03672L251.201 4.5222L247.507 4.50831L246.762 8.12616L251.184 9.03672ZM310.502 9.25972L314.924 8.34786L314.184 4.75897L310.519 4.74519L310.502 9.25972ZM341.499 159.562H346.014V159.101L345.921 158.65L341.499 159.562ZM341.499 165.137V169.651H346.014V165.137H341.499ZM304.704 165.137L300.244 165.838L300.844 169.651H304.704V165.137ZM299.129 129.68L303.589 128.979L302.989 125.165H299.129V129.68ZM262.557 129.68V125.165H258.697L258.097 128.979L262.557 129.68ZM256.982 165.137V169.651H260.842L261.442 165.838L256.982 165.137ZM267.24 98.9057L262.781 98.2007L261.956 103.42H267.24V98.9057ZM294.446 98.9057V103.42H299.731L298.905 98.2007L294.446 98.9057ZM285.526 42.4867L289.985 41.7817L289.383 37.9722H285.526V42.4867ZM276.16 42.4867V37.9722H272.303L271.701 41.7817L276.16 42.4867ZM220.187 165.137H224.702V159.562H220.187H215.673V165.137H220.187ZM220.187 159.562L224.609 160.472L255.606 9.94728L251.184 9.03672L246.762 8.12616L215.765 158.651L220.187 159.562ZM251.184 9.03672L251.167 13.5512L310.485 13.7742L310.502 9.25972L310.519 4.74519L251.201 4.5222L251.184 9.03672ZM310.502 9.25972L306.081 10.1716L337.078 160.474L341.499 159.562L345.921 158.65L314.924 8.34786L310.502 9.25972ZM341.499 159.562H336.985V165.137H341.499H346.014V159.562H341.499ZM341.499 165.137V160.622H304.704V165.137V169.651H341.499V165.137ZM304.704 165.137L309.164 164.436L303.589 128.979L299.129 129.68L294.669 130.381L300.244 165.838L304.704 165.137ZM299.129 129.68V125.165H262.557V129.68V134.194H299.129V129.68ZM262.557 129.68L258.097 128.979L252.522 164.436L256.982 165.137L261.442 165.838L267.017 130.381L262.557 129.68ZM256.982 165.137V160.622H220.187V165.137V169.651H256.982V165.137ZM267.24 98.9057V103.42H294.446V98.9057V94.3912H267.24V98.9057ZM294.446 98.9057L298.905 98.2007L289.985 41.7817L285.526 42.4867L281.067 43.1917L289.987 99.6107L294.446 98.9057ZM285.526 42.4867V37.9722H276.16V42.4867V47.0013H285.526V42.4867ZM276.16 42.4867L271.701 41.7817L262.781 98.2007L267.24 98.9057L271.699 99.6107L280.619 43.1917L276.16 42.4867ZM352.585 165.137H348.07V169.651H352.585V165.137ZM352.585 9.03672V4.52217H348.07V9.03672H352.585ZM405.882 9.03672L410.331 8.26929L409.684 4.52217H405.882V9.03672ZM421.269 98.2367L416.82 99.0042L417.466 102.751H421.269V98.2367ZM422.607 98.2367V102.751H426.419L427.057 98.9933L422.607 98.2367ZM437.771 9.03672V4.52217H433.959L433.32 8.2801L437.771 9.03672ZM491.068 9.03672H495.582V4.52217H491.068V9.03672ZM491.068 165.137V169.651H495.582V165.137H491.068ZM456.726 165.137L452.211 165.09L452.164 169.651H456.726V165.137ZM457.841 57.6507L462.355 57.6975L462.402 53.1362H457.841V57.6507ZM455.611 57.6507V53.1362H451.907L451.183 56.7689L455.611 57.6507ZM434.203 165.137V169.651H437.907L438.63 166.019L434.203 165.137ZM409.45 165.137L405.022 166.019L405.746 169.651H409.45V165.137ZM388.042 57.6507L392.469 56.7689L391.746 53.1362H388.042V57.6507ZM385.812 57.6507V53.1362H381.25L381.297 57.6975L385.812 57.6507ZM386.927 165.137V169.651H391.488L391.441 165.09L386.927 165.137ZM352.585 165.137H357.099V9.03672H352.585H348.07V165.137H352.585ZM352.585 9.03672V13.5513H405.882V9.03672V4.52217H352.585V9.03672ZM405.882 9.03672L401.433 9.80415L416.82 99.0042L421.269 98.2367L425.718 97.4693L410.331 8.26929L405.882 9.03672ZM421.269 98.2367V102.751H422.607V98.2367V93.7222H421.269V98.2367ZM422.607 98.2367L427.057 98.9933L442.221 9.79334L437.771 9.03672L433.32 8.2801L418.156 97.4801L422.607 98.2367ZM437.771 9.03672V13.5513H491.068V9.03672V4.52217H437.771V9.03672ZM491.068 9.03672H486.553V165.137H491.068H495.582V9.03672H491.068ZM491.068 165.137V160.622H456.726V165.137V169.651H491.068V165.137ZM456.726 165.137L461.24 165.184L462.355 57.6975L457.841 57.6507L453.326 57.6039L452.211 165.09L456.726 165.137ZM457.841 57.6507V53.1362H455.611V57.6507V62.1653H457.841V57.6507ZM455.611 57.6507L451.183 56.7689L429.775 164.255L434.203 165.137L438.63 166.019L460.038 58.5326L455.611 57.6507ZM434.203 165.137V160.622H409.45V165.137V169.651H434.203V165.137ZM409.45 165.137L413.877 164.255L392.469 56.7689L388.042 57.6507L383.614 58.5326L405.022 166.019L409.45 165.137ZM388.042 57.6507V53.1362H385.812V57.6507V62.1653H388.042V57.6507ZM385.812 57.6507L381.297 57.6975L382.412 165.184L386.927 165.137L391.441 165.09L390.326 57.6039L385.812 57.6507ZM386.927 165.137V160.622H352.585V165.137V169.651H386.927V165.137ZM511.342 165.137H506.827V169.651H511.342V165.137ZM511.342 9.03672V4.52217H506.827V9.03672H511.342ZM546.576 114.516V110.001H542.061V114.516H546.576ZM546.576 165.137V169.651H551.09V165.137H546.576ZM546.576 84.1877H542.061V88.7023H546.576V84.1877ZM546.576 41.1487V36.6342H542.061V41.1487H546.576ZM511.342 165.137H515.856V9.03672H511.342H506.827V165.137H511.342ZM511.342 9.03672V13.5513H567.092V9.03672V4.52217H511.342V9.03672ZM567.092 9.03672V13.5513C580.482 13.5513 591.038 17.1273 598.264 24.3772C605.488 31.6253 610.076 43.2404 610.076 60.7727H614.591H619.105C619.105 41.7331 614.104 27.4801 604.659 18.0033C595.216 8.52813 582.022 4.52217 567.092 4.52217V9.03672ZM614.591 60.7727H610.076C610.076 77.8961 604.865 90.1192 597.142 98.0399C589.405 105.975 578.753 110.001 567.092 110.001V114.516V119.03C580.852 119.03 593.95 114.248 603.607 104.343C613.278 94.4237 619.105 79.7753 619.105 60.7727H614.591ZM567.092 114.516V110.001H546.576V114.516V119.03H567.092V114.516ZM546.576 114.516H542.061V165.137H546.576H551.09V114.516H546.576ZM546.576 165.137V160.622H511.342V165.137V169.651H546.576V165.137ZM546.576 84.1877V88.7023H561.74V84.1877V79.6732H546.576V84.1877ZM561.74 84.1877V88.7023C568.548 88.7023 574.073 85.7164 577.756 80.6982C581.33 75.8281 582.979 69.3338 582.979 62.3337H578.465H573.95C573.95 68.0446 572.589 72.4773 570.476 75.3565C568.472 78.0875 565.635 79.6732 561.74 79.6732V84.1877ZM578.465 62.3337H582.979C582.979 55.429 581.322 49.0707 577.708 44.3238C573.987 39.4355 568.461 36.6342 561.74 36.6342V41.1487V45.6633C565.722 45.6633 568.558 47.2104 570.524 49.7926C572.597 52.5162 573.95 56.7504 573.95 62.3337H578.465ZM561.74 41.1487V36.6342H546.576V41.1487V45.6633H561.74V41.1487ZM546.576 41.1487H542.061V84.1877H546.576H551.09V41.1487H546.576ZM697.479 9.03672V4.52217H692.964V9.03672H697.479ZM733.159 9.03672H737.673V4.52217H733.159V9.03672ZM733.159 165.137V169.651H737.673V165.137H733.159ZM697.479 165.137H692.964V169.651H697.479V165.137ZM697.479 102.92H701.993V98.4052H697.479V102.92ZM661.353 102.92V98.4052H656.838V102.92H661.353ZM661.353 165.137V169.651H665.867V165.137H661.353ZM625.673 165.137H621.158V169.651H625.673V165.137ZM625.673 9.03672V4.52217H621.158V9.03672H625.673ZM661.353 9.03672H665.867V4.52217H661.353V9.03672ZM661.353 71.2537H656.838V75.7683H661.353V71.2537ZM697.479 71.2537V75.7683H701.993V71.2537H697.479ZM697.479 9.03672V13.5513H733.159V9.03672V4.52217H697.479V9.03672ZM733.159 9.03672H728.644V165.137H733.159H737.673V9.03672H733.159ZM733.159 165.137V160.622H697.479V165.137V169.651H733.159V165.137ZM697.479 165.137H701.993V102.92H697.479H692.964V165.137H697.479ZM697.479 102.92V98.4052H661.353V102.92V107.434H697.479V102.92ZM661.353 102.92H656.838V165.137H661.353H665.867V102.92H661.353ZM661.353 165.137V160.622H625.673V165.137V169.651H661.353V165.137ZM625.673 165.137H630.187V9.03672H625.673H621.158V165.137H625.673ZM625.673 9.03672V13.5513H661.353V9.03672V4.52217H625.673V9.03672ZM661.353 9.03672H656.838V71.2537H661.353H665.867V9.03672H661.353ZM661.353 71.2537V75.7683H697.479V71.2537V66.7392H661.353V71.2537ZM697.479 71.2537H701.993V9.03672H697.479H692.964V71.2537H697.479ZM752.391 9.03672V4.52217H747.876V9.03672H752.391ZM788.071 9.03672H792.585V4.52217H788.071V9.03672ZM825.089 9.03672V4.52217H820.574V9.03672H825.089ZM860.769 9.03672H865.283V4.52217H860.769V9.03672ZM860.769 109.833H856.254C856.254 130.279 849.52 143.392 840.316 151.455C830.998 159.618 818.607 163.075 806.58 163.075V167.59V172.104C820.198 172.104 834.901 168.203 846.266 158.247C857.745 148.191 865.283 132.426 865.283 109.833H860.769ZM806.58 167.59V163.075C794.552 163.075 782.161 159.618 772.843 151.455C763.639 143.392 756.905 130.279 756.905 109.833H752.391H747.876C747.876 132.426 755.414 148.191 766.893 158.247C778.258 168.203 792.962 172.104 806.58 172.104V167.59ZM752.391 109.833H756.905V9.03672H752.391H747.876V109.833H752.391ZM752.391 9.03672V13.5513H788.071V9.03672V4.52217H752.391V9.03672ZM788.071 9.03672H783.556V104.927H788.071H792.585V9.03672H788.071ZM788.071 104.927H783.556C783.556 113.064 784.81 120.792 788.371 126.624C792.142 132.802 798.252 136.424 806.58 136.424V131.91V127.395C801.304 127.395 798.16 125.331 796.077 121.92C793.784 118.163 792.585 112.399 792.585 104.927H788.071ZM806.58 131.91V136.424C814.726 136.424 820.799 132.769 824.601 126.657C828.219 120.842 829.603 113.124 829.603 104.927H825.089H820.574C820.574 112.339 819.283 118.113 816.935 121.887C814.772 125.364 811.591 127.395 806.58 127.395V131.91ZM825.089 104.927H829.603V9.03672H825.089H820.574V104.927H825.089ZM825.089 9.03672V13.5513H860.769V9.03672V4.52217H825.089V9.03672ZM860.769 9.03672H856.254V109.833H860.769H865.283V9.03672H860.769ZM874.239 87.0867H878.754C878.754 59.568 886.219 40.5893 897.274 28.5342C908.309 16.5007 923.365 10.8753 939.578 10.8753V6.36073V1.84618C921.227 1.84618 903.613 8.26274 890.62 22.4317C877.646 36.5791 869.725 57.9634 869.725 87.0867H874.239ZM939.578 6.36073V10.8753C955.792 10.8753 970.847 16.5007 981.882 28.5342C992.937 40.5893 1000.4 59.568 1000.4 87.0867H1004.92H1009.43C1009.43 57.9634 1001.51 36.5791 988.537 22.4317C975.544 8.26274 957.93 1.84618 939.578 1.84618V6.36073ZM1004.92 87.0867H1000.4C1000.4 114.605 992.937 133.584 981.882 145.639C970.847 157.673 955.792 163.298 939.578 163.298V167.813V172.327C957.93 172.327 975.544 165.911 988.537 151.742C1001.51 137.594 1009.43 116.21 1009.43 87.0867H1004.92ZM939.578 167.813V163.298C923.365 163.298 908.309 157.673 897.274 145.639C886.219 133.584 878.754 114.605 878.754 87.0867H874.239H869.725C869.725 116.21 877.646 137.594 890.62 151.742C903.613 165.911 921.227 172.327 939.578 172.327V167.813ZM910.811 87.0867H906.297C906.297 103.236 909.573 116.014 915.397 124.906C921.307 133.929 929.838 138.877 939.578 138.877V134.363V129.848C933.262 129.848 927.41 126.769 922.95 119.959C918.405 113.018 915.326 102.158 915.326 87.0867H910.811ZM939.578 134.363V138.877C949.3 138.877 957.933 133.948 963.958 124.943C969.906 116.051 973.306 103.264 973.306 87.0867H968.791H964.277C964.277 102.13 961.098 112.98 956.453 119.922C951.886 126.75 945.912 129.848 939.578 129.848V134.363ZM968.791 87.0867H973.306C973.306 70.6848 969.85 57.8856 963.86 49.0423C957.793 40.0841 949.157 35.2962 939.578 35.2962V39.8107V44.3253C945.833 44.3253 951.803 47.3424 956.384 54.1057C961.043 60.9838 964.277 71.8226 964.277 87.0867H968.791ZM939.578 39.8107V35.2962C929.838 35.2962 921.307 40.2446 915.397 49.2678C909.573 58.1598 906.297 70.9379 906.297 87.0867H910.811H915.326C915.326 72.0155 918.405 61.1557 922.95 54.2147C927.41 47.4048 933.262 44.3253 939.578 44.3253V39.8107ZM1096.08 9.03672H1100.6V4.52217H1096.08V9.03672ZM1096.08 41.5947V46.1093H1100.6V41.5947H1096.08ZM1067.99 41.5947V37.0802H1063.47V41.5947H1067.99ZM1067.99 165.137V169.651H1072.5V165.137H1067.99ZM1032.75 165.137H1028.24V169.651H1032.75V165.137ZM1032.75 41.5947H1037.27V37.0802H1032.75V41.5947ZM1003.76 41.5947H999.248V46.1093H1003.76V41.5947ZM1003.76 9.03672V4.52217H999.248V9.03672H1003.76ZM1096.08 9.03672H1091.57V41.5947H1096.08H1100.6V9.03672H1096.08ZM1096.08 41.5947V37.0802H1067.99V41.5947V46.1093H1096.08V41.5947ZM1067.99 41.5947H1063.47V165.137H1067.99H1072.5V41.5947H1067.99ZM1067.99 165.137V160.622H1032.75V165.137V169.651H1067.99V165.137ZM1032.75 165.137H1037.27V41.5947H1032.75H1028.24V165.137H1032.75ZM1032.75 41.5947V37.0802H1003.76V41.5947V46.1093H1032.75V41.5947ZM1003.76 41.5947H1008.28V9.03672H1003.76H999.248V41.5947H1003.76ZM1003.76 9.03672V13.5513H1096.08V9.03672V4.52217H1003.76V9.03672Z" fill="white" mask="url(#path-1-outside-1_1217_23852)"/>
</g>
<defs>
<filter id="filter0_gn_1217_23852" x="0.000409484" y="0.00236261" width="1102.44" height="174.171" filterUnits="userSpaceOnUse" color-interpolation-filters="sRGB">
<feFlood flood-opacity="0" result="BackgroundImageFix"/>
<feBlend mode="normal" in="SourceGraphic" in2="BackgroundImageFix" result="shape"/>
<feTurbulence type="fractalNoise" baseFrequency="0.077417023479938507 0.077417023479938507" numOctaves="3" seed="4167" />
<feDisplacementMap in="shape" scale="3.6905872821807861" xChannelSelector="R" yChannelSelector="G" result="displacedImage" width="100%" height="100%" />
<feMerge result="effect1_texture_1217_23852">
<feMergeNode in="displacedImage"/>
</feMerge>
<feTurbulence type="fractalNoise" baseFrequency="0.49327355623245239 0.49327355623245239" stitchTiles="stitch" numOctaves="3" result="noise" seed="6823" />
<feColorMatrix in="noise" type="luminanceToAlpha" result="alphaNoise" />
<feComponentTransfer in="alphaNoise" result="coloredNoise1">
<feFuncA type="discrete" tableValues="1 1 1 1 1 1 1 1 1 1 1 1 1 1 1 1 1 1 1 1 1 1 1 1 1 1 1 1 1 1 1 1 1 1 1 1 1 1 1 1 1 1 1 1 1 1 1 1 1 1 1 0 0 0 0 0 0 0 0 0 0 0 0 0 0 0 0 0 0 0 0 0 0 0 0 0 0 0 0 0 0 0 0 0 0 0 0 0 0 0 0 0 0 0 0 0 0 0 0 0 "/>
</feComponentTransfer>
<feComposite operator="in" in2="effect1_texture_1217_23852" in="coloredNoise1" result="noise1Clipped" />
<feFlood flood-color="rgba(255, 255, 255, 0.09)" result="color1Flood" />
<feComposite operator="in" in2="noise1Clipped" in="color1Flood" result="color1" />
<feMerge result="effect2_noise_1217_23852">
<feMergeNode in="effect1_texture_1217_23852" />
<feMergeNode in="color1" />
</feMerge>
</filter>
</defs>
</svg>
