<svg xmlns="http://www.w3.org/2000/svg" width="40" height="40" viewBox="0 0 40 40" fill="none">
  <rect x="0.666667" y="0.666667" width="38.6667" height="38.6667" rx="19.3333" stroke="#2E2E2E" stroke-opacity="0.4" stroke-width="1.33333"/>
  <path d="M26.9364 12.1328H12.4565C11.793 12.1328 11.2539 12.6794 11.2539 13.3505V27.804C11.2539 28.4751 11.793 29.0217 12.4565 29.0217H26.9364C27.5999 29.0217 28.1428 28.4751 28.1428 27.804V13.3505C28.1428 12.6794 27.5999 12.1328 26.9364 12.1328ZM16.3583 26.609H13.8551V18.5491H16.362V26.609H16.3583ZM15.1067 17.4483C14.3037 17.4483 13.6553 16.7961 13.6553 15.9969C13.6553 15.1977 14.3037 14.5455 15.1067 14.5455C15.9059 14.5455 16.5581 15.1977 16.5581 15.9969C16.5581 16.7999 15.9097 17.4483 15.1067 17.4483ZM25.7414 26.609H23.2382V22.6884C23.2382 21.7534 23.2194 20.5509 21.9376 20.5509C20.6333 20.5509 20.4335 21.5687 20.4335 22.6205V26.609H17.9303V18.5491H20.3317V19.6499H20.3656C20.7011 19.0165 21.5192 18.3493 22.7368 18.3493C25.2702 18.3493 25.7414 20.0193 25.7414 22.1907V26.609Z" fill="#2E2E2E"/>
</svg>
