<svg width="40" height="41" viewBox="0 0 40 41" fill="none" xmlns="http://www.w3.org/2000/svg">
<rect x="0.625" y="1.07812" width="38.75" height="38.75" rx="19.375" stroke="#2E2E2E" stroke-opacity="0.4" stroke-width="1.25"/>
<g clip-path="url(#clip0_1262_24675)">
<g clip-path="url(#clip1_1262_24675)">
<g clip-path="url(#clip2_1262_24675)">
<path d="M29.756 12.2815C29.3562 11.881 28.8812 11.5634 28.3583 11.3468C27.8354 11.1302 27.275 11.019 26.709 11.0195C26.1435 11.0183 25.5833 11.1291 25.0609 11.3455C24.5384 11.562 24.064 11.8798 23.665 12.2805L18.104 17.8415C17.5637 18.3828 17.177 19.0581 16.9837 19.7981C16.7904 20.5381 16.7974 21.3161 17.004 22.0525C17.0632 22.2622 17.2032 22.4398 17.3932 22.5462C17.5833 22.6526 17.8079 22.6792 18.0175 22.62C18.2272 22.5609 18.4047 22.4209 18.5112 22.2308C18.6176 22.0408 18.6442 21.8162 18.585 21.6065C18.457 21.1507 18.4526 20.6691 18.5721 20.211C18.6916 19.7529 18.9307 19.3348 19.265 18.9995L24.826 13.4395C25.3282 12.9542 26.0009 12.6855 26.6992 12.6913C27.3976 12.6972 28.0657 12.9772 28.5596 13.471C29.0535 13.9647 29.3337 14.6328 29.3397 15.3311C29.3458 16.0295 29.0773 16.7023 28.592 17.2045L23.031 22.7655C22.6666 23.1305 22.2037 23.3814 21.699 23.4875C21.4852 23.5334 21.2985 23.6623 21.1798 23.8459C21.061 24.0295 21.0201 24.2528 21.066 24.4665C21.1119 24.6803 21.2408 24.8671 21.4244 24.9858C21.608 25.1045 21.8312 25.1454 22.045 25.0995C22.8605 24.9274 23.6083 24.5216 24.197 23.9315L29.758 18.3715C30.1585 17.972 30.4762 17.4973 30.6929 16.9747C30.9096 16.4521 31.0211 15.8919 31.0209 15.3261C31.0207 14.7604 30.9089 14.2002 30.6918 13.6778C30.4748 13.1553 30.1568 12.6809 29.756 12.2815Z" fill="#2E2E2E" stroke="#2E2E2E" stroke-width="0.25"/>
<path d="M22.0322 18.9C22.0029 18.7962 21.9534 18.6992 21.8866 18.6145C21.8199 18.5298 21.7371 18.4591 21.6429 18.4064C21.5488 18.3537 21.4453 18.32 21.3381 18.3074C21.231 18.2947 21.1225 18.3032 21.0187 18.3325C20.9148 18.3618 20.8178 18.4113 20.7331 18.478C20.6484 18.5448 20.5777 18.6276 20.525 18.7217C20.4723 18.8159 20.4387 18.9194 20.426 19.0265C20.4133 19.1337 20.4219 19.2422 20.4512 19.346C20.5777 19.8009 20.5813 20.2812 20.4617 20.738C20.342 21.1947 20.1034 21.6116 19.7702 21.946L14.2092 27.509C13.706 27.989 13.035 28.2531 12.3397 28.2449C11.6444 28.2367 10.9798 27.9568 10.4881 27.4651C9.9964 26.9734 9.71653 26.3088 9.70832 25.6135C9.70011 24.9182 9.9642 24.2472 10.4442 23.744L16.0042 18.182C16.3679 17.8172 16.8301 17.5663 17.3342 17.46C17.5455 17.4151 17.7306 17.2888 17.8494 17.1083C17.9682 16.9278 18.011 16.7078 17.9687 16.4959C17.9263 16.2841 17.8021 16.0975 17.6231 15.9765C17.444 15.8556 17.2245 15.8102 17.0122 15.85H16.9962C16.1804 16.0234 15.4328 16.4303 14.8442 17.021L9.28216 22.582C8.49992 23.3945 8.06767 24.4814 8.07832 25.6092C8.08896 26.737 8.54165 27.8156 9.33907 28.6131C10.1365 29.4107 11.215 29.8635 12.3428 29.8744C13.4706 29.8852 14.5576 29.4531 15.3702 28.671L20.9312 23.109C21.4713 22.568 21.8579 21.8932 22.0514 21.1536C22.2449 20.414 22.2382 19.6362 22.0322 18.9Z" fill="#2E2E2E" stroke="#2E2E2E" stroke-width="0.25"/>
</g>
</g>
</g>
<defs>
<clipPath id="clip0_1262_24675">
<rect width="40" height="40" fill="white"/>
</clipPath>
<clipPath id="clip1_1262_24675">
<rect width="40" height="40" fill="white"/>
</clipPath>
<clipPath id="clip2_1262_24675">
<rect width="40" height="40" fill="white"/>
</clipPath>
</defs>
</svg>
