<svg xmlns="http://www.w3.org/2000/svg" width="32" height="31" viewBox="0 0 32 31" fill="none">
  <g clip-path="url(#clip0_2262_20022)">
    <path d="M12.0064 0C13.6222 0.230296 15.6446 2.13116 15.6446 3.82731V16.5009L8.31692 16.2085C5.37486 16.0403 2.62331 16.0842 1.72201 12.648L0 0H12.0064Z" fill="url(#paint0_linear_2262_20022)"/>
    <path d="M16.7402 16.4999C17.6049 12.8553 18.0409 8.96589 18.9642 5.34694C19.5357 3.10978 20.8877 1.76821 23.2692 1.57812L31.9891 3.27793C32.0771 3.36932 31.7327 4.21739 31.6667 4.39651C30.6335 7.14179 29.593 9.93459 28.4755 12.6433C27.9772 13.8569 27.6548 14.8659 26.541 15.681C26.171 15.9515 25.0901 16.4926 24.6651 16.4926H16.7439L16.7402 16.4999Z" fill="url(#paint1_linear_2262_20022)"/>
    <path d="M1.49609 30.1192L3.33901 21.2729C3.775 19.5877 5.27718 18.1913 7.03949 18.0049C9.27443 17.7673 11.7475 17.7746 14.0008 17.6942C14.5101 17.6759 15.0963 17.5078 15.6459 17.5955C15.514 18.8274 15.4517 20.0739 15.3381 21.3131C15.1915 22.9106 15.1146 25.2903 14.7665 26.8037C14.4661 28.1014 12.8503 30.1192 11.4141 30.1192H1.49609Z" fill="url(#paint2_linear_2262_20022)"/>
    <path d="M26.5083 27.4351H21.1774C20.9759 27.4351 20.2285 27.1281 19.9976 27.0221C18.4368 26.3056 17.7554 25.1431 17.4549 23.4945C17.1105 21.59 17.0592 19.5137 16.7441 17.5945C16.8614 17.5945 16.9786 17.5872 17.0959 17.5909C18.3965 17.6165 21.1261 17.7115 22.2289 18.2379C23.2585 18.7277 24.0169 19.6818 24.4199 20.7236C25.2443 22.8402 25.7096 25.2893 26.5083 27.4388V27.4351Z" fill="url(#paint3_linear_2262_20022)"/>
  </g>
  <defs>
    <linearGradient id="paint0_linear_2262_20022" x1="1.10345" y1="0.393191" x2="15.1753" y2="16.5458" gradientUnits="userSpaceOnUse">
      <stop stop-color="#FFB715"/>
      <stop offset="1" stop-color="#F04C05"/>
    </linearGradient>
    <linearGradient id="paint1_linear_2262_20022" x1="32.0002" y1="3.45899" x2="16.739" y2="16.5473" gradientUnits="userSpaceOnUse">
      <stop stop-color="#03328C"/>
      <stop offset="1" stop-color="#00804D"/>
    </linearGradient>
    <linearGradient id="paint2_linear_2262_20022" x1="15.6428" y1="19.1521" x2="2.67724" y2="31.4097" gradientUnits="userSpaceOnUse">
      <stop stop-color="#03328C"/>
      <stop offset="1" stop-color="#00804D"/>
    </linearGradient>
    <linearGradient id="paint3_linear_2262_20022" x1="26.2382" y1="27.4466" x2="17.8984" y2="17.4366" gradientUnits="userSpaceOnUse">
      <stop stop-color="#FFB715"/>
      <stop offset="1" stop-color="#F04C05"/>
    </linearGradient>
    <clipPath id="clip0_2262_20022">
      <rect width="32" height="30.1176" fill="white"/>
    </clipPath>
  </defs>
</svg>
